<svg width="15" height="15" viewBox="0 0 15 15" fill="none" xmlns="http://www.w3.org/2000/svg">
<path d="M7 8.5V8H7.5C7.77614 8 8 8.22386 8 8.5C8 8.77614 7.77614 9 7.5 9C7.22386 9 7 8.77614 7 8.5Z" fill="black"/>
<path d="M11.5 6C11.2239 6 11 6.22386 11 6.5V8.5C11 8.77614 11.2239 9 11.5 9C11.7761 9 12 8.77614 12 8.5V6.5C12 6.22386 11.7761 6 11.5 6Z" fill="black"/>
<path fill-rule="evenodd" clip-rule="evenodd" d="M0 7.5C0 3.35786 3.35786 0 7.5 0C9.56263 0 11.4308 0.83264 12.7867 2.18014C12.9988 2.06524 13.2418 2 13.5 2C14.3284 2 15 2.67157 15 3.5C15 3.97001 14.7838 4.38952 14.4455 4.66455C14.803 5.53929 15 6.49664 15 7.5C15 11.6421 11.6421 15 7.5 15C3.35786 15 0 11.6421 0 7.5ZM13.5 3C13.2239 3 13 3.22386 13 3.5C13 3.77614 13.2239 4 13.5 4C13.7761 4 14 3.77614 14 3.5C14 3.22386 13.7761 3 13.5 3ZM2 6H3.5L2.6 7.2C2.48637 7.35151 2.46809 7.55421 2.55279 7.72361C2.63748 7.893 2.81061 8 3 8H3.5C3.77614 8 4 8.22386 4 8.5C4 8.77614 3.77614 9 3.5 9H2V10H3.5C4.32843 10 5 9.32843 5 8.5C5 7.82791 4.55798 7.25905 3.94878 7.06829L4.9 5.8C5.01363 5.64849 5.03191 5.44579 4.94721 5.27639C4.86252 5.107 4.68939 5 4.5 5H2V6ZM7.5 5C6.67157 5 6 5.67157 6 6.5V8.5C6 9.32843 6.67157 10 7.5 10C8.32843 10 9 9.32843 9 8.5C9 7.67157 8.32843 7 7.5 7H7V6.5C7 6.22386 7.22386 6 7.5 6H8V5H7.5ZM10 6.5C10 5.67157 10.6716 5 11.5 5C12.3284 5 13 5.67157 13 6.5V8.5C13 9.32843 12.3284 10 11.5 10C10.6716 10 10 9.32843 10 8.5V6.5Z" fill="black"/>
</svg>
