<svg width="15" height="15" viewBox="0 0 15 15" fill="none" xmlns="http://www.w3.org/2000/svg">
<path d="M4.5 1C3.29052 1 2.28165 1.85888 2.05001 3L3.21071e-06 3L3.167e-06 4H2.05001C2.28165 5.14112 3.29052 6 4.5 6C5.70948 6 6.71836 5.14112 6.94999 4L15 4V3L6.94999 3C6.71836 1.85888 5.70948 1 4.5 1Z" fill="black"/>
<path d="M10.5 9C9.29053 9 8.28165 9.85888 8.05001 11H2.86102e-06L3.77099e-06 12H8.05001C8.28165 13.1411 9.29052 14 10.5 14C11.7095 14 12.7184 13.1411 12.95 12L15 12V11L12.95 11C12.7184 9.85888 11.7095 9 10.5 9Z" fill="black"/>
</svg>
