<svg width="15" height="15" viewBox="0 0 15 15" fill="none" xmlns="http://www.w3.org/2000/svg">
<path fill-rule="evenodd" clip-rule="evenodd" d="M7 3.50001C7 1.60628 5.34025 0.141084 3.46115 0.375972L3.14071 0.416027C2.59386 0.484383 2.07432 0.694263 1.63344 1.02492L0 2.25001V4.75001L1.63344 5.97509C2.07432 6.30575 2.59386 6.51563 3.14071 6.58399L3.46115 6.62404C3.64326 6.64681 3.82332 6.6536 4 6.64559V15H7V3.50001ZM4 4H2V3H4V4Z" fill="black"/>
<path fill-rule="evenodd" clip-rule="evenodd" d="M8 3.50001C8 1.60628 9.65975 0.141084 11.5389 0.375972L11.8593 0.416027C12.4061 0.484383 12.9257 0.694263 13.3666 1.02492L15 2.25001V4.75001L13.3666 5.97509C12.9257 6.30575 12.4061 6.51563 11.8593 6.58399L11.5389 6.62404C11.3567 6.64681 11.1767 6.6536 11 6.64559V15H8V3.50001ZM11 4H13V3H11V4Z" fill="black"/>
</svg>
