<svg width="15" height="16" viewBox="0 0 15 16" fill="none" xmlns="http://www.w3.org/2000/svg">
<path fill-rule="evenodd" clip-rule="evenodd" d="M2.96167 1.40885C4.06865 0.515889 5.59567 0 7.49999 0C9.40426 0 10.9313 0.515669 12.0383 1.40854C13.1462 2.30212 13.7968 3.54457 13.9946 4.92694C14.3709 7.39467 13.8401 9.73259 12.4115 11.784C11.7303 12.7795 10.8248 13.7642 9.76425 14.4245L9.75716 14.4289C8.30312 15.3008 6.6969 15.3007 5.24286 14.4288L5.23569 14.4245C4.17532 13.7644 3.27004 12.7798 2.58886 11.7846C1.15432 9.73534 0.622876 7.39464 1.00545 4.92628C1.20342 3.54455 1.85399 2.30236 2.96167 1.40885ZM6.70718 8L4.50008 5.79289L3.79297 6.5L6.00008 8.70711L6.70718 8ZM6.70005 11.0417L6.2418 10.8417L5.8418 11.7583L6.30005 11.9583C6.32525 11.9693 6.37429 11.9963 6.46013 12.0491C6.48539 12.0647 6.51551 12.0835 6.54804 12.1039C6.60698 12.1407 6.67403 12.1826 6.73427 12.2188C6.83285 12.278 6.94749 12.3431 7.06325 12.3943C7.16897 12.441 7.32703 12.5 7.50005 12.5C7.67308 12.5 7.83114 12.441 7.93686 12.3943C8.05262 12.3431 8.16726 12.278 8.26584 12.2188C8.32606 12.1826 8.39289 12.1409 8.45182 12.104C8.48439 12.0836 8.51469 12.0647 8.53998 12.0491C8.62582 11.9963 8.67486 11.9693 8.70005 11.9583L9.15831 11.7583L8.75831 10.8417L8.30005 11.0417C8.20259 11.0843 8.09876 11.1465 8.01593 11.1975C7.97694 11.2214 7.94156 11.2436 7.90724 11.2651C7.85585 11.2973 7.80627 11.3283 7.75103 11.3615C7.66373 11.4139 7.5911 11.4538 7.5326 11.4796C7.51937 11.4855 7.50858 11.4898 7.50005 11.493C7.49153 11.4898 7.48074 11.4855 7.46751 11.4796C7.40901 11.4538 7.33638 11.4139 7.24908 11.3615C7.19385 11.3283 7.14482 11.2976 7.09344 11.2654C7.05895 11.2438 7.02338 11.2216 6.98418 11.1975C6.90135 11.1465 6.79752 11.0843 6.70005 11.0417ZM11.2072 6.5L9.00008 8.70711L8.29297 8L10.5001 5.79289L11.2072 6.5Z" fill="black"/>
</svg>
