<svg width="15" height="15" viewBox="0 0 15 15" fill="none" xmlns="http://www.w3.org/2000/svg">
<path fill-rule="evenodd" clip-rule="evenodd" d="M3.03897 1.4032C4.12743 0.513857 5.62923 0 7.50144 0C9.37361 0 10.8754 0.513637 11.9639 1.40289C13.0528 2.2925 13.691 3.52825 13.885 4.90146C14.2542 7.3536 13.7336 9.67724 12.3312 11.717C11.6626 12.7066 10.7734 13.6863 9.73109 14.3436L9.72398 14.3481C8.29275 15.2174 6.71018 15.2173 5.27894 14.348L5.27176 14.3437C4.22962 13.6865 3.3406 12.7069 2.67201 11.7175C1.26378 9.6799 0.742626 7.35351 1.11795 4.90075C1.3121 3.52819 1.95026 2.29273 3.03897 1.4032ZM6.73633 7.96046L6.02471 8.66303L3.84994 6.46022L4.56156 5.75766L6.73633 7.96046ZM8.26655 7.96046L8.97817 8.66303L11.1529 6.46022L10.4413 5.75766L8.26655 7.96046ZM6.26482 10.7759L6.72213 10.9781C6.81866 11.0207 6.92119 11.083 7.00242 11.1336C7.04105 11.1577 7.07598 11.1798 7.10983 11.2013C7.16018 11.2333 7.20814 11.2637 7.26231 11.2966C7.34789 11.3487 7.4187 11.388 7.47542 11.4134C7.48559 11.4179 7.49424 11.4215 7.50144 11.4244C7.50864 11.4215 7.51729 11.4179 7.52746 11.4134C7.58418 11.388 7.65499 11.3487 7.74057 11.2966C7.79474 11.2637 7.8427 11.2333 7.89305 11.2013C7.9269 11.1798 7.96183 11.1577 8.00046 11.1336C8.08169 11.083 8.18422 11.0207 8.28075 10.9781L8.73806 10.7759L9.14238 11.6905L8.68507 11.8927C8.66122 11.9032 8.61371 11.9297 8.52938 11.9823C8.50469 11.9977 8.47514 12.0164 8.44319 12.0366C8.38526 12.0733 8.31943 12.115 8.26023 12.151C8.16338 12.2099 8.05038 12.2749 7.93607 12.3261C7.83199 12.3727 7.67457 12.4324 7.50144 12.4324C7.32831 12.4324 7.17089 12.3727 7.06681 12.3261C6.9525 12.2749 6.8395 12.2099 6.74265 12.151C6.68345 12.115 6.61762 12.0733 6.55969 12.0366C6.52774 12.0164 6.49819 11.9977 6.4735 11.9823C6.38917 11.9297 6.34166 11.9032 6.31781 11.8927L5.8605 11.6905L6.26482 10.7759Z" fill="black"/>
</svg>
