<svg width="15" height="15" viewBox="0 0 15 15" fill="none" xmlns="http://www.w3.org/2000/svg">
<path d="M7.50007 4.24744L9.14182 8H5.85833L7.50007 4.24744Z" fill="black"/>
<path fill-rule="evenodd" clip-rule="evenodd" d="M7.36267 0.019238C7.45244 -0.00641268 7.54761 -0.00641268 7.63739 0.019238L14.6374 2.01924C14.8719 2.08626 15.0239 2.31276 14.997 2.55522L13.997 11.5552C13.9782 11.7238 13.8753 11.8714 13.7236 11.9472L7.72363 14.9472C7.58287 15.0176 7.41718 15.0176 7.27642 14.9472L1.27642 11.9472C1.12472 11.8714 1.02181 11.7238 1.00308 11.5552L0.00308494 2.55522C-0.0238546 2.31276 0.128104 2.08626 0.362666 2.01924L7.36267 0.019238ZM7.50007 1.75255L11.4581 10.7996L10.542 11.2004L9.57932 9H5.42083L4.45815 11.2004L3.54199 10.7996L7.50007 1.75255Z" fill="black"/>
</svg>
