<svg width="15" height="15" viewBox="0 0 15 15" fill="none" xmlns="http://www.w3.org/2000/svg">
<path d="M4 0V2H5V0H4Z" fill="black"/>
<path d="M10 0V2H11V0H10Z" fill="black"/>
<path d="M2 5H0V4H2V5Z" fill="black"/>
<path d="M0 11H2V10H0V11Z" fill="black"/>
<path d="M15 5H13V4H15V5Z" fill="black"/>
<path d="M13 11H15V10H13V11Z" fill="black"/>
<path d="M4 15V13H5V15H4Z" fill="black"/>
<path d="M10 13V15H11V13H10Z" fill="black"/>
<path d="M4.5 4C4.22386 4 4 4.22386 4 4.5V10.5C4 10.7761 4.22386 11 4.5 11H10.5C10.7761 11 11 10.7761 11 10.5V4.5C11 4.22386 10.7761 4 10.5 4H4.5Z" fill="black"/>
</svg>
