<svg width="15" height="15" viewBox="0 0 15 15" fill="none" xmlns="http://www.w3.org/2000/svg">
<path fill-rule="evenodd" clip-rule="evenodd" d="M0 7.5C0 3.35786 3.35786 0 7.5 0C11.6421 0 15 3.35786 15 7.5V8.5C15 8.99302 14.8568 9.45412 14.6095 9.84215C14.1665 10.5372 13.3875 11 12.5 11C11.5285 11 10.6864 10.4458 10.2726 9.63634C9.63256 10.4658 8.62867 11 7.5 11C5.567 11 4 9.433 4 7.5C4 5.567 5.567 4 7.5 4C9.433 4 11 5.567 11 7.5V8.5C11 9.32843 11.6716 10 12.5 10C13.0316 10 13.4991 9.7238 13.7662 9.30471C13.9142 9.07247 14 8.79702 14 8.5V7.5C14 3.91015 11.0899 1 7.5 1C3.91015 1 1 3.91015 1 7.5C1 11.0899 3.91015 14 7.5 14C8.88168 14 10.1613 13.5695 11.214 12.8352L11.786 13.6554C10.571 14.5029 9.09282 15 7.5 15C3.35786 15 0 11.6421 0 7.5ZM10 7.5C10 6.11929 8.88071 5 7.5 5C6.11929 5 5 6.11929 5 7.5C5 8.88071 6.11929 10 7.5 10C8.88071 10 10 8.88071 10 7.5Z" fill="black"/>
</svg>
