<svg width="15" height="15" viewBox="0 0 15 15" fill="none" xmlns="http://www.w3.org/2000/svg">
<path d="M7.5 1C6.11929 1 5 2.11929 5 3.5V4H4V3.5C4 1.567 5.567 0 7.5 0C9.433 0 11 1.567 11 3.5V4H10V3.5C10 2.11929 8.88071 1 7.5 1Z" fill="black"/>
<path fill-rule="evenodd" clip-rule="evenodd" d="M3.39514 5C2.63082 5 1.98872 5.5747 1.90432 6.33435L1.12654 13.3344C1.02781 14.2229 1.72335 15 2.61737 15H12.3828C13.2769 15 13.9724 14.2229 13.8737 13.3344L13.0959 6.33435C13.0115 5.5747 12.3694 5 11.6051 5H3.39514ZM5 9V10H10V9H5Z" fill="black"/>
</svg>
