<svg width="15" height="15" viewBox="0 0 15 15" fill="none" xmlns="http://www.w3.org/2000/svg">
<path fill-rule="evenodd" clip-rule="evenodd" d="M4.38313 5L6.92878 0.757248L6.07129 0.242752L3.21694 5H0.703196C0.314831 5 0 5.31483 0 5.7032V6.14196C0 9.08555 0.685346 11.9887 2.00176 14.6216C2.11773 14.8535 2.35478 15 2.61409 15H12.3859C12.6452 15 12.8823 14.8535 12.9982 14.6216C14.3147 11.9887 15 9.08555 15 6.14196V5.7032C15 5.31483 14.6852 5 14.2968 5H11.7831L8.92878 0.242752L8.07129 0.757248L10.6169 5H4.38313ZM5 10H10V9H5V10Z" fill="black"/>
</svg>
