<svg width="15" height="15" viewBox="0 0 15 15" fill="none" xmlns="http://www.w3.org/2000/svg">
<path fill-rule="evenodd" clip-rule="evenodd" d="M4.38313 4.99998L6.92878 0.757233L6.07129 0.242737L3.21694 4.99998H0.703196C0.314831 4.99998 0 5.31482 0 5.70318V6.14194C0 9.08554 0.685346 11.9887 2.00176 14.6215C2.11773 14.8535 2.35478 15 2.61409 15H12.3859C12.6452 15 12.8823 14.8535 12.9982 14.6215C14.3147 11.9887 15 9.08554 15 6.14194V5.70318C15 5.31482 14.6852 4.99998 14.2968 4.99998H11.7831L8.92878 0.242737L8.07129 0.757233L10.6169 4.99998H4.38313ZM7 12V9.99998H5V8.99998H7V6.99998H8V8.99998H10V9.99998H8V12H7Z" fill="black"/>
</svg>
