<svg width="15" height="15" viewBox="0 0 15 15" fill="none" xmlns="http://www.w3.org/2000/svg">
<path fill-rule="evenodd" clip-rule="evenodd" d="M7.26909 0.0565121C7.43445 -0.0295868 7.63399 -0.0165295 7.78672 0.0903855L12.7867 3.59039C12.9213 3.68457 13.001 3.83884 13 4.00308C12.999 4.16732 12.9174 4.32059 12.7817 4.41312L8.25423 7.5L12.7817 10.5869C12.9174 10.6794 12.999 10.8327 13 10.9969C13.001 11.1612 12.9213 11.3154 12.7867 11.4096L7.78672 14.9096C7.63399 15.0165 7.43445 15.0296 7.26909 14.9435C7.10372 14.8574 6.99999 14.6864 6.99999 14.5V8.35516L1.78166 11.9131L1.21832 11.0869L6.47909 7.5L1.21832 3.91312L1.78166 3.08689L6.99999 6.64484V0.500001C6.99999 0.313564 7.10372 0.142611 7.26909 0.0565121ZM7.99999 8.53698L11.6204 11.0054L7.99999 13.5397V8.53698ZM7.99999 6.46302V1.46033L11.6204 3.99459L7.99999 6.46302Z" fill="black"/>
</svg>
