<svg width="15" height="15" viewBox="0 0 15 15" fill="none" xmlns="http://www.w3.org/2000/svg">
<path fill-rule="evenodd" clip-rule="evenodd" d="M3 1.57921C3 1.25932 3.25932 1 3.57921 1H8.5C10.433 1 12 2.567 12 4.5C12 5.59515 11.497 6.57282 10.7095 7.2146C12.0465 7.70695 13 8.99212 13 10.5C13 12.433 11.433 14 9.5 14H3.58911C3.26374 14 3 13.7362 3 13.4109V1.57921ZM4 8V13H9.5C10.8807 13 12 11.8807 12 10.5C12 9.11929 10.8807 8 9.5 8H4ZM4 7H8.5C9.88071 7 11 5.88071 11 4.5C11 3.11929 9.88071 2 8.5 2H4V7Z" fill="black"/>
</svg>
