<svg width="15" height="15" viewBox="0 0 15 15" fill="none" xmlns="http://www.w3.org/2000/svg">
<path fill-rule="evenodd" clip-rule="evenodd" d="M13.5 2H12V0H11V2H4V0H3V2H1.5C0.671573 2 0 2.67157 0 3.5V13.5C0 14.3284 0.671573 15 1.5 15H13.5C14.3284 15 15 14.3284 15 13.5V3.5C15 2.67157 14.3284 2 13.5 2ZM9.14648 10.8535L7.50004 9.20708L5.85359 10.8535L5.14648 10.1464L6.79293 8.49998L5.14648 6.85353L5.85359 6.14642L7.50004 7.79287L9.14648 6.14642L9.85359 6.85353L8.20714 8.49998L9.85359 10.1464L9.14648 10.8535Z" fill="black"/>
</svg>
