<svg width="15" height="16" viewBox="0 0 15 16" fill="none" xmlns="http://www.w3.org/2000/svg">
<path d="M2 1.01477H7V2.01477L2 2.01477V1.01477Z" fill="black"/>
<path d="M8 8.51477C8 7.68635 8.67157 7.01477 9.5 7.01477C10.3284 7.01477 11 7.68635 11 8.51477C11 9.3432 10.3284 10.0148 9.5 10.0148C8.67157 10.0148 8 9.3432 8 8.51477Z" fill="black"/>
<path fill-rule="evenodd" clip-rule="evenodd" d="M0 12.5148C0 13.3432 0.671574 14.0148 1.5 14.0148L13.5 14.0148C14.3284 14.0148 15 13.3432 15 12.5148L15 4.51477C15 3.68635 14.3284 3.01477 13.5 3.01477H1.5C0.671574 3.01477 0 3.68635 0 4.51477V12.5148ZM9.5 6.01477C8.11929 6.01477 7 7.13406 7 8.51477C7 9.89548 8.11929 11.0148 9.5 11.0148C10.8807 11.0148 12 9.89548 12 8.51477C12 7.13406 10.8807 6.01477 9.5 6.01477Z" fill="black"/>
</svg>
