<svg width="15" height="16" viewBox="0 0 15 16" fill="none" xmlns="http://www.w3.org/2000/svg">
<path fill-rule="evenodd" clip-rule="evenodd" d="M2.19729 2.75747C2.82994 1.70375 3.96894 1.05908 5.19799 1.05908H9.80201C11.0311 1.05908 12.1701 1.70375 12.8027 2.75747L15 6.41722V12.5591C15 13.3875 14.3284 14.0591 13.5 14.0591H12.5C11.6716 14.0591 11 13.3875 11 12.5591V12.0591H4V12.5591C4 13.3875 3.32843 14.0591 2.5 14.0591H1.5C0.671573 14.0591 0 13.3875 0 12.5591V6.41722L2.19729 2.75747ZM12 7.05908H3V6.05908H12V7.05908ZM2 10.0591H5V9.05908H2V10.0591ZM13 9.05908H10V10.0591H13V9.05908Z" fill="black"/>
</svg>
