<svg width="15" height="15" viewBox="0 0 15 15" fill="none" xmlns="http://www.w3.org/2000/svg">
<path fill-rule="evenodd" clip-rule="evenodd" d="M4 0H11V1H14V13.5C14 14.3284 13.3284 15 12.5 15H2.5C1.67157 15 1 14.3284 1 13.5V1H4V0ZM5 1H10V2.5C10 2.77614 9.77614 3 9.5 3H5.5C5.22386 3 5 2.77614 5 2.5V1ZM9.14648 10.8535L7.50004 9.20708L5.85359 10.8535L5.14648 10.1464L6.79293 8.49998L5.14648 6.85353L5.85359 6.14642L7.50004 7.79287L9.14648 6.14642L9.85359 6.85353L8.20714 8.49998L9.85359 10.1464L9.14648 10.8535Z" fill="black"/>
</svg>
