<svg width="15" height="15" viewBox="0 0 15 15" fill="none" xmlns="http://www.w3.org/2000/svg">
<path fill-rule="evenodd" clip-rule="evenodd" d="M7.20938 0.0931333C7.38323 -0.0310444 7.61677 -0.0310444 7.79062 0.0931333L14.7906 5.09313C14.922 5.18699 15 5.33852 15 5.5V9.5C15 9.66148 14.922 9.81301 14.7906 9.90687L7.79062 14.9069C7.61677 15.031 7.38323 15.031 7.20938 14.9069L0.209381 9.90687C0.0779828 9.81301 0 9.66148 0 9.5V5.5C0 5.33852 0.0779828 5.18699 0.209381 5.09313L7.20938 0.0931333ZM1 6.47159L2.43977 7.5L1 8.52841V6.47159ZM1.36023 9.5L7 13.5284V10.7573L3.3 8.11445L1.36023 9.5ZM4.16023 7.5L7.5 9.88555L10.8398 7.5L7.5 5.11445L4.16023 7.5ZM8 4.24269L11.7 6.88555L13.6398 5.5L8 1.47159V4.24269ZM7 1.47159V4.24269L3.3 6.88555L1.36023 5.5L7 1.47159ZM14 6.47159L12.5602 7.5L14 8.52841V6.47159ZM13.6398 9.5L11.7 8.11445L8 10.7573V13.5284L13.6398 9.5Z" fill="black"/>
</svg>
