<svg width="15" height="15" viewBox="0 0 15 15" fill="none" xmlns="http://www.w3.org/2000/svg">
<path d="M6.02639 7.50003C6.02639 6.67271 6.68592 6.00046 7.49895 6.00046C8.31198 6.00046 8.97151 6.67271 8.97151 7.50003C8.97151 8.32737 8.31196 8.99966 7.49895 8.99966C6.68594 8.99966 6.02639 8.32737 6.02639 7.50003Z" fill="black"/>
<path fill-rule="evenodd" clip-rule="evenodd" d="M5.56839 0H9.42883L9.59234 0.836678L9.59291 0.839536L9.86185 2.17496C10.2454 2.34736 10.6011 2.56081 10.9301 2.80241L12.2745 2.34422L13.0714 2.09258L13.4875 2.8198L14.5747 4.67403L15 5.41742L14.3666 5.98019L13.3582 6.85449C13.3899 7.05074 13.4192 7.27228 13.4192 7.49997C13.4192 7.72766 13.3899 7.94923 13.3582 8.14551L14.3711 9.02375L15 9.5826L14.572 10.3305L13.4877 12.18L13.0714 12.9093L12.2642 12.6524L10.9301 12.1976C10.6011 12.4392 10.2454 12.6526 9.86185 12.825L9.59291 14.1604L9.59234 14.1633L9.42884 15H5.56838L5.40638 14.1614L5.13644 12.8251C4.75284 12.6527 4.39709 12.4392 4.06806 12.1976L2.72457 12.6555L1.92602 12.9095L1.51123 12.1796L0.422976 10.3251L0 9.58261L0.631504 9.0198L1.64024 8.1452C1.60869 7.94947 1.57887 7.72707 1.57887 7.49997C1.57887 7.27287 1.60869 7.05051 1.64024 6.8548L0.626456 5.97576L2.12992e-05 5.4174L0.426202 4.66925L1.51137 2.82016L1.92602 2.09235L2.73393 2.34761L4.06805 2.80241C4.39707 2.56077 4.75283 2.3473 5.13644 2.17489L5.40639 0.838475L5.56839 0ZM7.49895 4.99986C6.14437 4.99986 5.04468 6.11945 5.04468 7.50003C5.04468 8.88059 6.14435 10.0003 7.49895 10.0003C8.85355 10.0003 9.95322 8.88059 9.95322 7.50003C9.95322 6.11945 8.85353 4.99986 7.49895 4.99986Z" fill="black"/>
</svg>
