<svg width="15" height="15" viewBox="0 0 15 15" fill="none" xmlns="http://www.w3.org/2000/svg">
<path d="M10 12H13V11H10V12Z" fill="black"/>
<path fill-rule="evenodd" clip-rule="evenodd" d="M9.5 0C8.67157 0 8 0.671573 8 1.5V3H1.5C0.671573 3 0 3.67157 0 4.5V10.5C0 11.3284 0.671573 12 1.5 12H6V14H4V15H13.5C14.3284 15 15 14.3284 15 13.5V1.5C15 0.671573 14.3284 0 13.5 0H9.5ZM8.08535 14H7V12H8V13.5C8 13.6753 8.03008 13.8436 8.08535 14ZM9.5 14H13.5C13.7761 14 14 13.7761 14 13.5V6H9V13.5C9 13.7761 9.22386 14 9.5 14ZM9 5H14V1.5C14 1.22386 13.7761 1 13.5 1H9.5C9.22386 1 9 1.22386 9 1.5V5Z" fill="black"/>
</svg>
