<svg width="15" height="15" viewBox="0 0 15 15" fill="none" xmlns="http://www.w3.org/2000/svg">
<path fill-rule="evenodd" clip-rule="evenodd" d="M11 2H4V0H3V2H1.5C0.671573 2 0 2.67157 0 3.5V11.5C0 12.3284 0.671574 13 1.5 13H13.5C14.3284 13 15 12.3284 15 11.5V3.5C15 2.67157 14.3284 2 13.5 2H12V0H11V2ZM3 6C3 4.89543 3.89543 4 5 4C6.10457 4 7 4.89543 7 6C7 7.10457 6.10457 8 5 8C3.89543 8 3 7.10457 3 6ZM2.38197 10.618C2.87779 9.6264 3.89132 9 5 9C6.10869 9 7.12222 9.6264 7.61803 10.618L7.94721 11.2764C8.02471 11.4314 8.01643 11.6155 7.92533 11.7629C7.83422 11.9103 7.67329 12 7.5 12H2.5C2.32671 12 2.16578 11.9103 2.07468 11.7629C1.98357 11.6155 1.97529 11.4314 2.05279 11.2764L2.38197 10.618ZM9 6H12V5H9V6ZM9 9H12V8H9V9Z" fill="black"/>
<path d="M15 14V15H0V14H15Z" fill="black"/>
</svg>
