<svg width="15" height="15" viewBox="0 0 15 15" fill="none" xmlns="http://www.w3.org/2000/svg">
<path fill-rule="evenodd" clip-rule="evenodd" d="M7.5 0.421143L14 4.21281V10.7872L7.5 14.5788L1 10.7872V4.21281L7.5 0.421143ZM6.5 4C4.567 4 3 5.567 3 7.5C3 9.433 4.567 11 6.5 11H7.08579C8.1239 11 9.1195 10.5876 9.85355 9.85355L9.14645 9.14645C8.59993 9.69297 7.85868 10 7.08579 10H6.5C5.11929 10 4 8.88071 4 7.5C4 6.11929 5.11929 5 6.5 5H7.08579C7.85868 5 8.59993 5.30703 9.14645 5.85355L9.85355 5.14645C9.1195 4.41239 8.1239 4 7.08579 4H6.5ZM7 7V6H8V7H10V6H11V7H12V8H11V9H10V8H8V9H7V8H6V7H7Z" fill="black"/>
</svg>
