<svg width="15" height="15" viewBox="0 0 15 15" fill="none" xmlns="http://www.w3.org/2000/svg">
<path d="M1.5 0C0.671573 0 0 0.671573 0 1.5C0 2.32843 0.671573 3 1.5 3C2.15311 3 2.70873 2.5826 2.91465 2H4.5C5.88071 2 7 3.11929 7 4.5V10.5C7 12.433 8.567 14 10.5 14H12.0854C12.2913 14.5826 12.8469 15 13.5 15C14.3284 15 15 14.3284 15 13.5C15 12.6716 14.3284 12 13.5 12C12.8469 12 12.2913 12.4174 12.0854 13H10.5C9.11929 13 8 11.8807 8 10.5V4.5C8 2.567 6.433 1 4.5 1H2.91465C2.70873 0.417404 2.15311 0 1.5 0Z" fill="black"/>
</svg>
