<svg width="15" height="15" viewBox="0 0 15 15" fill="none" xmlns="http://www.w3.org/2000/svg">
<path d="M7 7H6V6H7V7Z" fill="black"/>
<path fill-rule="evenodd" clip-rule="evenodd" d="M7.5 0C3.35786 0 0 3.35786 0 7.5C0 11.6421 3.35786 15 7.5 15C11.6421 15 15 11.6421 15 7.5C15 3.35786 11.6421 0 7.5 0ZM8 13.9811C9.08703 13.8984 10.0993 13.5483 10.9713 12.9965L10.6842 7.82877C10.596 6.24172 9.28337 5 7.69388 5H6C5.25972 5 4.61337 5.4022 4.26756 6H5V7H4C4 8.10457 4.89543 9 6 9L6.88197 8.99997C7.37779 8.99997 7.83105 8.71984 8.05279 8.27637L8.94721 8.72358C8.73444 9.14912 8.40082 9.4894 8 9.71125V13.9811Z" fill="black"/>
</svg>
