<svg width="15" height="15" viewBox="0 0 15 15" fill="none" xmlns="http://www.w3.org/2000/svg">
<path fill-rule="evenodd" clip-rule="evenodd" d="M7 1V0H8V1H9.5C11.433 1 13 2.567 13 4.5H12C12 3.11929 10.8807 2 9.5 2H5.5C4.11929 2 3 3.11929 3 4.5C3 5.88071 4.11929 7 5.5 7H9.5C11.433 7 13 8.567 13 10.5C13 12.433 11.433 14 9.5 14H8V15H7V14H5.5C3.567 14 2 12.433 2 10.5H3C3 11.8807 4.11929 13 5.5 13H9.5C10.8807 13 12 11.8807 12 10.5C12 9.11929 10.8807 8 9.5 8H5.5C3.567 8 2 6.433 2 4.5C2 2.567 3.567 1 5.5 1H7Z" fill="black"/>
</svg>
