<svg width="15" height="15" viewBox="0 0 15 15" fill="none" xmlns="http://www.w3.org/2000/svg">
<path d="M0 7.49999C0 3.52586 3.09098 0.273681 7 0.0163879V4.03543C5.30385 4.27804 4 5.73675 4 7.49999C4 9.43298 5.567 11 7.5 11C8.28618 11 9.01181 10.7408 9.5961 10.3032L12.438 13.1451C11.1188 14.3 9.39113 15 7.5 15C3.35786 15 0 11.6421 0 7.49999Z" fill="black"/>
<path d="M13.1451 12.438C14.3001 11.1187 15 9.3911 15 7.49999C15 6.46647 14.7909 5.48178 14.4128 4.58589L10.7552 6.2115C10.9132 6.61027 11 7.04499 11 7.49999C11 8.28615 10.7408 9.01177 10.3032 9.59605L13.1451 12.438Z" fill="black"/>
<path d="M8 4.03543V0.0163879C10.5416 0.183676 12.7373 1.61702 13.9626 3.69169L10.2541 5.33989C9.71063 4.64795 8.91203 4.16589 8 4.03543Z" fill="black"/>
</svg>
