<svg width="15" height="15" viewBox="0 0 15 15" fill="none" xmlns="http://www.w3.org/2000/svg">
<path fill-rule="evenodd" clip-rule="evenodd" d="M7.50005 0C3.35791 -1.81058e-07 4.59574e-05 3.35786 4.57764e-05 7.5C4.55953e-05 11.6421 3.35791 15 7.50005 15C11.6422 15 15 11.6421 15 7.5C15 3.35786 11.6422 1.81058e-07 7.50005 0ZM4.79301 5.49995L7.50012 8.20706L10.2072 5.49995L9.50012 4.79285L7.50012 6.79285L5.50012 4.79285L4.79301 5.49995ZM4.79301 8.49995L7.50012 11.2071L10.2072 8.49995L9.50012 7.79285L7.50012 9.79285L5.50012 7.79285L4.79301 8.49995Z" fill="black"/>
</svg>
