<svg width="15" height="15" viewBox="0 0 15 15" fill="none" xmlns="http://www.w3.org/2000/svg">
<path fill-rule="evenodd" clip-rule="evenodd" d="M7.50002 14.9999C11.6422 14.9999 15 11.6421 15 7.49994C15 3.3578 11.6422 -6.09858e-05 7.50002 -6.10352e-05C3.35788 -6.10846e-05 1.53082e-05 3.3578 1.52588e-05 7.49994C1.52094e-05 11.6421 3.35788 14.9999 7.50002 14.9999ZM10.207 9.49999L7.49994 6.79288L4.79283 9.49999L5.49994 10.2071L7.49994 8.20709L9.49994 10.2071L10.207 9.49999ZM10.207 6.49999L7.49994 3.79288L4.79283 6.49999L5.49994 7.20709L7.49994 5.20709L9.49994 7.20709L10.207 6.49999Z" fill="black"/>
</svg>
