<svg width="15" height="15" viewBox="0 0 15 15" fill="none" xmlns="http://www.w3.org/2000/svg">
<path fill-rule="evenodd" clip-rule="evenodd" d="M1.5 5.5C1.5 4.94772 1.94772 4.5 2.5 4.5C3.05228 4.5 3.5 4.94772 3.5 5.5C3.5 6.05228 3.05228 6.5 2.5 6.5C1.94772 6.5 1.5 6.05228 1.5 5.5ZM6.5 5.5C6.5 4.94772 6.94772 4.5 7.5 4.5C8.05228 4.5 8.5 4.94772 8.5 5.5C8.5 6.05228 8.05228 6.5 7.5 6.5C6.94772 6.5 6.5 6.05228 6.5 5.5ZM11.5 5.5C11.5 4.94772 11.9477 4.5 12.5 4.5C13.0523 4.5 13.5 4.94772 13.5 5.5C13.5 6.05228 13.0523 6.5 12.5 6.5C11.9477 6.5 11.5 6.05228 11.5 5.5ZM1.5 9.5C1.5 8.94772 1.94772 8.5 2.5 8.5C3.05228 8.5 3.5 8.94772 3.5 9.5C3.5 10.0523 3.05228 10.5 2.5 10.5C1.94772 10.5 1.5 10.0523 1.5 9.5ZM6.5 9.5C6.5 8.94772 6.94772 8.5 7.5 8.5C8.05228 8.5 8.5 8.94772 8.5 9.5C8.5 10.0523 8.05228 10.5 7.5 10.5C6.94772 10.5 6.5 10.0523 6.5 9.5ZM11.5 9.5C11.5 8.94772 11.9477 8.5 12.5 8.5C13.0523 8.5 13.5 8.94772 13.5 9.5C13.5 10.0523 13.0523 10.5 12.5 10.5C11.9477 10.5 11.5 10.0523 11.5 9.5Z" fill="black"/>
</svg>
