<svg width="15" height="15" viewBox="0 0 15 15" fill="none" xmlns="http://www.w3.org/2000/svg">
<path fill-rule="evenodd" clip-rule="evenodd" d="M4.5 2.5C4.5 1.94772 4.94772 1.5 5.5 1.5C6.05229 1.5 6.5 1.94772 6.5 2.5C6.5 3.05228 6.05229 3.5 5.5 3.5C4.94772 3.5 4.5 3.05228 4.5 2.5ZM8.5 2.5C8.5 1.94772 8.94772 1.5 9.5 1.5C10.0523 1.5 10.5 1.94772 10.5 2.5C10.5 3.05228 10.0523 3.5 9.5 3.5C8.94772 3.5 8.5 3.05229 8.5 2.5ZM4.5 7.5C4.5 6.94772 4.94772 6.5 5.5 6.5C6.05228 6.5 6.5 6.94772 6.5 7.5C6.5 8.05228 6.05228 8.5 5.5 8.5C4.94772 8.5 4.5 8.05228 4.5 7.5ZM8.5 7.5C8.5 6.94771 8.94772 6.5 9.5 6.5C10.0523 6.5 10.5 6.94772 10.5 7.5C10.5 8.05228 10.0523 8.5 9.5 8.5C8.94772 8.5 8.5 8.05228 8.5 7.5ZM4.5 12.5C4.5 11.9477 4.94772 11.5 5.5 11.5C6.05228 11.5 6.5 11.9477 6.5 12.5C6.5 13.0523 6.05228 13.5 5.5 13.5C4.94772 13.5 4.5 13.0523 4.5 12.5ZM8.5 12.5C8.5 11.9477 8.94772 11.5 9.5 11.5C10.0523 11.5 10.5 11.9477 10.5 12.5C10.5 13.0523 10.0523 13.5 9.5 13.5C8.94772 13.5 8.5 13.0523 8.5 12.5Z" fill="black"/>
</svg>
