<svg width="15" height="15" viewBox="0 0 15 15" fill="none" xmlns="http://www.w3.org/2000/svg">
<path d="M5 8.73238V6.26756L7.5 4.6009L10 6.26756V8.73238L7.5 10.399L5 8.73238Z" fill="black"/>
<path fill-rule="evenodd" clip-rule="evenodd" d="M3.05279 1.27639C3.13748 1.107 3.31061 1 3.5 1H11.5C11.6894 1 11.8625 1.107 11.9472 1.27639L14.9472 7.27639C15.0176 7.41716 15.0176 7.58284 14.9472 7.72361L11.9472 13.7236C11.8625 13.893 11.6894 14 11.5 14H3.5C3.31061 14 3.13748 13.893 3.05279 13.7236L0.0527864 7.72361C-0.0175955 7.58284 -0.0175955 7.41716 0.0527864 7.27639L3.05279 1.27639ZM11 5.73238L7.5 3.39905L4 5.73238V9.26756L7.5 11.6009L11 9.26756V5.73238Z" fill="black"/>
</svg>
