<svg width="15" height="15" viewBox="0 0 15 15" fill="none" xmlns="http://www.w3.org/2000/svg">
<path fill-rule="evenodd" clip-rule="evenodd" d="M2.49665 6.66549C3.56112 7.84824 5.18599 8.99997 7.5 8.99997C9.81401 8.99997 11.4389 7.84824 12.5034 6.66549C13.0359 6.07372 13.4219 5.48026 13.6744 5.03471C13.8003 4.81243 13.8923 4.62835 13.952 4.5016C13.9819 4.43827 14.0037 4.38937 14.0176 4.35732C14.0245 4.34129 14.0295 4.32949 14.0325 4.32222L14.0356 4.31473L14.0359 4.31394C14.0358 4.3141 14.0358 4.31427 14.5 4.49997C14.9642 4.68567 14.9642 4.68588 14.9641 4.68611L14.9638 4.68668L14.9633 4.68815L14.9615 4.69245L14.9557 4.70641C14.9509 4.71805 14.944 4.73433 14.9351 4.75493C14.9173 4.79612 14.8912 4.85464 14.8566 4.92802C14.7874 5.07471 14.6841 5.28126 14.5444 5.52773C14.2656 6.01968 13.8391 6.67622 13.2467 7.33445C13.0638 7.53765 12.8645 7.74158 12.6483 7.94119L14.3536 9.64642L13.6465 10.3535L11.8716 8.57869C10.8638 9.30894 9.58254 9.88305 8 9.98414L8.00001 12L7.00001 12L7 9.98414C5.41747 9.88305 4.13622 9.30894 3.12839 8.5787L1.35356 10.3535L0.646458 9.64642L2.35167 7.9412C2.13553 7.74159 1.93624 7.53765 1.75336 7.33445C1.16095 6.67622 0.734393 6.01968 0.455623 5.52773C0.315956 5.28125 0.212603 5.07471 0.143451 4.92802C0.108856 4.85464 0.0827632 4.79611 0.0649147 4.75492C0.0559888 4.73433 0.0491194 4.71805 0.0442744 4.70641L0.0385192 4.69245L0.0367715 4.68815L0.0361787 4.68668L0.0359524 4.68611C0.0358587 4.68588 0.0357727 4.68566 0.500012 4.49997C0.96425 4.31428 0.96418 4.3141 0.964117 4.31394L0.964028 4.31372L0.964441 4.31474L0.967528 4.32222C0.970557 4.3295 0.975528 4.3413 0.982471 4.35732C0.996361 4.38937 1.01812 4.43827 1.04798 4.50161C1.10773 4.62835 1.19969 4.81244 1.32565 5.03471C1.57812 5.48026 1.96407 6.07372 2.49665 6.66549ZM0.963985 4.31361C0.963969 4.31357 0.963983 4.31361 0.964028 4.31372L0.963985 4.31361Z" fill="black"/>
</svg>
