<svg width="15" height="15" viewBox="0 0 15 15" fill="none" xmlns="http://www.w3.org/2000/svg">
<path fill-rule="evenodd" clip-rule="evenodd" d="M7.49995 7.68603H7.49993L7.49993 9C6.67154 8.99996 6 8.3284 6 7.5C6 6.67159 6.67154 6.00003 7.49995 6V7.68603ZM7.49995 5C6.11926 5.00003 5 6.11931 5 7.5C5 8.88069 6.11925 9.99996 7.49993 10L7.49993 13C4.81395 13 2.93881 11.6517 1.75329 10.3345C1.16088 9.67625 0.734329 9.01971 0.455559 8.52776C0.315892 8.28128 0.21254 8.07474 0.143387 7.92805C0.108792 7.85467 0.0826995 7.79614 0.064851 7.75495C0.0559252 7.73436 0.0490557 7.71808 0.0442107 7.70644L0.0384555 7.69248L0.0367078 7.68818L0.0358887 7.68614L0.500631 7.50025L0.499996 7.5L0.0357612 7.68569C-0.0119204 7.56649 -0.0119204 7.43351 0.0357612 7.31431L0.101861 7.34075C0.0605415 7.324 0.0359337 7.31379 0.036134 7.31329L0.0367268 7.31182L0.0384745 7.30752L0.0442297 7.29356C0.0490747 7.28192 0.0559442 7.26564 0.06487 7.24505C0.0827185 7.20386 0.108811 7.14533 0.143406 7.07195C0.212559 6.92526 0.315911 6.71872 0.455578 6.47224C0.734348 5.98029 1.1609 5.32375 1.75331 4.66552C2.93883 3.34827 4.81397 2 7.49995 2V5ZM7.5 6V7.31397V7.67775V9C8.32843 9 9 8.32843 9 7.5C9 6.67157 8.32843 6 7.5 6ZM7.5 10C8.88071 10 10 8.88071 10 7.5C10 6.11929 8.88071 5 7.5 5V2C10.186 2 12.0611 3.34827 13.2466 4.66552C13.8391 5.32375 14.2656 5.98029 14.5444 6.47224C14.6841 6.71871 14.7874 6.92526 14.8566 7.07195C14.8912 7.14533 14.9172 7.20385 14.9351 7.24504C14.944 7.26564 14.9509 7.28192 14.9557 7.29356L14.9615 7.30752L14.9632 7.31182L14.9641 7.31385L14.6002 7.45992L14.9642 7.3143C15.0119 7.43351 15.0119 7.56649 14.9642 7.6857L14.5002 7.50007L14.4997 7.50026L14.9638 7.68671L14.9632 7.68818L14.9615 7.69248L14.9557 7.70644C14.9509 7.71808 14.944 7.73436 14.9351 7.75496C14.9172 7.79615 14.8912 7.85467 14.8566 7.92805C14.7874 8.07474 14.6841 8.28129 14.5444 8.52776C14.2656 9.01971 13.8391 9.67625 13.2466 10.3345C12.0611 11.6517 10.186 13 7.5 13V10Z" fill="black"/>
</svg>
