<svg width="15" height="15" viewBox="0 0 15 15" fill="none" xmlns="http://www.w3.org/2000/svg">
<path d="M3.99976 9.5C3.39267 9.04388 3 8.3178 3 7.5C3 6.6822 3.39267 5.95611 3.99976 5.5C3.39267 5.04388 3 4.3178 3 3.5C3 2.11929 4.11929 1 5.5 1H9.5C10.8807 1 12 2.11929 12 3.5C12 4.3178 11.6073 5.04388 11.0002 5.5C11.6073 5.95611 12 6.6822 12 7.5C12 8.88071 10.8807 10 9.5 10C8.9372 10 8.41783 9.81403 8 9.50018V11.5C8 12.8807 6.88071 14 5.5 14C4.11929 14 3 12.8807 3 11.5C3 10.6822 3.39267 9.95611 3.99976 9.5Z" fill="black"/>
</svg>
