<svg width="15" height="15" viewBox="0 0 15 15" fill="none" xmlns="http://www.w3.org/2000/svg">
<path d="M7.5 5C6.11929 5 5 6.11929 5 7.5C5 8.00954 5.15244 8.48349 5.4142 8.8787L8.8787 5.4142C8.48349 5.15244 8.00954 5 7.5 5Z" fill="black"/>
<path d="M7.5 10C6.99046 10 6.51653 9.84756 6.12131 9.58581L9.58581 6.12131C9.84756 6.51653 10 6.99046 10 7.5C10 8.88071 8.88071 10 7.5 10Z" fill="black"/>
<path fill-rule="evenodd" clip-rule="evenodd" d="M1 1.5C1 0.671573 1.67157 0 2.5 0H10.7071L14 3.29289V13.5C14 14.3284 13.3284 15 12.5 15H2.5C1.67157 15 1 14.3284 1 13.5V1.5ZM4 7.5C4 5.567 5.567 4 7.5 4C9.433 4 11 5.567 11 7.5C11 9.433 9.433 11 7.5 11C5.567 11 4 9.433 4 7.5Z" fill="black"/>
</svg>
