<svg width="15" height="15" viewBox="0 0 15 15" fill="none" xmlns="http://www.w3.org/2000/svg">
<path d="M3.32981 0.0298784C3.51223 -0.0361671 3.71639 0.00927578 3.85358 0.146461L5.93224 2.22513C5.92035 2.24325 5.9095 2.26236 5.89981 2.28241L2.17523 9.98843L3.32981 0.0298784Z" fill="black"/>
<path d="M2.26182 11.9402L7.24276 14.9288C7.37675 15.0092 7.54062 15.0223 7.6857 14.9642L12.6857 12.9642C12.8944 12.8808 13.0218 12.6682 12.9969 12.4448L11.9969 3.44479C11.9763 3.25903 11.8538 3.10028 11.6793 3.03326C11.5048 2.96624 11.3075 3.00213 11.1678 3.1263L9.51277 4.59747L2.26182 11.9402Z" fill="black"/>
<path d="M8.9383 3.75601L7.91606 2.22265C7.81934 2.07757 7.65403 1.99336 7.47981 2.00041C7.30559 2.00746 7.14763 2.10476 7.06295 2.25718L6.75317 2.8148L3.76728 8.99249L8.9383 3.75601Z" fill="black"/>
</svg>
