<svg width="15" height="15" viewBox="0 0 15 15" fill="none" xmlns="http://www.w3.org/2000/svg">
<path fill-rule="evenodd" clip-rule="evenodd" d="M0 7.5C0 3.35786 3.35786 0 7.5 0C11.6421 0 15 3.35786 15 7.5C15 11.6421 11.6421 15 7.5 15C3.35786 15 0 11.6421 0 7.5ZM4.24904 5.06754C4.40319 4.97808 4.59332 4.97745 4.74807 5.06588L8 6.92412V5.5C8 5.32176 8.09488 5.15701 8.24904 5.06754C8.40319 4.97808 8.59332 4.97745 8.74807 5.06588L12.2481 7.06588C12.4039 7.1549 12.5 7.32057 12.5 7.5C12.5 7.67943 12.4039 7.8451 12.2481 7.93412L8.74807 9.93412C8.59332 10.0226 8.40319 10.0219 8.24904 9.93246C8.09488 9.84299 8 9.67824 8 9.5V8.07588L4.74807 9.93412C4.59332 10.0226 4.40319 10.0219 4.24904 9.93246C4.09488 9.84299 4 9.67824 4 9.5V5.5C4 5.32176 4.09488 5.15701 4.24904 5.06754Z" fill="black"/>
</svg>
