<svg width="15" height="16" viewBox="0 0 15 16" fill="none" xmlns="http://www.w3.org/2000/svg">
<path d="M7.20938 0.152215C7.38323 0.0280376 7.61677 0.0280376 7.79062 0.152215L14.7906 5.15222C14.922 5.24607 15 5.39761 15 5.55908V14.5591C15 14.8352 14.7761 15.0591 14.5 15.0591H13V7.05908H2V15.0591H0.5C0.223858 15.0591 0 14.8352 0 14.5591V5.55908C0 5.39761 0.0779828 5.24607 0.209381 5.15222L7.20938 0.152215Z" fill="black"/>
<path fill-rule="evenodd" clip-rule="evenodd" d="M3 15.0591H12V11.0591H3V15.0591ZM9 13.0591H6V12.0591H9V13.0591Z" fill="black"/>
<path d="M12 10.0591V8.05908H3V10.0591H12Z" fill="black"/>
</svg>
