<svg width="15" height="15" viewBox="0 0 15 15" fill="none" xmlns="http://www.w3.org/2000/svg">
<path d="M7.20938 0.0931333C7.38323 -0.0310444 7.61677 -0.0310444 7.79062 0.0931333L14.7906 5.09313C14.922 5.18699 15 5.33852 15 5.5V14.5C15 14.7761 14.7761 15 14.5 15H13V7H2V15H0.5C0.223858 15 0 14.7761 0 14.5V5.5C0 5.33852 0.0779828 5.18699 0.209381 5.09313L7.20938 0.0931333Z" fill="black"/>
<path fill-rule="evenodd" clip-rule="evenodd" d="M3 15H12V11H3V15ZM9 13H6V12H9V13Z" fill="black"/>
<path d="M12 10V8H3V10H12Z" fill="black"/>
</svg>
