<svg width="15" height="15" viewBox="0 0 15 15" fill="none" xmlns="http://www.w3.org/2000/svg">
<path d="M5 6V3H10V5.5C10 5.77614 9.77614 6 9.5 6H5Z" fill="black"/>
<path fill-rule="evenodd" clip-rule="evenodd" d="M2 1.5C2 0.671573 2.67157 0 3.5 0H11.5C12.3284 0 13 0.671573 13 1.5V11.5C13 13.433 11.433 15 9.5 15H3.5C2.67157 15 2 14.3284 2 13.5V1.5ZM4.5 2C4.22386 2 4 2.22386 4 2.5V6.5C4 6.77614 4.22386 7 4.5 7H9.5C10.3284 7 11 6.32843 11 5.5V2.5C11 2.22386 10.7761 2 10.5 2H4.5ZM5 8V9H4V10H5V11H6V10H7V9H6V8H5ZM10 8V9H11V8H10ZM9 11V10H10V11H9Z" fill="black"/>
</svg>
