<svg width="15" height="15" viewBox="0 0 15 15" fill="none" xmlns="http://www.w3.org/2000/svg">
<path d="M2.5 0C1.11929 0 0 1.11929 0 2.5C0 3.70948 0.85888 4.71836 2 4.94999V10.05C0.85888 10.2816 0 11.2905 0 12.5C0 13.8807 1.11929 15 2.5 15C3.70948 15 4.71836 14.1411 4.94999 13H9.5C11.433 13 13 11.433 13 9.5V7.94999C14.1411 7.71836 15 6.70948 15 5.5C15 4.11929 13.8807 3 12.5 3C11.1193 3 10 4.11929 10 5.5C10 6.70948 10.8589 7.71836 12 7.94999V9.5C12 10.8807 10.8807 12 9.5 12H4.94999C4.75115 11.0204 3.97957 10.2488 3 10.05V4.94999C4.14112 4.71836 5 3.70948 5 2.5C5 1.11929 3.88071 0 2.5 0Z" fill="black"/>
</svg>
