<svg width="15" height="15" viewBox="0 0 15 15" fill="none" xmlns="http://www.w3.org/2000/svg">
<path d="M2.5 0C1.11929 0 0 1.11929 0 2.5C0 3.70948 0.85888 4.71836 2 4.94999V10.05C0.85888 10.2816 0 11.2905 0 12.5C0 13.8807 1.11929 15 2.5 15C3.88071 15 5 13.8807 5 12.5C5 11.2905 4.14112 10.2816 3 10.05V4.94999C4.14112 4.71836 5 3.70948 5 2.5C5 1.11929 3.88071 0 2.5 0Z" fill="black"/>
<path d="M8.85355 0.853554L8.14645 0.146446L5.79289 2.5L8.14645 4.85355L8.85355 4.14645L7.70711 3H9.5C10.8807 3 12 4.11929 12 5.5V7.05001C10.8589 7.28164 10 8.29052 10 9.5C10 10.8807 11.1193 12 12.5 12C13.8807 12 15 10.8807 15 9.5C15 8.29052 14.1411 7.28164 13 7.05001V5.5C13 3.567 11.433 2 9.5 2H7.70711L8.85355 0.853554Z" fill="black"/>
</svg>
