<svg width="15" height="15" viewBox="0 0 15 15" fill="none" xmlns="http://www.w3.org/2000/svg">
<path d="M2.5 0C1.11929 0 0 1.11929 0 2.5C0 3.70948 0.85888 4.71836 2 4.94999V10.05C0.85888 10.2816 0 11.2905 0 12.5C0 13.8807 1.11929 15 2.5 15C3.88071 15 5 13.8807 5 12.5C5 11.2905 4.14112 10.2816 3 10.05V9H9.5C11.433 9 13 7.433 13 5.5V4.94999C14.1411 4.71836 15 3.70948 15 2.5C15 1.11929 13.8807 0 12.5 0C11.1193 0 10 1.11929 10 2.5C10 3.70948 10.8589 4.71836 12 4.94999V5.5C12 6.88071 10.8807 8 9.5 8H3V4.94999C4.14112 4.71836 5 3.70948 5 2.5C5 1.11929 3.88071 0 2.5 0Z" fill="black"/>
</svg>
