<svg width="15" height="15" viewBox="0 0 15 15" fill="none" xmlns="http://www.w3.org/2000/svg">
<path d="M14 5.49999C14 3.55855 13.1482 1.81543 11.7996 0.625122L11.1378 1.37486C12.2805 2.38339 13 3.85736 13 5.49999C13 8.53756 10.5375 11 7.49996 11C6.09099 11 4.8068 10.4708 3.83342 9.59964L3.1665 10.3448C4.19995 11.2697 5.53216 11.8693 6.99996 11.981V14H3.99996V15H11V14H7.99996V11.981C11.3562 11.7257 14 8.92161 14 5.49999Z" fill="black"/>
<path d="M7.49996 1.99999C5.56696 1.99999 3.99996 3.56699 3.99996 5.49999C3.99996 7.43299 5.56696 8.99999 7.49996 8.99999C9.43296 8.99999 11 7.43299 11 5.49999C11 3.56699 9.43296 1.99999 7.49996 1.99999Z" fill="black"/>
</svg>
