<svg width="15" height="16" viewBox="0 0 15 16" fill="none" xmlns="http://www.w3.org/2000/svg">
<path d="M5 2.55908C5 1.17837 6.11929 0.059082 7.5 0.059082C8.88071 0.059082 10 1.17837 10 2.55908C10 3.93979 8.88071 5.05908 7.5 5.05908C6.11929 5.05908 5 3.93979 5 2.55908Z" fill="black"/>
<path d="M7.5 6.05908C5.567 6.05908 4 7.62609 4 9.55908V11.5591C4 11.8352 4.22386 12.0591 4.5 12.0591H10.5C10.7761 12.0591 11 11.8352 11 11.5591V9.55908C11 7.62609 9.433 6.05908 7.5 6.05908Z" fill="black"/>
<path d="M1.39448 10.7542C1.1108 11.0459 1 11.317 1 11.559C1 11.8041 1.1138 12.0795 1.40597 12.3755C1.70026 12.6737 2.15089 12.9652 2.74721 13.2208C3.93808 13.7311 5.6181 14.059 7.5 14.059C9.3819 14.059 11.0619 13.7311 12.2528 13.2208C12.8491 12.9652 13.2997 12.6737 13.594 12.3755C13.8862 12.0795 14 11.8041 14 11.559C14 11.317 13.8892 11.0459 13.6055 10.7542C13.3196 10.4602 12.8812 10.1719 12.2996 9.91755L12.7004 9.00134C13.356 9.28809 13.9176 9.64084 14.3224 10.057C14.7294 10.4755 15 10.9836 15 11.559C15 12.1423 14.722 12.6562 14.3058 13.078C13.8916 13.4976 13.3171 13.8526 12.6467 14.1399C11.3041 14.7153 9.48409 15.059 7.5 15.059C5.51591 15.059 3.69593 14.7153 2.35329 14.1399C1.68286 13.8526 1.10837 13.4976 0.694221 13.078C0.277951 12.6562 0 12.1423 0 11.559C0 10.9836 0.270611 10.4755 0.677626 10.057C1.08238 9.64084 1.644 9.28809 2.29965 9.00134L2.70035 9.91755C2.11881 10.1719 1.68043 10.4602 1.39448 10.7542Z" fill="black"/>
</svg>
