<svg width="15" height="15" viewBox="0 0 15 15" fill="none" xmlns="http://www.w3.org/2000/svg">
<path d="M1.25097 0.0664289C1.40622 -0.0227402 1.59729 -0.0220988 1.75194 0.0681106L9.59402 4.64266L7.16668 6.82726L1 1.27725V0.5C1 0.320967 1.09572 0.155598 1.25097 0.0664289Z" fill="black"/>
<path d="M1 2.62262V12.3773L6.41925 7.49994L1 2.62262Z" fill="black"/>
<path d="M1 13.7226V14.5C1 14.679 1.09572 14.8444 1.25097 14.9336C1.40622 15.0227 1.59729 15.0221 1.75194 14.9319L9.59409 10.3573L7.16668 8.17262L1 13.7226Z" fill="black"/>
<path d="M10.5011 9.82822L13.7519 7.93189C13.9055 7.84228 14 7.67783 14 7.5C14 7.32217 13.9055 7.15772 13.7519 7.06811L10.501 5.17173L7.9141 7.49994L10.5011 9.82822Z" fill="black"/>
</svg>
