<svg width="15" height="15" viewBox="0 0 15 15" fill="none" xmlns="http://www.w3.org/2000/svg">
<path fill-rule="evenodd" clip-rule="evenodd" d="M6.01494 1.28747C6.11816 0.559696 6.74372 0 7.5 0C8.25628 0 8.88184 0.559696 8.98506 1.28747L12.5303 3.35554C12.7918 3.13376 13.1303 3 13.5 3C14.3284 3 15 3.67157 15 4.5C15 5.15311 14.5826 5.70873 14 5.91465V9.08535C14.5826 9.29127 15 9.84689 15 10.5C15 11.3284 14.3284 12 13.5 12C13.1303 12 12.7918 11.8663 12.5304 11.6445L8.98505 13.7126C8.88179 14.4404 8.25625 15 7.5 15C6.74375 15 6.11821 14.4404 6.01495 13.7126L2.46963 11.6445C2.20816 11.8663 1.8697 12 1.5 12C0.671573 12 0 11.3284 0 10.5C0 9.84689 0.417404 9.29127 1 9.08535V5.91465C0.417404 5.70873 0 5.15311 0 4.5C0 3.67157 0.671573 3 1.5 3C1.86972 3 2.20821 3.13376 2.46969 3.35554L6.01494 1.28747ZM6.23985 2.31398L2.97376 4.2192C2.99099 4.31016 3 4.40403 3 4.5C3 5.15311 2.5826 5.70873 2 5.91465V8.84861L6.29946 2.39942C6.27863 2.37167 6.25875 2.34318 6.23985 2.31398ZM7.13135 2.95436L2.70054 9.60058C2.79088 9.72097 2.86354 9.8554 2.91465 10H12.0854C12.1365 9.8554 12.2091 9.72097 12.2995 9.60058L7.86865 2.95436C7.75071 2.98417 7.6272 3 7.5 3C7.3728 3 7.24929 2.98417 7.13135 2.95436ZM8.70054 2.39942L13 8.84861V5.91465C12.4174 5.70873 12 5.15311 12 4.5C12 4.40403 12.009 4.31016 12.0262 4.2192L8.76015 2.31398C8.74125 2.34318 8.72137 2.37167 8.70054 2.39942ZM11.6506 11H3.34939L6.23981 12.6861C6.50702 12.2732 6.9716 12 7.5 12C8.0284 12 8.49298 12.2732 8.76019 12.6861L11.6506 11ZM7.5 1C7.22386 1 7 1.22386 7 1.5C7 1.77614 7.22386 2 7.5 2C7.77614 2 8 1.77614 8 1.5C8 1.22386 7.77614 1 7.5 1ZM1.5 4C1.22386 4 1 4.22386 1 4.5C1 4.77614 1.22386 5 1.5 5C1.77614 5 2 4.77614 2 4.5C2 4.22386 1.77614 4 1.5 4ZM13.5 4C13.2239 4 13 4.22386 13 4.5C13 4.77614 13.2239 5 13.5 5C13.7761 5 14 4.77614 14 4.5C14 4.22386 13.7761 4 13.5 4ZM1.5 10C1.22386 10 1 10.2239 1 10.5C1 10.7761 1.22386 11 1.5 11C1.77614 11 2 10.7761 2 10.5C2 10.2239 1.77614 10 1.5 10ZM13.5 10C13.2239 10 13 10.2239 13 10.5C13 10.7761 13.2239 11 13.5 11C13.7761 11 14 10.7761 14 10.5C14 10.2239 13.7761 10 13.5 10ZM7.5 13C7.22386 13 7 13.2239 7 13.5C7 13.7761 7.22386 14 7.5 14C7.77614 14 8 13.7761 8 13.5C8 13.2239 7.77614 13 7.5 13Z" fill="black"/>
</svg>
