<svg width="15" height="15" viewBox="0 0 15 15" fill="none" xmlns="http://www.w3.org/2000/svg">
<path d="M2 6.5C2 3.46243 4.46243 1 7.5 1C10.5376 1 13 3.46243 13 6.5V9H12.5C11.6716 9 11 9.67157 11 10.5V13.5C11 14.3284 11.6716 15 12.5 15H13.5C14.3284 15 15 14.3284 15 13.5V10.5C15 9.84689 14.5826 9.29127 14 9.08535V6.5C14 2.91015 11.0899 0 7.5 0C3.91015 0 1 2.91015 1 6.5V9.08535C0.417404 9.29127 0 9.84689 0 10.5V13.5C0 14.3284 0.671573 15 1.5 15H2.5C3.32843 15 4 14.3284 4 13.5V10.5C4 9.67157 3.32843 9 2.5 9H2V6.5Z" fill="black"/>
</svg>
