<svg width="15" height="15" viewBox="0 0 15 15" fill="none" xmlns="http://www.w3.org/2000/svg">
<path fill-rule="evenodd" clip-rule="evenodd" d="M0 7.5C0 3.35786 3.35786 0 7.5 0C11.6421 0 15 3.35786 15 7.5C15 11.6421 11.6421 15 7.5 15C3.35786 15 0 11.6421 0 7.5ZM4.14635 5.14648C4.8939 4.39893 6.10591 4.39893 6.85346 5.14648L7.49991 5.79292L8.14635 5.14648C8.8939 4.39893 10.1059 4.39893 10.8535 5.14648C11.601 5.89402 11.601 7.10603 10.8535 7.85358L7.49991 11.2071L4.14635 7.85358C3.39881 7.10604 3.39881 5.89402 4.14635 5.14648Z" fill="black"/>
</svg>
