<svg width="15" height="15" viewBox="0 0 15 15" fill="none" xmlns="http://www.w3.org/2000/svg">
<path fill-rule="evenodd" clip-rule="evenodd" d="M0 7.5C0 3.35786 3.35786 0 7.5 0C11.6421 0 15 3.35786 15 7.5C15 11.6421 11.6421 15 7.5 15C7.32013 15 7.14166 14.9937 6.9648 14.9812L7.01757 13.9827L7.50862 14C11.0945 13.9953 14 11.087 14 7.5C14 3.91015 11.0899 1 7.5 1C3.91015 1 1 3.91015 1 7.5C1 9.27124 1.7078 10.8762 2.85712 12.049L2.86375 12.0558L3 12.2058V10H4V14H0V13H2.37043L2.13613 12.742C0.815047 11.3904 0 9.5399 0 7.5ZM7 7.5V3H8V7.29289L10.8536 10.1464L10.1464 10.8536L7.14645 7.85355C7.05268 7.75979 7 7.63261 7 7.5Z" fill="black"/>
</svg>
