<svg width="15" height="15" viewBox="0 0 15 15" fill="none" xmlns="http://www.w3.org/2000/svg">
<path fill-rule="evenodd" clip-rule="evenodd" d="M12.0001 1H14V0H1V1H3V4.67157C3 5.33461 3.26339 5.9705 3.73223 6.43934L4.43934 7.14645C4.6346 7.34171 4.6346 7.65829 4.43934 7.85355L3.43934 8.85355C3.15803 9.13486 3 9.51639 3 9.91421V14H1V15H14V14H12.0001V9.91421C12.0001 9.51639 11.8421 9.13486 11.5608 8.85355L10.5608 7.85355C10.3655 7.65829 10.3655 7.34171 10.5608 7.14645L11.5608 6.14645C11.8421 5.86514 12.0001 5.48361 12.0001 5.08579V1ZM4.24951 5.5H10.793L10.8536 5.43934C10.9474 5.34557 11.0001 5.21839 11.0001 5.08579V1H4V4.67157C4 4.96841 4.08798 5.25617 4.24951 5.5Z" fill="black"/>
</svg>
