<svg width="15" height="16" viewBox="0 0 15 16" fill="none" xmlns="http://www.w3.org/2000/svg">
<path fill-rule="evenodd" clip-rule="evenodd" d="M7.79062 0.152215C7.61677 0.0280376 7.38323 0.0280376 7.20938 0.152215L0.209381 5.15222C0.0779828 5.24607 0 5.39761 0 5.55908V14.5591C0 14.8352 0.223858 15.0591 0.5 15.0591H2V8.05908H7V15.0591H14.5C14.7761 15.0591 15 14.8352 15 14.5591V5.55908C15 5.39761 14.922 5.24607 14.7906 5.15222L14 4.58749V2.05908H13V3.8732L7.79062 0.152215ZM11 12.0591V8.05908H12V12.0591H11Z" fill="black"/>
<path d="M6 15.0591V12.0591H5V11.0591H6V9.05908H3V15.0591H6Z" fill="black"/>
</svg>
