<svg width="15" height="15" viewBox="0 0 15 15" fill="none" xmlns="http://www.w3.org/2000/svg">
<path fill-rule="evenodd" clip-rule="evenodd" d="M0.13206 0.161445C0.226738 0.0585498 0.360176 0 0.500002 0H14.5C14.6398 0 14.7733 0.0585498 14.8679 0.161445C14.9626 0.264341 15.0099 0.40218 14.9983 0.541523L13.9983 12.5415C13.9817 12.7408 13.8479 12.9111 13.6581 12.9743L7.65812 14.9743C7.55548 15.0086 7.44452 15.0086 7.34189 14.9743L1.34189 12.9743C1.15214 12.9111 1.01834 12.7408 1.00173 12.5415L0.00172873 0.541523C-0.00988318 0.40218 0.0373829 0.264341 0.13206 0.161445ZM11 3H4V7H10V9.13962L7.5 9.97295L5 9.13962V8H4V9.86038L7.5 11.027L11 9.86038V6H5V4H11V3Z" fill="black"/>
</svg>
