<svg width="15" height="15" viewBox="0 0 15 15" fill="none" xmlns="http://www.w3.org/2000/svg">
<path fill-rule="evenodd" clip-rule="evenodd" d="M0 3.5C0 2.67157 0.671573 2 1.5 2H13.5C14.3284 2 15 2.67157 15 3.5V11.5C15 12.3284 14.3284 13 13.5 13H1.5C0.671574 13 0 12.3284 0 11.5V3.5ZM3 6C3 4.89543 3.89543 4 5 4C6.10457 4 7 4.89543 7 6C7 7.10457 6.10457 8 5 8C3.89543 8 3 7.10457 3 6ZM12 6H9V5H12V6ZM12 9H9V8H12V9ZM5 9C3.89132 9 2.87779 9.6264 2.38197 10.618L2.05279 11.2764C1.97529 11.4314 1.98357 11.6155 2.07468 11.7629C2.16578 11.9103 2.32671 12 2.5 12H7.5C7.67329 12 7.83422 11.9103 7.92533 11.7629C8.01643 11.6155 8.02471 11.4314 7.94721 11.2764L7.61803 10.618C7.12222 9.6264 6.10869 9 5 9Z" fill="black"/>
</svg>
