<svg width="15" height="15" viewBox="0 0 15 15" fill="none" xmlns="http://www.w3.org/2000/svg">
<path d="M0 1H7V0H0V1Z" fill="black"/>
<path d="M8 1H15V0H8V1Z" fill="black"/>
<path d="M0.5 3C0.223858 3 0 3.22386 0 3.5V14.5C0 14.7761 0.223858 15 0.5 15H6.5C6.77614 15 7 14.7761 7 14.5V3.5C7 3.22386 6.77614 3 6.5 3H0.5Z" fill="black"/>
<path d="M8.5 3C8.22386 3 8 3.22386 8 3.5V9.5C8 9.77614 8.22386 10 8.5 10H14.5C14.7761 10 15 9.77614 15 9.5V3.5C15 3.22386 14.7761 3 14.5 3H8.5Z" fill="black"/>
</svg>
