<svg width="15" height="15" viewBox="0 0 15 15" fill="none" xmlns="http://www.w3.org/2000/svg">
<path fill-rule="evenodd" clip-rule="evenodd" d="M7 4C7 1.79086 8.79086 0 11 0C13.2091 0 15 1.79086 15 4C15 6.20914 13.2091 8 11 8C10.0756 8 9.22452 7.68646 8.54718 7.15993L5.20711 10.5L6.85355 12.1464L6.14645 12.8536L4.5 11.2071L3.20711 12.5L4.85355 14.1464L4.14645 14.8536L2.5 13.2071L0.853553 14.8536L0.146447 14.1464L7.84007 6.45282C7.31354 5.77548 7 4.92436 7 4ZM11 1C9.34315 1 8 2.34315 8 4C8 5.65685 9.34315 7 11 7C12.6569 7 14 5.65685 14 4C14 2.34315 12.6569 1 11 1Z" fill="black"/>
</svg>
