<svg width="15" height="15" viewBox="0 0 15 15" fill="none" xmlns="http://www.w3.org/2000/svg">
<path fill-rule="evenodd" clip-rule="evenodd" d="M6.99998 4C6.99998 1.79086 8.79084 0 11 0C13.2091 0 15 1.79086 15 4C15 6.20914 13.2091 8 11 8C10.0756 8 9.2245 7.68646 8.54716 7.15993L5.20708 10.5L6.85353 12.1464L6.14642 12.8536L4.49998 11.2071L3.20708 12.5L4.85353 14.1464L4.14642 14.8536L2.49998 13.2071L0.85353 14.8536L0.146423 14.1464L7.84005 6.45282C7.31352 5.77548 6.99998 4.92436 6.99998 4ZM11 1C9.34312 1 7.99998 2.34315 7.99998 4C7.99998 5.65685 9.34312 7 11 7C12.6568 7 14 5.65685 14 4C14 2.34315 12.6568 1 11 1Z" fill="black"/>
</svg>
