<svg width="15" height="16" viewBox="0 0 15 16" fill="none" xmlns="http://www.w3.org/2000/svg">
<path d="M7 6.51477V5.01477H8V6.51477C8 6.79091 7.77614 7.01477 7.5 7.01477C7.22386 7.01477 7 6.79091 7 6.51477Z" fill="black"/>
<path fill-rule="evenodd" clip-rule="evenodd" d="M9 0.0147705H11V4.01477H12V7.6328L9.80902 12.0148H9V15.0148H8V12.0148H7V15.0148H6V12.0148H5.19098L3 7.6328V4.01477H4V0.0147705H6V3.01477H9V0.0147705ZM9 4.01477H6V6.51477C6 7.3432 6.67157 8.01477 7.5 8.01477C8.32843 8.01477 9 7.3432 9 6.51477V4.01477ZM6 9.01477V10.0148H9V9.01477H6Z" fill="black"/>
<path d="M8 0.0147705H7V2.01477H8V0.0147705Z" fill="black"/>
</svg>
