<svg width="15" height="15" viewBox="0 0 15 15" fill="none" xmlns="http://www.w3.org/2000/svg">
<path fill-rule="evenodd" clip-rule="evenodd" d="M4 1.5C4 0.671573 4.67157 0 5.5 0H9.5C10.3284 0 11 0.671573 11 1.5V2H11.5C12.8807 2 14 3.11929 14 4.5V12.5C14 13.8807 12.8807 15 11.5 15H3.5C2.11929 15 1 13.8807 1 12.5V4.5C1 3.11929 2.11929 2 3.5 2H4V1.5ZM5 7V8H6V7H5ZM9 7V8H10V7H9ZM4.9001 9.7C6.2001 11.4333 8.8001 11.4333 10.1001 9.7L10.9001 10.3C9.2001 12.5667 5.8001 12.5667 4.1001 10.3L4.9001 9.7Z" fill="black"/>
</svg>
