<svg width="15" height="15" viewBox="0 0 15 15" fill="none" xmlns="http://www.w3.org/2000/svg">
<path fill-rule="evenodd" clip-rule="evenodd" d="M1.4616e-05 2H2.00001V5H3.00001V6H1.4616e-05V5H1.00001V3H1.4616e-05V2ZM15 4H5.00001V3H15V4ZM15 8H5.00001V7H15V8ZM1.4616e-05 11.5C1.4616e-05 10.6716 0.671588 10 1.50001 10H1.79291C2.45957 10 3.00001 10.5404 3.00001 11.2071C3.00001 11.5273 2.87284 11.8343 2.64646 12.0607L1.70712 13H3.00001V14H0.500015C0.297783 14 0.115465 13.8782 0.0380748 13.6913C-0.0393157 13.5045 0.00346223 13.2894 0.146461 13.1464L1.93935 11.3536C1.97819 11.3147 2.00001 11.262 2.00001 11.2071C2.00001 11.0927 1.90729 11 1.79291 11H1.50001C1.22387 11 1.00001 11.2239 1.00001 11.5H1.4616e-05ZM15 12H5.00001V11H15V12Z" fill="black"/>
</svg>
