<svg width="15" height="15" viewBox="0 0 15 15" fill="none" xmlns="http://www.w3.org/2000/svg">
<path fill-rule="evenodd" clip-rule="evenodd" d="M13.2929 2.99998L11.1464 0.85353L11.8536 0.146423L14.8536 3.14642C15.0488 3.34169 15.0488 3.65827 14.8536 3.85353L11.8536 6.85353L11.1464 6.14642L13.2929 3.99998H3.5C2.11929 3.99998 1 5.11927 1 6.49998V7.99998H0V6.49998C0 4.56698 1.567 2.99998 3.5 2.99998H13.2929ZM15 6.99998V8.49998C15 10.433 13.433 12 11.5 12H1.70711L3.85355 14.1464L3.14644 14.8535L0.146447 11.8535C-0.0488153 11.6583 -0.0488153 11.3417 0.146447 11.1464L3.14645 8.14642L3.85355 8.85353L1.70711 11H11.5C12.8807 11 14 9.88069 14 8.49998V6.99998H15Z" fill="black"/>
</svg>
