<svg width="15" height="15" viewBox="0 0 15 15" fill="none" xmlns="http://www.w3.org/2000/svg">
<path fill-rule="evenodd" clip-rule="evenodd" d="M13.2929 3.00001L11.1464 0.853561L11.8536 0.146454L14.8536 3.14645C15.0488 3.34172 15.0488 3.6583 14.8536 3.85356L11.8536 6.85356L11.1464 6.14645L13.2929 4.00001H3.5C2.11929 4.00001 1 5.1193 1 6.50001V8.00001H0V6.50001C0 4.56701 1.567 3.00001 3.5 3.00001H13.2929ZM15 7.00001V8.50001C15 10.433 13.433 12 11.5 12H1.70711L3.85355 14.1465L3.14644 14.8536L0.146447 11.8536C-0.0488153 11.6583 -0.0488153 11.3417 0.146447 11.1465L3.14645 8.14645L3.85355 8.85356L1.70711 11H11.5C12.8807 11 14 9.88072 14 8.50001V7.00001H15Z" fill="black"/>
</svg>
