<svg width="15" height="15" viewBox="0 0 15 15" fill="none" xmlns="http://www.w3.org/2000/svg">
<path fill-rule="evenodd" clip-rule="evenodd" d="M0 1.5C0 0.671573 0.671573 0 1.5 0H13.5C14.3284 0 15 0.671573 15 1.5V13.5C15 14.3284 14.3284 15 13.5 15H1.5C0.671573 15 0 14.3284 0 13.5V1.5ZM4 5H3V4H4.5C4.6636 4 4.80885 4.07857 4.90006 4.20004L7.5001 7.66668L10.0934 4.20895C10.1841 4.08243 10.3324 4 10.5 4H12V5H11V10H12V11H9V10H10V6.00014L7.5001 9.33335L5 5.99988V10H6V11H3V10H4V5Z" fill="black"/>
</svg>
