<svg width="15" height="15" viewBox="0 0 15 15" fill="none" xmlns="http://www.w3.org/2000/svg">
<path fill-rule="evenodd" clip-rule="evenodd" d="M0 1.49933C0 0.670226 0.671178 0 1.5 0H13.5C14.3288 0 15 0.670226 15 1.49933V10.4935C15 11.3226 14.3288 11.9928 13.5 11.9928H7.66658L3.79988 14.8909C3.64835 15.0045 3.44568 15.0227 3.27632 14.938C3.10697 14.8533 3 14.6802 3 14.4908V11.9928H1.5C0.671178 11.9928 0 11.3226 0 10.4935V1.49933ZM4 3.99738H11V4.99738H4V3.99738ZM4 6.99542H9V7.99542H4V6.99542Z" fill="black"/>
</svg>
