<svg width="15" height="16" viewBox="0 0 15 16" fill="none" xmlns="http://www.w3.org/2000/svg">
<path d="M5 2.51477C5 1.13406 6.11929 0.0147705 7.5 0.0147705C8.88071 0.0147705 10 1.13406 10 2.51477V6.51477C10 7.89548 8.88071 9.01477 7.5 9.01477C6.11929 9.01477 5 7.89548 5 6.51477V2.51477Z" fill="black"/>
<path d="M2 4.01477V6.51477C2 9.38379 4.19675 11.7397 7 11.9923V14.0148H5V15.0148H10V14.0148H8V11.9923C10.8033 11.7397 13 9.38379 13 6.51477V4.01477H12V6.51477C12 9.00005 9.98528 11.0148 7.5 11.0148C5.01472 11.0148 3 9.00005 3 6.51477V4.01477H2Z" fill="black"/>
</svg>
