<svg width="15" height="15" viewBox="0 0 15 15" fill="none" xmlns="http://www.w3.org/2000/svg">
<path fill-rule="evenodd" clip-rule="evenodd" d="M13.8536 1.85353L10.7071 4.99998L13 4.99998V5.99998L9.00001 5.99998V1.99998H10V4.29287L13.1465 1.14642L13.8536 1.85353ZM4.2929 4.99998L1.14645 1.85353L1.85356 1.14642L5.00001 4.29287L5.00001 1.99998L6.00001 1.99998V5.99998L2.00001 5.99998L2.00001 4.99998L4.2929 4.99998ZM2.00001 8.99998L6.00001 8.99998L6.00001 13H5.00001L5.00001 10.7071L1.85356 13.8535L1.14645 13.1464L4.2929 9.99998L2.00001 9.99998L2.00001 8.99998ZM9 8.99998L13 8.99998V9.99998L10.7071 9.99998L13.8536 13.1464L13.1465 13.8535L10 10.7071L10 13L9 13L9 8.99998Z" fill="black"/>
</svg>
