<svg width="15" height="15" viewBox="0 0 15 15" fill="none" xmlns="http://www.w3.org/2000/svg">
<path d="M7.7066 0.00274765C7.50391 -0.0027381 7.31797 0.114737 7.23588 0.300147C7.15379 0.485558 7.19181 0.702186 7.33213 0.848565C8.36577 1.92686 9.00015 3.3888 9.00015 4.99996C9.00015 8.31366 6.31385 11 3.00015 11C2.5757 11 2.16207 10.956 1.76339 10.8725C1.56489 10.8309 1.36094 10.9133 1.2471 11.0812C1.13325 11.249 1.13207 11.469 1.2441 11.638C2.58602 13.663 4.88682 15 7.50012 15C11.6423 15 15.0001 11.6421 15.0001 7.49996C15.0001 3.42688 11.7534 0.112271 7.7066 0.00274765Z" fill="black"/>
</svg>
