<svg width="15" height="15" viewBox="0 0 15 15" fill="none" xmlns="http://www.w3.org/2000/svg">
<path fill-rule="evenodd" clip-rule="evenodd" d="M6.5 2.49998C6.5 1.9477 6.94772 1.49998 7.5 1.49998C8.05229 1.49998 8.5 1.9477 8.5 2.49998C8.5 3.05227 8.05229 3.49998 7.5 3.49998C6.94772 3.49998 6.5 3.05227 6.5 2.49998ZM6.5 7.49998C6.5 6.9477 6.94772 6.49998 7.5 6.49998C8.05228 6.49998 8.5 6.9477 8.5 7.49998C8.5 8.05227 8.05228 8.49998 7.5 8.49998C6.94772 8.49998 6.5 8.05227 6.5 7.49998ZM6.5 12.5C6.5 11.9477 6.94772 11.5 7.5 11.5C8.05228 11.5 8.5 11.9477 8.5 12.5C8.5 13.0523 8.05228 13.5 7.5 13.5C6.94772 13.5 6.5 13.0523 6.5 12.5Z" fill="black"/>
</svg>
