<svg width="15" height="15" viewBox="0 0 15 15" fill="none" xmlns="http://www.w3.org/2000/svg">
<path d="M7.5 8H7V7H7.5C7.77614 7 8 7.22386 8 7.5C8 7.77614 7.77614 8 7.5 8Z" fill="black"/>
<path fill-rule="evenodd" clip-rule="evenodd" d="M1 1.5C1 0.671573 1.67157 0 2.5 0H10.7071L14 3.29289V13.5C14 14.3284 13.3284 15 12.5 15H2.5C1.67157 15 1 14.3284 1 13.5V1.5ZM7.5 6H6V11H7V9H7.5C8.32843 9 9 8.32843 9 7.5C9 6.67157 8.32843 6 7.5 6ZM2.85355 6.14646C2.71055 6.00346 2.4955 5.96068 2.30866 6.03807C2.12182 6.11547 2 6.29778 2 6.50001V11H3V7.70712L3.5 8.20712L4 7.70712V11H5V6.50001C5 6.29778 4.87818 6.11547 4.69134 6.03807C4.5045 5.96068 4.28945 6.00346 4.14645 6.14646L3.5 6.79291L2.85355 6.14646ZM11.5 7H10V6H12.5C12.6894 6 12.8625 6.107 12.9472 6.27639C13.0319 6.44579 13.0136 6.64849 12.9 6.8L11.9488 8.06829C12.558 8.25905 13 8.82791 13 9.5C13 10.3284 12.3284 11 11.5 11H10V10H11.5C11.7761 10 12 9.77614 12 9.5C12 9.22386 11.7761 9 11.5 9H11C10.8106 9 10.6375 8.893 10.5528 8.72361C10.4681 8.55421 10.4864 8.35151 10.6 8.2L11.5 7Z" fill="black"/>
</svg>
