<svg width="15" height="15" viewBox="0 0 15 15" fill="none" xmlns="http://www.w3.org/2000/svg">
<path fill-rule="evenodd" clip-rule="evenodd" d="M5 5H2V10H3V9H5C6.10457 9 7 8.10457 7 7C7 5.89543 6.10457 5 5 5ZM5 8H3V6H5C5.55228 6 6 6.44772 6 7C6 7.55228 5.55228 8 5 8Z" fill="black"/>
<path fill-rule="evenodd" clip-rule="evenodd" d="M7.49983 0C5.0456 0 2.86687 1.17924 1.49932 3C0.671208 3.00037 0 3.6718 0 4.5V10.5C0 11.3282 0.671206 11.9996 1.49932 12C2.86687 13.8208 5.0456 15 7.49983 15C11.642 15 14.9998 11.6421 14.9998 7.5C14.9998 3.35786 11.642 0 7.49983 0ZM1 4.5C1 4.22386 1.22386 4 1.5 4H7.5C7.77165 4 7.99269 4.21663 7.99982 4.48655V10.5134C7.99269 10.7834 7.77165 11 7.5 11H1.5C1.22386 11 1 10.7761 1 10.5V4.5Z" fill="black"/>
</svg>
