<svg width="15" height="15" viewBox="0 0 15 15" fill="none" xmlns="http://www.w3.org/2000/svg">
<path fill-rule="evenodd" clip-rule="evenodd" d="M5.29289 1H9.70711L10.7071 2H11.5C13.433 2 15 3.567 15 5.5V10.3377C15 11.2558 14.2558 12 13.3377 12C12.6222 12 11.987 11.5422 11.7607 10.8634L11.1396 9H10.405C10.1481 9 9.93303 9.19465 9.90747 9.45025L9.64677 12.0572C9.53648 13.1601 8.60841 14 7.5 14C6.39159 14 5.46352 13.1601 5.35323 12.0572L5.09253 9.45025C5.06697 9.19465 4.85189 9 4.59501 9H3.86038L3.23925 10.8634C3.01299 11.5422 2.37777 12 1.66228 12C0.744227 12 0 11.2558 0 10.3377V5.5C0 3.567 1.567 2 3.5 2H4.29289L5.29289 1ZM4 7V6H3V5H4V4H5V5H6V6H5V7H4ZM9 6H10V5H9V6ZM12 6V7H11V6H12Z" fill="black"/>
</svg>
