<svg width="15" height="15" viewBox="0 0 15 15" fill="none" xmlns="http://www.w3.org/2000/svg">
<path d="M7.14647 0.146447C7.34173 -0.0488155 7.65831 -0.0488155 7.85358 0.146447L8.83364 1.12651L7.01343 4.06685L4.30817 2.98475L7.14647 0.146447Z" fill="black"/>
<path d="M3.53886 3.75406L2.4264 4.86652L4.71996 7.7717L6.47903 4.93012L3.53886 3.75406Z" fill="black"/>
<path d="M1.71441 5.5785L0.14647 7.14645C0.123165 7.16975 0.102642 7.19478 0.0848999 7.22113L3.60709 7.97589L1.71441 5.5785Z" fill="black"/>
<path d="M0.659983 8.36707L1.66657 9.37365L2.8424 8.83473L0.659983 8.36707Z" fill="black"/>
<path d="M2.42087 10.128L2.93997 10.6471L3.59424 9.59016L2.42087 10.128Z" fill="black"/>
<path d="M3.66639 11.3735L7.14647 14.8536C7.34173 15.0488 7.65831 15.0488 7.85358 14.8536L8.17747 14.5297L8.29571 13.9148L4.8192 9.51124L3.66639 11.3735Z" fill="black"/>
<path d="M9.43825 13.2689L11.9259 10.7812L9.99617 10.3677L9.43825 13.2689Z" fill="black"/>
<path d="M12.7682 9.93897L14.549 8.15812L10.7159 6.62489L10.1851 9.38545L12.7682 9.93897Z" fill="black"/>
<path d="M14.9209 7.22983C14.9019 7.20028 14.8794 7.1723 14.8536 7.14645L12.9906 5.28349L11.6226 5.91051L14.9209 7.22983Z" fill="black"/>
<path d="M12.2363 4.52918L11.2992 3.59205L11.011 5.0908L12.2363 4.52918Z" fill="black"/>
<path d="M10.4451 2.73797L9.56006 1.85293L7.95611 4.44392L9.96268 5.24655L10.4451 2.73797Z" fill="black"/>
<path d="M5.99832 8.48829L9.66221 6.80901L9.20704 9.17588L5.99832 8.48829Z" fill="black"/>
<path d="M6.11239 9.53544L9.01816 10.1581L8.54527 12.6171L6.11239 9.53544Z" fill="black"/>
<path d="M6.18694 7.30181L9.08619 5.97299L7.4217 5.3072L6.18694 7.30181Z" fill="black"/>
</svg>
