<svg width="15" height="15" viewBox="0 0 15 15" fill="none" xmlns="http://www.w3.org/2000/svg">
<path fill-rule="evenodd" clip-rule="evenodd" d="M1 6.5C1 2.91015 3.91015 0 7.5 0C11.0899 0 14 2.91015 14 6.5C14 9.20465 12.3484 11.5224 10 12.5017V14H15V15H9V12.1702C8.99982 12.1625 8.99982 12.1547 9 12.147V12H9.02579C9.07304 11.8591 9.18237 11.7405 9.33338 11.6872C11.4702 10.9319 13 8.89395 13 6.5C13 3.46243 10.5376 1 7.5 1C4.46243 1 2 3.46243 2 6.5C2 8.89395 3.52976 10.9319 5.66662 11.6872C5.81763 11.7405 5.92696 11.8591 5.97421 12H6V12.147C6.00018 12.1547 6.00018 12.1624 6 12.1702V15H0V14H5V12.5017C2.65164 11.5224 1 9.20465 1 6.5Z" fill="black"/>
</svg>
