<svg width="15" height="15" viewBox="0 0 15 15" fill="none" xmlns="http://www.w3.org/2000/svg">
<path fill-rule="evenodd" clip-rule="evenodd" d="M4.5 0C3.11929 0 2 1.11929 2 2.5V6.29284L1.5606 6.73224C0.58429 7.70855 0.584293 9.29146 1.5606 10.2678L4.73217 13.4393C5.70849 14.4157 7.2914 14.4157 8.26771 13.4393L12.4393 9.26777C13.4156 8.29146 13.4156 6.70855 12.4393 5.73224L9.26771 2.56066C8.6326 1.92555 7.74078 1.70359 6.92625 1.89479C6.65566 0.806497 5.67202 0 4.5 0ZM6 3.70705V7H7V2.91383C7.52765 2.72776 8.13858 2.84575 8.5606 3.26777L11.7322 6.43934C12.318 7.02513 12.318 7.97488 11.7322 8.56066L11.2928 9H1.91379C1.7277 8.47234 1.84567 7.86138 2.26771 7.43934L6 3.70705ZM5.991 2.33478C5.90876 1.58409 5.27259 1 4.5 1C3.67157 1 3 1.67157 3 2.5V5.29284L5.73218 2.56066C5.81439 2.47845 5.90091 2.40315 5.991 2.33478Z" fill="black"/>
<path d="M12.6445 9.73698L14.1788 11.2713C15.0933 12.1858 15.0099 13.6921 14 14.5C13.2075 15.134 12.0815 15.134 11.289 14.5C10.2791 13.6921 10.1957 12.1858 11.1102 11.2713L12.6445 9.73698Z" fill="black"/>
</svg>
