<svg width="15" height="16" viewBox="0 0 15 16" fill="none" xmlns="http://www.w3.org/2000/svg">
<path d="M5 0.059082C3.89543 0.059082 3 0.954513 3 2.05908V3.05908C3 4.16365 3.89543 5.05908 5 5.05908C6.10457 5.05908 7 4.16365 7 3.05908V2.05908C7 0.954513 6.10457 0.059082 5 0.059082Z" fill="black"/>
<path d="M10 0.059082C8.89543 0.059082 8 0.954513 8 2.05908V3.05908C8 4.16365 8.89543 5.05908 10 5.05908C11.1046 5.05908 12 4.16365 12 3.05908V2.05908C12 0.954513 11.1046 0.059082 10 0.059082Z" fill="black"/>
<path d="M2 5.05908C0.895431 5.05908 0 5.95451 0 7.05908V7.55908C0 8.66365 0.895431 9.55908 2 9.55908C3.10457 9.55908 4 8.66365 4 7.55908V7.05908C4 5.95451 3.10457 5.05908 2 5.05908Z" fill="black"/>
<path d="M13 5.05908C11.8954 5.05908 11 5.95451 11 7.05908V7.55908C11 8.66365 11.8954 9.55908 13 9.55908C14.1046 9.55908 15 8.66365 15 7.55908V7.05908C15 5.95451 14.1046 5.05908 13 5.05908Z" fill="black"/>
<path d="M9.61273 7.83801C8.51793 6.50862 6.48207 6.50861 5.38727 7.83801L2.46943 11.3811C1.2614 12.848 2.30486 15.0591 4.20516 15.0591C4.47668 15.0591 4.74447 14.9959 4.98732 14.8744L5.34699 14.6946C6.70234 14.0169 8.29766 14.0169 9.65301 14.6946L10.0127 14.8744C10.2555 14.9959 10.5233 15.0591 10.7948 15.0591C12.6951 15.0591 13.7386 12.848 12.5306 11.3811L9.61273 7.83801Z" fill="black"/>
</svg>
