<svg width="15" height="16" viewBox="0 0 15 16" fill="none" xmlns="http://www.w3.org/2000/svg">
<path d="M4.85236 1.94369L4.1171 0.393066L3.21353 0.821514L3.9488 2.37214L4.85236 1.94369Z" fill="black"/>
<path d="M2.39784 3.06134L1.66257 1.51071L0.759003 1.93916L1.49427 3.48979L2.39784 3.06134Z" fill="black"/>
<path d="M7.29879 3.14184L6.59334 1.51885L5.67623 1.91748L6.38168 3.54047L7.29879 3.14184Z" fill="black"/>
<path d="M3.75092 3.83188C4.30054 3.60608 4.94715 3.5987 5.52178 3.90958L7.18278 4.7354C7.96844 5.15381 8.306 6.21951 7.63626 6.97064C7.33506 7.34412 6.87231 7.50025 6.45684 7.50025H5.72047C5.52792 7.50025 5.38392 7.57518 5.31654 7.66129L5.31102 7.66822L4.88393 8.19461C4.58301 8.57626 4.11513 8.73555 3.69547 8.73555C2.77833 8.73555 2.03391 7.86899 2.2242 6.95696L2.59238 5.19225C2.59524 5.17855 2.59867 5.16497 2.60267 5.15155C2.7586 4.62839 3.15234 4.07779 3.75092 3.83188Z" fill="black"/>
<path d="M1.72282 5.59075L0.987551 4.04012L0.0839844 4.46857L0.81925 6.0192L1.72282 5.59075Z" fill="black"/>
<path d="M11.0512 8.13685L11.7864 6.58622L10.8829 6.15778L10.1476 7.7084L11.0512 8.13685Z" fill="black"/>
<path d="M13.5057 9.25449L14.241 7.70387L13.3374 7.27542L12.6022 8.82605L13.5057 9.25449Z" fill="black"/>
<path d="M8.6183 9.30518L9.32375 7.68219L8.40664 7.28356L7.70119 8.90655L8.6183 9.30518Z" fill="black"/>
<path d="M9.44318 9.75053C9.95642 9.36996 10.6859 9.29774 11.2746 9.6073C11.8663 9.8614 12.2512 10.4134 12.402 10.9917C12.4041 10.9997 12.406 11.0077 12.4076 11.0158L12.7758 12.7805C12.9616 13.671 12.3051 14.5591 11.3045 14.5591C10.8849 14.5591 10.417 14.3998 10.1161 14.0181L9.68348 13.4848C9.6161 13.3987 9.4721 13.3238 9.27954 13.3238H8.54318C8.1221 13.3238 7.65246 13.1634 7.35166 12.7789C6.80086 12.0749 6.97792 11.0059 7.81724 10.5589L7.82972 10.5525L9.44318 9.75053Z" fill="black"/>
<path d="M14.1807 11.7839L14.916 10.2333L14.0124 9.80483L13.2772 11.3555L14.1807 11.7839Z" fill="black"/>
</svg>
