<svg width="15" height="15" viewBox="0 0 15 15" fill="none" xmlns="http://www.w3.org/2000/svg">
<path d="M7 0.0163879C3.09098 0.273681 0 3.52586 0 7.49999C0 11.6421 3.35786 15 7.5 15C9.39113 15 11.1188 14.3 12.438 13.1451L7.15045 7.85751C7.05532 7.7645 7 7.63605 7 7.49999V0.0163879Z" fill="black"/>
<path d="M13.1451 12.438C14.3001 11.1187 15 9.3911 15 7.49999C15 6.47177 14.7931 5.49188 14.4186 4.59969L8.3441 7.63695L13.1451 12.438Z" fill="black"/>
<path d="M13.9708 3.70559C12.7472 1.62343 10.5473 0.184049 8 0.0163879V6.69097L13.9708 3.70559Z" fill="black"/>
</svg>
