<svg width="15" height="15" viewBox="0 0 15 15" fill="none" xmlns="http://www.w3.org/2000/svg">
<path fill-rule="evenodd" clip-rule="evenodd" d="M0 7.5C0 3.35786 3.35786 0 7.5 0C11.6421 0 15 3.35786 15 7.5C15 11.6421 11.6421 15 7.5 15C3.35786 15 0 11.6421 0 7.5ZM6.24904 5.06754C6.40319 4.97808 6.59332 4.97745 6.74807 5.06588L10.2481 7.06588C10.4039 7.1549 10.5 7.32057 10.5 7.5C10.5 7.67943 10.4039 7.8451 10.2481 7.93412L6.74807 9.93412C6.59332 10.0226 6.40319 10.0219 6.24904 9.93246C6.09488 9.84299 6 9.67824 6 9.5V5.5C6 5.32176 6.09488 5.15701 6.24904 5.06754Z" fill="black"/>
</svg>
