<svg width="15" height="16" viewBox="0 0 15 16" fill="none" xmlns="http://www.w3.org/2000/svg">
<path fill-rule="evenodd" clip-rule="evenodd" d="M12.6818 1.01367C11.1761 1.01367 10 2.18981 10 3.69549V10.0591H9V9.0591H3V12.0591H2V3.78634C2 1.72838 3.62386 0.104521 5.68182 0.104521V1.10452C4.17614 1.10452 3 2.28066 3 3.78634V4.0591H9V3.69549C9 1.63753 10.6239 0.0136719 12.6818 0.0136719V1.01367ZM9 5.0591H3V8.0591H9V5.0591ZM7.43931 13.5007C6.54499 14.0052 5.56317 14.5591 3.95454 14.5591C2.47163 14.5591 1.34063 13.7972 0.625824 12.9907L1.37417 12.3274C1.95937 12.9877 2.83745 13.5591 3.95454 13.5591C5.29393 13.5591 6.0834 13.1175 6.95888 12.6236L6.96978 12.6175C7.8641 12.113 8.84592 11.5591 10.4545 11.5591C11.9851 11.5591 13.3377 12.3793 14.3064 13.1307L13.6936 13.9208C12.7714 13.2056 11.6421 12.5591 10.4545 12.5591C9.11516 12.5591 8.32568 13.0007 7.4502 13.4946L7.43931 13.5007Z" fill="black"/>
</svg>
