<svg width="15" height="16" viewBox="0 0 15 16" fill="none" xmlns="http://www.w3.org/2000/svg">
<path fill-rule="evenodd" clip-rule="evenodd" d="M12.6818 1.95459C11.1761 1.95459 10 3.13073 10 4.63641V11H9V10H3V13H2V4.72726C2 2.6693 3.62386 1.04544 5.68182 1.04544V2.04544C4.17614 2.04544 3 3.22158 3 4.72726V5.00001H9V4.63641C9 2.57845 10.6239 0.95459 12.6818 0.95459V1.95459ZM9 6.00001H3V9.00001H9V6.00001ZM7.43931 14.4416C6.54499 14.9462 5.56317 15.5 3.95454 15.5C2.47163 15.5 1.34063 14.7381 0.625824 13.9317L1.37417 13.2684C1.95937 13.9286 2.83745 14.5 3.95454 14.5C5.29393 14.5 6.0834 14.0584 6.95888 13.5645L6.96978 13.5584C7.8641 13.0539 8.84592 12.5 10.4545 12.5C11.9851 12.5 13.3377 13.3202 14.3064 14.0716L13.6936 14.8618C12.7714 14.1465 11.6421 13.5 10.4545 13.5C9.11516 13.5 8.32568 13.9416 7.4502 14.4355L7.43931 14.4416Z" fill="black"/>
</svg>
