<svg width="15" height="16" viewBox="0 0 15 16" fill="none" xmlns="http://www.w3.org/2000/svg">
<path fill-rule="evenodd" clip-rule="evenodd" d="M8.00024 0.0147705V9.01477H7.00024V0.0147705H8.00024ZM12.3873 1.80636L12.7447 2.15606C14.1345 3.51602 15 5.41105 15 7.51025C15 11.6493 11.6437 15.0148 7.5 15.0148C3.35837 15.0148 0 11.6494 0 7.51025C0 5.40612 0.877013 3.51438 2.26871 2.15566L2.62648 1.80637L3.32506 2.52191L2.96729 2.87119C1.75699 4.05282 1 5.69095 1 7.51025C1 11.0981 3.91163 14.0148 7.5 14.0148C11.0903 14.0148 14 11.0982 14 7.51025C14 5.69202 13.2515 4.05118 12.0453 2.87079L11.6879 2.52109L12.3873 1.80636Z" fill="black"/>
</svg>
