<svg width="15" height="15" viewBox="0 0 15 15" fill="none" xmlns="http://www.w3.org/2000/svg">
<path fill-rule="evenodd" clip-rule="evenodd" d="M8.00024 0V9H7.00024V0H8.00024ZM12.3873 1.79159L12.7447 2.14129C14.1345 3.50125 15 5.39628 15 7.49548C15 11.6345 11.6437 15 7.5 15C3.35837 15 0 11.6346 0 7.49548C0 5.39135 0.877013 3.49961 2.26871 2.14089L2.62648 1.7916L3.32506 2.50714L2.96729 2.85642C1.75699 4.03804 1 5.67618 1 7.49548C1 11.0833 3.91163 14 7.5 14C11.0903 14 14 11.0834 14 7.49548C14 5.67725 13.2515 4.03641 12.0453 2.85602L11.6879 2.50632L12.3873 1.79159Z" fill="black"/>
</svg>
