<svg width="15" height="15" viewBox="0 0 15 15" fill="none" xmlns="http://www.w3.org/2000/svg">
<path fill-rule="evenodd" clip-rule="evenodd" d="M0 1.5C0 0.671573 0.671573 0 1.5 0H5.5C6.32843 0 7 0.671573 7 1.5V5.5C7 6.32843 6.32843 7 5.5 7H1.5C0.671573 7 0 6.32843 0 5.5V1.5ZM1.5 1C1.22386 1 1 1.22386 1 1.5V5.5C1 5.77614 1.22386 6 1.5 6H5.5C5.77614 6 6 5.77614 6 5.5V1.5C6 1.22386 5.77614 1 5.5 1H1.5ZM8 1.5C8 0.671573 8.67157 0 9.5 0H13.5C14.3284 0 15 0.671573 15 1.5V5.5C15 6.32843 14.3284 7 13.5 7H9.5C8.67157 7 8 6.32843 8 5.5V1.5ZM9.5 1C9.22386 1 9 1.22386 9 1.5V5.5C9 5.77614 9.22386 6 9.5 6H13.5C13.7761 6 14 5.77614 14 5.5V1.5C14 1.22386 13.7761 1 13.5 1H9.5ZM4 4H3V3H4V4ZM12 4H11V3H12V4ZM0 9.5C0 8.67157 0.671573 8 1.5 8H5.5C6.32843 8 7 8.67157 7 9.5V13.5C7 14.3284 6.32843 15 5.5 15H1.5C0.671573 15 0 14.3284 0 13.5V9.5ZM1.5 9C1.22386 9 1 9.22386 1 9.5V13.5C1 13.7761 1.22386 14 1.5 14H5.5C5.77614 14 6 13.7761 6 13.5V9.5C6 9.22386 5.77614 9 5.5 9H1.5ZM8 8H12V9H9V12H8V8ZM15 9H14V8H15V9ZM4 12H3V11H4V12ZM14 12H11V11H15V15H14V12ZM8 14H12V15H8V14Z" fill="black"/>
</svg>
