<svg width="15" height="15" viewBox="0 0 15 15" fill="none" xmlns="http://www.w3.org/2000/svg">
<path fill-rule="evenodd" clip-rule="evenodd" d="M3.67215 1.62075C4.7099 0.583002 6.11739 0 7.58499 0H7.7918C10.122 0 12 1.92493 12 4.24297C12 5.7995 11.1216 7.2482 9.72361 7.94721C8.66727 8.47538 8.00001 9.55504 8.00001 10.7361V12H7.00001V10.7361C7.00001 9.17627 7.88128 7.75035 9.2764 7.05279C10.3298 6.52607 11 5.42726 11 4.24297C11 2.46504 9.5576 1 7.7918 1H7.58499C6.38261 1 5.22947 1.47765 4.37925 2.32786L3.85356 2.85355L3.14645 2.14645L3.67215 1.62075ZM8.00001 15H7.00001V14H8.00001V15Z" fill="black"/>
</svg>
