<svg width="15" height="15" viewBox="0 0 15 15" fill="none" xmlns="http://www.w3.org/2000/svg">
<path fill-rule="evenodd" clip-rule="evenodd" d="M5.31537 1.83652C4.91591 1.72062 4.6196 1.75171 4.40406 1.86846C4.18851 1.98521 4.00061 2.21642 3.87946 2.61432C3.75743 3.01511 3.71578 3.55018 3.77508 4.19624C3.78469 4.30093 3.79689 4.40787 3.81168 4.51691C4.33487 4.38395 4.89711 4.27894 5.48788 4.20563C5.89742 3.63183 6.327 3.11439 6.76281 2.66569C6.74097 2.64799 6.71917 2.63052 6.69739 2.61329C6.18865 2.21067 5.71773 1.95326 5.31537 1.83652ZM7.49994 1.97744C7.43924 1.92655 7.37857 1.8771 7.31796 1.82914C6.746 1.37649 6.16025 1.04041 5.59401 0.876128C5.02487 0.711001 4.44065 0.711354 3.92776 0.989172C3.41488 1.26699 3.09543 1.75614 2.92282 2.32306C2.75109 2.88708 2.71259 3.5613 2.77927 4.28765C2.7949 4.4579 2.81643 4.63239 2.84379 4.81059C2.67409 4.8714 2.51042 4.93557 2.35329 5.00291C1.68286 5.29024 1.10837 5.64521 0.694221 6.06485C0.277951 6.48664 0 7.00051 0 7.5838C0 8.1671 0.27795 8.68097 0.694221 9.10276C1.10837 9.5224 1.68286 9.87737 2.35329 10.1647C2.51042 10.232 2.67408 10.2962 2.84378 10.357C2.81642 10.5352 2.79488 10.7097 2.77925 10.88C2.71257 11.6064 2.75107 12.2806 2.9228 12.8446C3.09541 13.4115 3.41486 13.9007 3.92774 14.1785C4.44063 14.4563 5.02485 14.4567 5.59399 14.2915C6.16023 14.1272 6.74598 13.7912 7.31794 13.3385C7.37856 13.2906 7.43923 13.2411 7.49994 13.1902C7.56065 13.2411 7.62132 13.2906 7.68193 13.3385C8.2539 13.7912 8.83965 14.1272 9.40589 14.2915C9.97503 14.4567 10.5592 14.4563 11.0721 14.1785C11.585 13.9007 11.9045 13.4115 12.0771 12.8446C12.2488 12.2806 12.2873 11.6064 12.2206 10.88C12.205 10.7098 12.1835 10.5353 12.1561 10.3571C12.3258 10.2962 12.4895 10.2321 12.6467 10.1647C13.3171 9.87737 13.8916 9.5224 14.3058 9.10276C14.722 8.68097 15 8.1671 15 7.5838C15 7.00051 14.722 6.48664 14.3058 6.06485C13.8916 5.64521 13.3171 5.29024 12.6467 5.00291C12.4895 4.93556 12.3258 4.87138 12.1561 4.81055C12.1834 4.63236 12.205 4.45789 12.2206 4.28765C12.2873 3.5613 12.2488 2.88708 12.0771 2.32306C11.9045 1.75614 11.585 1.26699 11.0721 0.989172C10.5592 0.711354 9.97501 0.711001 9.40587 0.876128C8.83963 1.04041 8.25388 1.37649 7.68191 1.82914C7.62131 1.8771 7.56064 1.92655 7.49994 1.97744ZM7.49994 3.3421C7.27514 3.57227 7.05016 3.82455 6.82771 4.09706C7.04936 4.08828 7.27361 4.0838 7.5 4.0838C7.72635 4.0838 7.95056 4.08828 8.17216 4.09706C7.94972 3.82455 7.72474 3.57227 7.49994 3.3421ZM9.51199 4.20561C9.10245 3.63182 8.67287 3.11438 8.23707 2.66569C8.25891 2.64799 8.28071 2.63052 8.30249 2.61329C8.81123 2.21067 9.28215 1.95326 9.68451 1.83652C10.084 1.72062 10.3803 1.75171 10.5958 1.86846C10.8114 1.98521 10.9993 2.21642 11.1204 2.61432C11.2424 3.01511 11.2841 3.55018 11.2248 4.19624C11.2152 4.30092 11.203 4.40786 11.1882 4.51688C10.665 4.38393 10.1028 4.27891 9.51199 4.20561ZM8.94935 5.15028C8.484 5.10687 7.9991 5.0838 7.5 5.0838C7.00085 5.0838 6.51591 5.10687 6.05052 5.15029C5.79069 5.53881 5.53944 5.95422 5.30171 6.3931C5.08522 6.79276 4.89116 7.19117 4.71966 7.58381C4.89117 7.97645 5.08524 8.37488 5.30173 8.77456C5.53945 9.21342 5.7907 9.62882 6.05051 10.0173C6.5159 10.0607 7.00085 10.0838 7.5 10.0838C7.99911 10.0838 8.48401 10.0607 8.94936 10.0173C9.20918 9.62883 9.46042 9.21343 9.69815 8.77456C9.91464 8.37488 10.1087 7.97646 10.2802 7.58381C10.1087 7.19118 9.91465 6.79276 9.69817 6.3931C9.46043 5.95421 9.20918 5.5388 8.94935 5.15028ZM10.7728 6.28831C10.7096 6.16446 10.6445 6.04058 10.5775 5.91681C10.4696 5.71775 10.3589 5.5227 10.2456 5.332C10.5062 5.38161 10.7573 5.43797 10.9978 5.50044C10.9346 5.75632 10.8596 6.01951 10.7728 6.28831ZM10.7728 8.8793C10.7096 9.00317 10.6445 9.12706 10.5774 9.25085C10.4696 9.44989 10.3589 9.64492 10.2456 9.83561C10.5062 9.786 10.7573 9.72963 10.9978 9.66716C10.9346 9.41129 10.8596 9.1481 10.7728 8.8793ZM11.9533 9.36613C11.8083 8.79244 11.6114 8.19348 11.3649 7.5838C11.6114 6.97413 11.8083 6.37517 11.9533 5.80148C12.0563 5.84042 12.1561 5.88063 12.2528 5.92206C12.8491 6.17762 13.2997 6.4691 13.594 6.76729C13.8862 7.06333 14 7.33867 14 7.5838C14 7.82894 13.8862 8.10428 13.594 8.40032C13.2997 8.69851 12.8491 8.98999 12.2528 9.24555C12.1561 9.28697 12.0563 9.32719 11.9533 9.36613ZM11.1882 10.6507C10.665 10.7837 10.1028 10.8887 9.51201 10.962C9.10247 11.5358 8.67288 12.0532 8.23707 12.5019C8.25891 12.5197 8.28072 12.5371 8.30251 12.5544C8.81125 12.957 9.28217 13.2144 9.68453 13.3311C10.084 13.447 10.3803 13.416 10.5958 13.2992C10.8114 13.1824 10.9993 12.9512 11.1204 12.5533C11.2425 12.1525 11.2841 11.6175 11.2248 10.9714C11.2152 10.8667 11.203 10.7598 11.1882 10.6507ZM7.49994 11.8255C7.72475 11.5954 7.94973 11.3431 8.17218 11.0706C7.95057 11.0793 7.72635 11.0838 7.5 11.0838C7.27361 11.0838 7.04935 11.0793 6.82769 11.0705C7.05015 11.3431 7.27513 11.5954 7.49994 11.8255ZM4.75426 9.83559C4.64098 9.6449 4.53025 9.44988 4.42244 9.25085C4.35539 9.12706 4.29025 9.00317 4.22704 8.8793C4.14031 9.14809 4.06531 9.41127 4.00208 9.66713C4.24253 9.7296 4.49368 9.78597 4.75426 9.83559ZM3.81167 10.6507C4.33485 10.7837 4.8971 10.8887 5.48786 10.962C5.8974 11.5358 6.327 12.0532 6.76282 12.5019C6.74097 12.5197 6.71915 12.5371 6.69737 12.5544C6.18863 12.957 5.71771 13.2144 5.31535 13.3311C4.91589 13.447 4.61958 13.416 4.40404 13.2992C4.18849 13.1824 4.00059 12.9512 3.87944 12.5533C3.75741 12.1525 3.71576 11.6175 3.77506 10.9714C3.78468 10.8667 3.79688 10.7597 3.81167 10.6507ZM3.04656 9.36609C3.19156 8.79241 3.38844 8.19346 3.63494 7.5838C3.38844 6.97414 3.19157 6.3752 3.04656 5.80152C2.94366 5.84044 2.84383 5.88065 2.74721 5.92206C2.15089 6.17762 1.70026 6.4691 1.40597 6.76729C1.1138 7.06333 1 7.33867 1 7.5838C1 7.82894 1.1138 8.10428 1.40597 8.40032C1.70026 8.69851 2.15089 8.98999 2.74721 9.24555C2.84383 9.28696 2.94366 9.32716 3.04656 9.36609ZM4.00208 5.50047C4.06531 5.75634 4.14031 6.01952 4.22704 6.28831C4.29024 6.16446 4.35538 6.04058 4.42242 5.91681C4.53024 5.71776 4.64098 5.52272 4.75427 5.33202C4.49369 5.38164 4.24254 5.438 4.00208 5.50047ZM6 7.5838C6 6.75538 6.67157 6.0838 7.5 6.0838C8.32843 6.0838 9 6.75538 9 7.5838C9 8.41223 8.32843 9.0838 7.5 9.0838C6.67157 9.0838 6 8.41223 6 7.5838ZM7.5 7.0838C7.22386 7.0838 7 7.30766 7 7.5838C7 7.85995 7.22386 8.0838 7.5 8.0838C7.77614 8.0838 8 7.85995 8 7.5838C8 7.30766 7.77614 7.0838 7.5 7.0838Z" fill="black"/>
</svg>
