<svg width="15" height="15" viewBox="0 0 15 15" fill="none" xmlns="http://www.w3.org/2000/svg">
<path fill-rule="evenodd" clip-rule="evenodd" d="M7.5 1C5.03982 1 2.65795 2.16988 0.885693 4.31818L0.114304 3.68182C2.05507 1.32925 4.70915 0 7.5 0C10.2908 0 12.9449 1.32925 14.8857 3.68182L14.1143 4.31818C12.342 2.16988 9.96017 1 7.5 1ZM7.50004 4C5.91677 4 4.37371 4.76169 3.21907 6.16133L2.44768 5.52496C3.76839 3.92402 5.58263 3 7.50004 3C9.41745 3 11.2317 3.92402 12.5524 5.52496L11.781 6.16133C10.6264 4.76169 9.08331 4 7.50004 4ZM7 9V6H8V9H14V15H0.999998V9H7Z" fill="black"/>
</svg>
