<svg width="15" height="16" viewBox="0 0 15 16" fill="none" xmlns="http://www.w3.org/2000/svg">
<path d="M0.885647 4.3329C2.65912 2.18312 5.04151 1 7.49995 1C9.9584 1 12.3408 2.18312 14.1143 4.3329L14.8856 3.69654C12.9461 1.34544 10.2925 0 7.49995 0C4.70738 0 2.05381 1.34544 0.114258 3.69654L0.885647 4.3329Z" fill="black"/>
<path d="M3.21914 6.17608C4.37378 4.77644 5.91684 4.01475 7.50012 4.01475C9.08339 4.01475 10.6264 4.77644 11.7811 6.17608L12.5525 5.53971C11.2318 3.93876 9.41752 3.01475 7.50012 3.01475C5.58271 3.01475 3.76847 3.93876 2.44775 5.53971L3.21914 6.17608Z" fill="black"/>
<path d="M7 9.01475V6.01475H8V9.01475H14V15.0147H1V9.01475H7Z" fill="black"/>
</svg>
