<svg width="15" height="16" viewBox="0 0 15 16" fill="none" xmlns="http://www.w3.org/2000/svg">
<path d="M0.885647 5.31813C2.65912 3.16835 5.04151 1.98523 7.49995 1.98523C9.9584 1.98523 12.3408 3.16835 14.1143 5.31813L14.8856 4.68177C12.9461 2.33067 10.2925 0.985229 7.49995 0.985229C4.70738 0.985229 2.05381 2.33067 0.114258 4.68177L0.885647 5.31813Z" fill="black"/>
<path d="M3.21914 7.16131C4.37378 5.76167 5.91684 4.99998 7.50012 4.99998C9.08339 4.99998 10.6264 5.76167 11.7811 7.16131L12.5525 6.52494C11.2318 4.92399 9.41752 3.99998 7.50012 3.99998C5.58271 3.99998 3.76847 4.92399 2.44775 6.52494L3.21914 7.16131Z" fill="black"/>
<path d="M7 9.99998V6.99998H8V9.99998H14V16H1V9.99998H7Z" fill="black"/>
</svg>
