<svg width="15" height="15" viewBox="0 0 15 15" fill="none" xmlns="http://www.w3.org/2000/svg">
<path d="M4.95775 10.0423L6.86445 6.86443L10.0423 4.95773L8.13558 8.13556L4.95775 10.0423Z" fill="black"/>
<path fill-rule="evenodd" clip-rule="evenodd" d="M0 7.5C0 3.35742 3.35742 0 7.5 0C11.6426 0 15 3.35742 15 7.5C15 11.6426 11.6426 15 7.5 15C3.35742 15 0 11.6426 0 7.5ZM11.9288 3.75724C12.0468 3.56051 12.0158 3.30868 11.8536 3.14644C11.6913 2.98421 11.4395 2.95321 11.2428 3.07125L6.13558 6.13556L3.07126 11.2427C2.95322 11.4395 2.98422 11.6913 3.14646 11.8535C3.30869 12.0158 3.56052 12.0468 3.75726 11.9287L8.86445 8.86443L11.9288 3.75724Z" fill="black"/>
</svg>
