<svg width="15" height="15" viewBox="0 0 15 15" fill="none" xmlns="http://www.w3.org/2000/svg">
<path fill-rule="evenodd" clip-rule="evenodd" d="M5.06007 2.33428C3.98333 2.79741 2.63436 3.84932 1.94722 5.22359L1.0528 4.77637C1.86566 3.15065 3.41669 1.95255 4.66495 1.41565C4.9813 1.27958 5.29108 1.18022 5.57666 1.12893C5.85464 1.079 6.14805 1.06759 6.41021 1.14584C6.69333 1.23035 6.95239 1.42801 7.05475 1.76465C7.1463 2.06575 7.08316 2.38836 6.96425 2.68564C6.68148 3.39257 6.06817 4.19933 5.4269 4.9874C5.231 5.22814 5.03083 5.46905 4.83096 5.70959C4.35346 6.28428 3.87769 6.85686 3.4662 7.41996C2.8734 8.23116 2.49382 8.92111 2.42566 9.45401C2.39408 9.70085 2.43302 9.88815 2.52901 10.0424C2.62843 10.2022 2.82248 10.3799 3.19697 10.5404C4.30103 11.0135 5.74013 10.9655 7.17774 10.5684C7.22757 10.0412 7.34665 9.46675 7.51925 8.86264C8.05503 6.9874 9.27642 5.72172 10.4494 5.28183C11.0322 5.06329 11.672 5.02794 12.1919 5.33514C12.7336 5.65525 13 6.25867 13 6.99995C13 7.48007 12.8036 7.94672 12.517 8.36704C12.2279 8.79103 11.8246 9.20143 11.3528 9.58004C10.4931 10.27 9.36373 10.8882 8.15766 11.3092C8.17736 11.6365 8.24372 11.8914 8.34367 12.0807C8.46694 12.3142 8.65367 12.4742 8.94722 12.5564C9.25986 12.6438 9.71756 12.648 10.3648 12.4937C11.008 12.3403 11.8052 12.0384 12.7764 11.5528L13.2236 12.4472C12.2109 12.9536 11.339 13.2894 10.5968 13.4664C9.85862 13.6424 9.21455 13.6695 8.67784 13.5194C8.12204 13.3639 7.71183 13.0258 7.45933 12.5475C7.30991 12.2645 7.22167 11.9443 7.18031 11.6015C5.69653 11.9708 4.116 12.0222 2.80305 11.4595C2.30254 11.245 1.91846 10.954 1.67999 10.5708C1.43809 10.1821 1.37937 9.75217 1.43374 9.32714C1.53745 8.51628 2.06412 7.64373 2.65881 6.82994C3.08969 6.24032 3.59793 5.6286 4.08372 5.0439C4.27866 4.80927 4.46998 4.57899 4.65125 4.35624C5.30685 3.55056 5.81854 2.85732 6.03577 2.31425C6.07865 2.20706 6.09255 2.13753 6.09668 2.09759C6.03541 2.08623 5.92425 2.0825 5.75344 2.11318C5.5605 2.14783 5.32496 2.22035 5.06007 2.33428ZM8.2324 10.2147C9.18421 9.83882 10.057 9.33778 10.7269 8.80014C11.1457 8.46407 11.4725 8.12386 11.6908 7.80368C11.9116 7.47984 12 7.20876 12 6.99995C12 6.49126 11.8289 6.28219 11.6832 6.19607C11.5155 6.09703 11.2178 6.06169 10.8006 6.21816C9.9736 6.52828 8.94499 7.5126 8.48077 9.13736C8.37067 9.52271 8.28757 9.88293 8.2324 10.2147Z" fill="black"/>
</svg>
