<svg width="15" height="15" viewBox="0 0 15 15" fill="none" xmlns="http://www.w3.org/2000/svg">
<path fill-rule="evenodd" clip-rule="evenodd" d="M0 1.5C0 0.671573 0.671573 0 1.5 0H4V1H1.5C1.22386 1 1 1.22386 1 1.5V4H0V1.5ZM9 1H6V0H9V1ZM13.5 1H11V0H13.5C14.3284 0 15 0.671573 15 1.5V4H14V1.5C14 1.22386 13.7761 1 13.5 1ZM0 9V6H1V9H0ZM14 9V6H15V9H14ZM11 8H4V7H11V8ZM0 13.5V11H1V13.5C1 13.7761 1.22386 14 1.5 14H4V15H1.5C0.671573 15 0 14.3284 0 13.5ZM14 13.5V11H15V13.5C15 14.3284 14.3284 15 13.5 15H11V14H13.5C13.7761 14 14 13.7761 14 13.5ZM9 15H6V14H9V15Z" fill="black"/>
</svg>
