<svg width="15" height="15" viewBox="0 0 15 15" fill="none" xmlns="http://www.w3.org/2000/svg">
<path fill-rule="evenodd" clip-rule="evenodd" d="M0 2.5C0 1.67157 0.671573 1 1.5 1H13.5C14.3284 1 15 1.67157 15 2.5V4.5C15 4.88418 14.8556 5.23463 14.618 5.5C14.8556 5.76538 15 6.11582 15 6.5V8.5C15 8.88418 14.8556 9.23462 14.618 9.5C14.8556 9.76538 15 10.1158 15 10.5V12.5C15 13.3284 14.3284 14 13.5 14H1.5C0.671573 14 0 13.3284 0 12.5V10.5C0 10.1158 0.14443 9.76538 0.38195 9.5C0.144428 9.23462 0 8.88418 0 8.5V6.5C0 6.11582 0.144427 5.76538 0.381947 5.5C0.144427 5.23462 0 4.88418 0 4.5V2.5ZM2 4H5V3H2V4ZM5 8H2V7H5V8ZM2 12H5V11H2V12Z" fill="black"/>
</svg>
