<svg width="15" height="16" viewBox="0 0 15 16" fill="none" xmlns="http://www.w3.org/2000/svg">
<path fill-rule="evenodd" clip-rule="evenodd" d="M9.70711 0.0147705H2.5C1.67157 0.0147705 1 0.686344 1 1.51477V13.5148C1 14.3432 1.67157 15.0148 2.5 15.0148H12.5C13.3284 15.0148 14 14.3432 14 13.5148V4.30766L9.70711 0.0147705ZM7 6.01477H4V5.01477H8V12.0148H7V6.01477ZM6 9.01477H4V8.01477H6V9.01477ZM4 12.0148H6V11.0148H4V12.0148ZM11 6.01477H9V5.01477H11V6.01477ZM9 9.01477H11V8.01477H9V9.01477ZM11 12.0148H9V11.0148H11V12.0148Z" fill="black"/>
</svg>
