<svg width="15" height="15" viewBox="0 0 15 15" fill="none" xmlns="http://www.w3.org/2000/svg">
<path fill-rule="evenodd" clip-rule="evenodd" d="M3.14645 0.146447C3.34172 -0.0488155 3.6583 -0.0488155 3.85356 0.146447L6.85356 3.14645L6.14645 3.85355L4.00001 1.70711V15H3.00001V1.70711L0.853561 3.85355L0.146454 3.14645L3.14645 0.146447ZM11.5 1C10.6716 1 10 1.67157 10 2.5V4H13V2.5C13 1.67157 12.3284 1 11.5 1ZM13 5V7H14V2.5C14 1.11929 12.8807 7.45058e-09 11.5 7.45058e-09C10.1193 7.45058e-09 9.00001 1.11929 9.00001 2.5V7H10V5H13ZM9.00001 8H12C13.1046 8 14 8.89543 14 10C14 10.5973 13.7381 11.1335 13.3229 11.5C13.7381 11.8665 14 12.4027 14 13C14 14.1046 13.1046 15 12 15H9.00001V8ZM12 11C12.5523 11 13 10.5523 13 10C13 9.44772 12.5523 9 12 9H10V11H12ZM10 12H12C12.5523 12 13 12.4477 13 13C13 13.5523 12.5523 14 12 14H10V12Z" fill="black"/>
</svg>
