<svg width="15" height="15" viewBox="0 0 15 15" fill="none" xmlns="http://www.w3.org/2000/svg">
<path fill-rule="evenodd" clip-rule="evenodd" d="M4.00001 13.2929V0H5.00001V13.2929L7.14645 11.1464L7.85356 11.8536L4.85356 14.8536C4.75979 14.9473 4.63262 15 4.50001 15C4.3674 15 4.24022 14.9473 4.14645 14.8536L1.14645 11.8536L1.85356 11.1464L4.00001 13.2929ZM11 1H10V0H11.5C11.7761 0 12 0.223858 12 0.5V6H13V7H10V6H11V1ZM9.00001 10C9.00001 8.89543 9.89544 8 11 8H11.8617C13.009 8 13.8191 9.12397 13.4563 10.2124L11.9743 14.6581L11.0257 14.3419L11.8063 12H11C9.89544 12 9.00001 11.1046 9.00001 10ZM12.1396 11L12.5076 9.89614C12.6545 9.45527 12.3264 9 11.8617 9H11C10.4477 9 10 9.44772 10 10C10 10.5523 10.4477 11 11 11H12.1396Z" fill="black"/>
</svg>
