<svg width="15" height="15" viewBox="0 0 15 15" fill="none" xmlns="http://www.w3.org/2000/svg">
<path fill-rule="evenodd" clip-rule="evenodd" d="M4 3.78103C4 2.24511 5.24511 1 6.78103 1H8C9.65685 1 11 2.34315 11 4H10C10 2.89543 9.10457 2 8 2H6.78103C5.79739 2 5 2.79739 5 3.78103C5 4.62384 5.50228 5.38556 6.27694 5.71756L5.88303 6.63671C4.74067 6.14713 4 5.02387 4 3.78103ZM9.39164 8H2V7H13V8H10.9901C11.1132 8.13953 11.227 8.28706 11.3302 8.44014C11.7355 9.04196 12 9.76555 12 10.4869C12 12.4271 10.4271 14 8.48686 14H7C4.79086 14 3 12.2091 3 10H4C4 11.6569 5.34315 13 7 13H8.48686C9.87483 13 11 11.8748 11 10.4869C11 10.0028 10.8184 9.47038 10.5008 8.99881C10.2041 8.55844 9.80981 8.20245 9.39164 8Z" fill="black"/>
</svg>
