<svg width="15" height="15" viewBox="0 0 15 15" fill="none" xmlns="http://www.w3.org/2000/svg">
<path fill-rule="evenodd" clip-rule="evenodd" d="M0 3.5C0 1.567 1.567 0 3.5 0H11.5C13.433 0 15 1.567 15 3.5C15 5.433 13.433 7 11.5 7H3.5C1.567 7 0 5.433 0 3.5ZM3.5 2C4.32843 2 5 2.67157 5 3.5C5 4.32843 4.32843 5 3.5 5C2.67157 5 2 4.32843 2 3.5C2 2.67157 2.67157 2 3.5 2Z" fill="black"/>
<path fill-rule="evenodd" clip-rule="evenodd" d="M15 11.5C15 13.433 13.433 15 11.5 15L3.5 15C1.567 15 0 13.433 0 11.5C0 9.567 1.567 8 3.5 8L11.5 8C13.433 8 15 9.567 15 11.5ZM11.5 13C10.6716 13 10 12.3284 10 11.5C10 10.6716 10.6716 10 11.5 10C12.3284 10 13 10.6716 13 11.5C13 12.3284 12.3284 13 11.5 13Z" fill="black"/>
</svg>
