<svg width="15" height="15" viewBox="0 0 15 15" fill="none" xmlns="http://www.w3.org/2000/svg">
<path fill-rule="evenodd" clip-rule="evenodd" d="M0.999997 0.999995L0.999997 0H2V0.999995H5V0H6V0.999995H9V0H10V0.999995H13V0H14V0.999995H15V1.99999H14V4.99999H15V5.99999H14L14 9H15V10H14V13H15V14H14V15H13V14H10V15H9V14H6V15H5V14H2V15H0.999996L0.999996 14H0V13H0.999996L0.999996 10H0V9H0.999996L0.999997 5.99999H0V4.99999H0.999997L0.999997 1.99999H0V0.999995H0.999997ZM2 1.99999L2 4.99999H5V1.99999H2ZM6 1.99999V4.99999H9V1.99999H6ZM10 1.99999V4.99999H13V1.99999H10ZM13 5.99999H10L10 9H13L13 5.99999ZM13 10H10V13H13V10ZM9 13V10H6V13H9ZM5 13V10H2L2 13H5ZM2 9H5L5 5.99999H2L2 9ZM6 5.99999L6 9H9L9 5.99999H6Z" fill="black"/>
</svg>
