<svg width="15" height="15" viewBox="0 0 15 15" fill="none" xmlns="http://www.w3.org/2000/svg">
<path fill-rule="evenodd" clip-rule="evenodd" d="M0.999997 1L0.999997 7.62939e-06H2V1H5V7.62939e-06H6V1H9V7.62939e-06H10V1H13V7.62939e-06H14V1H15V2H14V5H15V6H14L14 9H15V10H14V13H15V14H14V15H13V14H10V15H9V14H6V15H5V14H2V15H0.999996L0.999996 14H0V13H0.999996L0.999996 10H0V9H0.999996L0.999997 6H0V5H0.999997L0.999997 2H0V1H0.999997ZM2 2L2 5H5V2H2ZM6 2V5H9V2H6ZM10 2V5H13V2H10ZM13 6H10L10 9H13L13 6ZM13 10H10V13H13V10ZM9 13V10H6V13H9ZM5 13V10H2L2 13H5ZM2 9H5L5 6H2L2 9ZM6 6L6 9H9L9 6H6Z" fill="black"/>
</svg>
