<svg width="15" height="15" viewBox="0 0 15 15" fill="none" xmlns="http://www.w3.org/2000/svg">
<path d="M2.71693 1H0.5C0.320967 1 0.155598 1.09572 0.0664289 1.25097C-0.0227402 1.40622 -0.0220988 1.59729 0.0681106 1.75194L7.06811 13.7519C7.15772 13.9055 7.32217 14 7.5 14C7.67783 14 7.84228 13.9055 7.93189 13.7519L14.9319 1.75194C15.0221 1.59729 15.0227 1.40622 14.9336 1.25097C14.8444 1.09572 14.679 1 14.5 1H12.2831L7.50004 8.97184L2.71693 1Z" fill="black"/>
<path d="M11.1169 1H8.191L7.50002 2.38197L6.80903 1H3.88312L7.50004 7.02819L11.1169 1Z" fill="black"/>
</svg>
