<svg width="15" height="15" viewBox="0 0 15 15" fill="none" xmlns="http://www.w3.org/2000/svg">
<path fill-rule="evenodd" clip-rule="evenodd" d="M4 3.08535V1.5C4 0.671573 4.67157 0 5.5 0H9.5C10.3284 0 11 0.671573 11 1.5V3.08535C11.5826 3.29127 12 3.84689 12 4.5V10.5C12 11.1531 11.5826 11.7087 11 11.9146V13.5C11 14.3284 10.3284 15 9.5 15H5.5C4.67157 15 4 14.3284 4 13.5V11.9146C3.4174 11.7087 3 11.1531 3 10.5V4.5C3 3.84689 3.4174 3.29127 4 3.08535ZM5 1.5C5 1.22386 5.22386 1 5.5 1H9.5C9.77614 1 10 1.22386 10 1.5V3H5V1.5ZM5 12H10V13.5C10 13.7761 9.77614 14 9.5 14H5.5C5.22386 14 5 13.7761 5 13.5V12Z" fill="black"/>
<path d="M13 6V9H14V6H13Z" fill="black"/>
</svg>
