<svg width="15" height="15" viewBox="0 0 15 15" fill="none" xmlns="http://www.w3.org/2000/svg">
<path d="M8 4.21683L10.2491 5.56631L13.5183 3.93175L8 0.712769V4.21683Z" fill="black"/>
<path d="M7 0.712769L1.48172 3.93176L4.75084 5.56632L7 4.21683V0.712769Z" fill="black"/>
<path d="M1 4.80894V10.2305L4.5 8.67499V6.55894L1 4.80894Z" fill="black"/>
<path d="M1.5232 11.0923L7 14.2871V10.783L4.9656 9.56238L1.5232 11.0923Z" fill="black"/>
<path d="M8 14.2871L13.4768 11.0924L10.0344 9.56241L8 10.783V14.2871Z" fill="black"/>
<path d="M14 10.2306V4.80891L10.5 6.55891V8.67504L14 10.2306Z" fill="black"/>
<path d="M8 9.61683L9.5 8.71683V7.05891L8 7.80891V9.61683Z" fill="black"/>
<path d="M7 7.80894V9.61683L5.5 8.71683V7.05894L7 7.80894Z" fill="black"/>
<path d="M5.81101 6.09641L7.49997 6.94089L9.18896 6.0964L7.5 5.08302L5.81101 6.09641Z" fill="black"/>
</svg>
