<svg width="15" height="15" viewBox="0 0 15 15" fill="none" xmlns="http://www.w3.org/2000/svg">
<path d="M7.49995 2.98528C5.04151 2.98528 2.65912 4.1684 0.885647 6.31818L0.114258 5.68181C2.05381 3.33072 4.70738 1.98528 7.49995 1.98528C10.2925 1.98528 12.9461 3.33072 14.8856 5.68181L14.1143 6.31818C12.3408 4.1684 9.9584 2.98528 7.49995 2.98528Z" fill="black"/>
<path d="M7.50012 7.15688C5.91684 7.15688 4.37378 7.91857 3.21914 9.31821L2.44775 8.68184C3.76847 7.08089 5.58271 6.15688 7.50012 6.15688C9.41752 6.15688 11.2318 7.08089 12.5525 8.68184L11.7811 9.31821C10.6264 7.91857 9.08339 7.15688 7.50012 7.15688Z" fill="black"/>
<path d="M6 11.5C6 10.6716 6.67157 9.99999 7.5 9.99999C8.32843 9.99999 9 10.6716 9 11.5C9 12.3284 8.32843 13 7.5 13C6.67157 13 6 12.3284 6 11.5Z" fill="black"/>
</svg>
