<svg width="15" height="15" viewBox="0 0 15 15" fill="none" xmlns="http://www.w3.org/2000/svg">
<path d="M7.49995 2.98529C5.04151 2.98529 2.65912 4.16841 0.885647 6.31819L0.114258 5.68183C2.05381 3.33073 4.70738 1.98529 7.49995 1.98529C10.2925 1.98529 12.9461 3.33073 14.8856 5.68183L14.1143 6.31819C12.3408 4.16841 9.9584 2.98529 7.49995 2.98529Z" fill="black"/>
<path d="M7.50012 7.15689C5.91684 7.15689 4.37378 7.91859 3.21914 9.31822L2.44775 8.68186C3.76847 7.08091 5.58271 6.15689 7.50012 6.15689C9.41752 6.15689 11.2318 7.08091 12.5525 8.68186L11.7811 9.31822C10.6264 7.91859 9.08339 7.15689 7.50012 7.15689Z" fill="black"/>
<path d="M6 11.5C6 10.6716 6.67157 10 7.5 10C8.32843 10 9 10.6716 9 11.5C9 12.3284 8.32843 13 7.5 13C6.67157 13 6 12.3284 6 11.5Z" fill="black"/>
</svg>
