<svg width="15" height="15" viewBox="0 0 15 15" fill="none" xmlns="http://www.w3.org/2000/svg">
<path d="M8.59861 7.5L7 8.56574V6.43426L8.59861 7.5Z" fill="black"/>
<path fill-rule="evenodd" clip-rule="evenodd" d="M1.5061 1.77306C5.45719 0.926396 9.54281 0.926396 13.4939 1.77306C14.3724 1.9613 15 2.73766 15 3.63609V11.3639C15 12.2623 14.3724 13.0387 13.4939 13.2269C9.54281 14.0736 5.45719 14.0736 1.5061 13.2269C0.627614 13.0387 0 12.2623 0 11.3639V3.63609C0 2.73766 0.627614 1.9613 1.5061 1.77306ZM6.77735 5.08398C6.62392 4.98169 6.42665 4.97215 6.26407 5.05916C6.10149 5.14617 6 5.3156 6 5.5V9.5C6 9.6844 6.10149 9.85383 6.26407 9.94084C6.42665 10.0278 6.62392 10.0183 6.77735 9.91603L9.77735 7.91603C9.91645 7.82329 10 7.66718 10 7.5C10 7.33282 9.91645 7.17671 9.77735 7.08398L6.77735 5.08398Z" fill="black"/>
</svg>
