<svg width="15" height="15" viewBox="0 0 15 15" fill="none" xmlns="http://www.w3.org/2000/svg">
<path d="M5.5 11.5H5V12H5.5V11.5ZM10.5 11.5V12H11V11.5H10.5ZM6 11.5V10.9999H5V11.5H6ZM10 11V11.5H11V11H10ZM10.5 11H5.5V12H10.5V11ZM8 9C9.10457 9 10 9.89543 10 11H11C11 9.34315 9.65685 8 8 8V9ZM6 10.9999C6 9.89534 6.8954 9 8 9V8C6.34318 8 5 9.343 5 10.9999H6ZM8 3C6.89543 3 6 3.89543 6 5H7C7 4.44772 7.44772 4 8 4V3ZM10 5C10 3.89543 9.10457 3 8 3V4C8.55228 4 9 4.44772 9 5H10ZM8 7C9.10457 7 10 6.10457 10 5H9C9 5.55228 8.55228 6 8 6V7ZM8 6C7.44772 6 7 5.55228 7 5H6C6 6.10457 6.89543 7 8 7V6ZM3.5 1H12.5V0H3.5V1ZM13 1.5V13.5H14V1.5H13ZM12.5 14H3.5V15H12.5V14ZM3 13.5V1.5H2V13.5H3ZM3.5 14C3.22386 14 3 13.7761 3 13.5H2C2 14.3284 2.67157 15 3.5 15V14ZM13 13.5C13 13.7761 12.7761 14 12.5 14V15C13.3284 15 14 14.3284 14 13.5H13ZM12.5 1C12.7761 1 13 1.22386 13 1.5H14C14 0.671573 13.3284 0 12.5 0V1ZM3.5 0C2.67157 0 2 0.671574 2 1.5H3C3 1.22386 3.22386 1 3.5 1V0ZM4 4H1V5H4V4ZM4 10H1V11H4V10Z" fill="black"/>
</svg>
