<svg width="15" height="15" viewBox="0 0 15 15" fill="none" xmlns="http://www.w3.org/2000/svg">
<path d="M6.51997 11.4354C6.76074 11.5418 7.23873 11.9324 7.50144 11.9324C7.76415 11.9324 8.24214 11.5418 8.48291 11.4354M4.55703 6.46475L6.02923 7.95593M10.4458 6.46475L8.97365 7.95593M7.50144 0.5C3.94116 0.5 1.96836 2.44984 1.61263 4.97356C1.25529 7.30439 1.74882 9.50339 3.08482 11.4354C3.72808 12.3878 4.57134 13.3108 5.5385 13.9207C6.81025 14.6931 8.19264 14.6931 9.46438 13.9207C10.4315 13.3108 11.2748 12.3878 11.9181 11.4354C13.2486 9.50094 13.7417 7.30417 13.3903 4.97356C13.0345 2.44907 11.0617 0.5 7.50144 0.5Z" stroke="black" stroke-linecap="square" stroke-linejoin="round"/>
</svg>
