<svg width="15" height="16" viewBox="0 0 15 16" fill="none" xmlns="http://www.w3.org/2000/svg">
<path d="M6.5 11.5C6.74532 11.6071 7.23233 12 7.5 12C7.76766 12 8.25468 11.6071 8.5 11.5M4.5 6.5L6 8M10.5 6.5L9 8M7.5 0.5C3.8725 0.5 1.86245 2.46137 1.50001 5C1.13593 7.34461 1.63877 9.5566 3 11.5C3.6554 12.4581 4.51458 13.3865 5.5 14C6.79576 14.777 8.20424 14.777 9.5 14C10.4854 13.3865 11.3446 12.4581 12 11.5C13.3557 9.55414 13.858 7.34438 13.5 5C13.1376 2.46059 11.1275 0.5 7.5 0.5Z" stroke="black" stroke-linecap="square" stroke-linejoin="round"/>
</svg>
