<svg width="15" height="15" viewBox="0 0 15 15" fill="none" xmlns="http://www.w3.org/2000/svg">
<path d="M6.5 2.4987L6.14647 2.14512L5.79284 2.4987L6.14647 2.85228L6.5 2.4987ZM7.5 1.99878H7V2.99878H7.5V1.99878ZM2 8.49487V7.99487H1V8.49487H2ZM8.14547 0.14642L6.14647 2.14512L6.85353 2.85228L8.85253 0.85358L8.14547 0.14642ZM6.14647 2.85228L8.14547 4.85097L8.85253 4.14381L6.85353 2.14512L6.14647 2.85228ZM7.5 2.99878C10.5372 2.99878 13 5.46048 13 8.49487H14C14 4.90758 11.0888 1.99878 7.5 1.99878V2.99878ZM13 8.49487C13 11.5293 10.5372 13.991 7.5 13.991V14.991C11.0888 14.991 14 12.0822 14 8.49487H13ZM7.5 13.991C4.46283 13.991 2 11.5293 2 8.49487H1C1 12.0822 3.91117 14.991 7.5 14.991V13.991Z" fill="black"/>
</svg>
