<svg width="15" height="15" viewBox="0 0 15 15" fill="none" xmlns="http://www.w3.org/2000/svg">
<path d="M6.85355 5.85355L7.20711 5.5L6.5 4.79289L6.14645 5.14645L6.85355 5.85355ZM4.5 7.5L4.14645 7.14645L3.79289 7.5L4.14645 7.85355L4.5 7.5ZM6.14645 9.85355L6.5 10.2071L7.20711 9.5L6.85355 9.14645L6.14645 9.85355ZM7.5 0.5V0V0.5ZM14.5 7.5H15H14.5ZM0.5 7.5H1H0.5ZM7.5 14.5V14V14.5ZM6.14645 5.14645L4.14645 7.14645L4.85355 7.85355L6.85355 5.85355L6.14645 5.14645ZM4.14645 7.85355L6.14645 9.85355L6.85355 9.14645L4.85355 7.14645L4.14645 7.85355ZM4.5 8L11 8V7L4.5 7V8ZM7.5 1C11.0899 1 14 3.91015 14 7.5H15C15 3.35786 11.6421 3.57628e-07 7.5 0V1ZM1 7.5C1 3.91015 3.91015 1 7.5 1V0C3.35786 -3.57628e-07 3.57628e-07 3.35786 0 7.5H1ZM7.5 14C3.91015 14 1 11.0899 1 7.5H0C-3.57628e-07 11.6421 3.35786 15 7.5 15V14ZM7.5 15C11.6421 15 15 11.6421 15 7.5H14C14 11.0899 11.0899 14 7.5 14V15Z" fill="black"/>
</svg>
