<svg width="15" height="15" viewBox="0 0 15 15" fill="none" xmlns="http://www.w3.org/2000/svg">
<path d="M8.14645 9.14645L7.79289 9.5L8.5 10.2071L8.85355 9.85355L8.14645 9.14645ZM10.5 7.5L10.8536 7.85355L11.2071 7.5L10.8536 7.14645L10.5 7.5ZM8.85355 5.14645L8.5 4.79289L7.79289 5.5L8.14645 5.85355L8.85355 5.14645ZM8.85355 9.85355L10.8536 7.85355L10.1464 7.14645L8.14645 9.14645L8.85355 9.85355ZM10.8536 7.14645L8.85355 5.14645L8.14645 5.85355L10.1464 7.85355L10.8536 7.14645ZM10.5 7H4V8H10.5V7ZM7.5 14C3.91015 14 1 11.0899 1 7.5H0C0 11.6421 3.35786 15 7.5 15V14ZM14 7.5C14 11.0899 11.0899 14 7.5 14V15C11.6421 15 15 11.6421 15 7.5H14ZM7.5 1C11.0899 1 14 3.91015 14 7.5H15C15 3.35786 11.6421 0 7.5 0V1ZM7.5 0C3.35786 0 0 3.35786 0 7.5H1C1 3.91015 3.91015 1 7.5 1V0Z" fill="black"/>
</svg>
