<svg width="15" height="15" viewBox="0 0 15 15" fill="none" xmlns="http://www.w3.org/2000/svg">
<path d="M9.85355 8.85355L10.2071 8.5L9.5 7.79289L9.14645 8.14645L9.85355 8.85355ZM7.5 10.5L7.14645 10.8536L7.5 11.2071L7.85355 10.8536L7.5 10.5ZM5.85355 8.14645L5.5 7.79289L4.79289 8.5L5.14645 8.85355L5.85355 8.14645ZM9.14645 8.14645L7.14645 10.1464L7.85355 10.8536L9.85355 8.85355L9.14645 8.14645ZM7.85355 10.1464L5.85355 8.14645L5.14645 8.85355L7.14645 10.8536L7.85355 10.1464ZM8 10.5L8 4L7 4L7 10.5H8Z" fill="black"/>
</svg>
