<svg width="15" height="15" viewBox="0 0 15 15" fill="none" xmlns="http://www.w3.org/2000/svg">
<path d="M13.5 7.5L7.74264 13.2574C6.94699 14.053 5.86786 14.5 4.74264 14.5C2.3995 14.5 0.5 12.6005 0.5 10.2574C0.5 9.13214 0.946991 8.05301 1.74264 7.25736L7.67157 1.32843C8.20201 0.797993 8.92143 0.5 9.67157 0.5C11.2337 0.5 12.5 1.76633 12.5 3.32843C12.5 4.07857 12.202 4.79799 11.6716 5.32843L5.91421 11.0858C5.649 11.351 5.28929 11.5 4.91421 11.5C4.13316 11.5 3.5 10.8668 3.5 10.0858C3.5 9.71071 3.649 9.351 3.91421 9.08579L9.5 3.5" stroke="black"/>
</svg>
