<svg width="15" height="15" viewBox="0 0 15 15" fill="none" xmlns="http://www.w3.org/2000/svg">
<path d="M13.5 3.5H14V3.29289L13.8536 3.14645L13.5 3.5ZM10.5 0.5L10.8536 0.146447L10.7071 0H10.5V0.5ZM7.5 4.5L7.9 4.2C7.77087 4.02783 7.54606 3.9576 7.34189 4.02566C7.13771 4.09372 7 4.28478 7 4.5H7.5ZM7.8 4.9L8.2 4.6L7.8 4.9ZM12.5 14H2.5V15H12.5V14ZM2 13.5V1.5H1V13.5H2ZM13 3.5V13.5H14V3.5H13ZM2.5 1H10.5V0H2.5V1ZM10.1464 0.853553L13.1464 3.85355L13.8536 3.14645L10.8536 0.146447L10.1464 0.853553ZM2.5 14C2.22386 14 2 13.7761 2 13.5H1C1 14.3284 1.67157 15 2.5 15V14ZM12.5 15C13.3284 15 14 14.3284 14 13.5H13C13 13.7761 12.7761 14 12.5 14V15ZM2 1.5C2 1.22386 2.22386 1 2.5 1V0C1.67157 0 1 0.671574 1 1.5H2ZM6 11C5.44772 11 5 10.5523 5 10H4C4 11.1046 4.89543 12 6 12V11ZM7 10C7 10.5523 6.55228 11 6 11V12C7.10457 12 8 11.1046 8 10H7ZM6 9C6.55228 9 7 9.44772 7 10H8C8 8.89543 7.10457 8 6 8V9ZM6 8C4.89543 8 4 8.89543 4 10H5C5 9.44772 5.44772 9 6 9V8ZM7 6.5V10H8V6.5H7ZM8 7V4.5H7V7H8ZM7.1 4.8L7.4 5.2L8.2 4.6L7.9 4.2L7.1 4.8ZM7.4 5.2C8.24984 6.33313 9.58359 7 11 7V6C9.89835 6 8.86099 5.48132 8.2 4.6L7.4 5.2Z" fill="black"/>
</svg>
