<svg width="15" height="15" viewBox="0 0 15 15" fill="none" xmlns="http://www.w3.org/2000/svg">
<path d="M14.5 9.5V10H15V9.5H14.5ZM0.5 2.5V2H0V2.5H0.5ZM0.5 12.5H0V13H0.5V12.5ZM8 9.5C8 11.433 9.567 13 11.5 13V12C10.1193 12 9 10.8807 9 9.5H8ZM11.5 6C9.567 6 8 7.567 8 9.5H9C9 8.11929 10.1193 7 11.5 7V6ZM15 9.5C15 7.567 13.433 6 11.5 6V7C12.8807 7 14 8.11929 14 9.5H15ZM13.5268 10.964C13.0717 11.5927 12.3334 12 11.5 12V13C12.6677 13 13.7018 12.4276 14.3368 11.5504L13.5268 10.964ZM0.5 3H3V2H0.5V3ZM3 7H0.5V8H3V7ZM1 7.5V2.5H0V7.5H1ZM5 5C5 6.10457 4.10457 7 3 7V8C4.65685 8 6 6.65685 6 5H5ZM3 3C4.10457 3 5 3.89543 5 5H6C6 3.34315 4.65685 2 3 2V3ZM0.5 8H4V7H0.5V8ZM4 12H0.5V13H4V12ZM1 12.5V7.5H0V12.5H1ZM6 10C6 11.1046 5.10457 12 4 12V13C5.65685 13 7 11.6569 7 10H6ZM4 8C5.10457 8 6 8.89543 6 10H7C7 8.34315 5.65685 7 4 7V8ZM8.5 10H14.5V9H8.5V10ZM9 4H14V3H9V4Z" fill="black"/>
</svg>
