<svg width="15" height="15" viewBox="0 0 15 15" fill="none" xmlns="http://www.w3.org/2000/svg">
<path d="M7.5 13L7.16782 13.3737L7.5 13.669L7.83218 13.3737L7.5 13ZM7.5 2L7.84002 1.63341L7.50715 1.32467L7.16782 1.6263L7.5 2ZM7.83218 13.3737L12.3322 9.3737L11.6678 8.6263L7.16782 12.6263L7.83218 13.3737ZM7.83218 12.6263L3.33218 8.6263L2.66782 9.3737L7.16782 13.3737L7.83218 12.6263ZM7.16782 1.6263L2.66782 5.6263L3.33218 6.3737L7.83218 2.3737L7.16782 1.6263ZM7.15998 2.36659L11.4725 6.36659L12.1525 5.63341L7.84002 1.63341L7.15998 2.36659Z" fill="black"/>
</svg>
