<svg width="15" height="15" viewBox="0 0 15 15" fill="none" xmlns="http://www.w3.org/2000/svg">
<path d="M13.5 5C13.7761 5 14 4.77614 14 4.5C14 4.22386 13.7761 4 13.5 4V5ZM2.96423 2.81431C2.86168 2.55791 2.57069 2.43321 2.3143 2.53576C2.05791 2.63832 1.9332 2.9293 2.03576 3.1857L2.96423 2.81431ZM14 7.5C14 11.0903 11.0903 14 7.5 14V15C11.6426 15 15 11.6426 15 7.5H14ZM7.5 14C3.90971 14 1 11.0903 1 7.5H0C0 11.6426 3.35742 15 7.5 15V14ZM1 7.5C1 3.90971 3.90971 1 7.5 1V0C3.35742 0 0 3.35742 0 7.5H1ZM7.5 1C11.0903 1 14 3.90971 14 7.5H15C15 3.35742 11.6426 0 7.5 0V1ZM7.5 5H13.5V4H7.5V5ZM4.96423 7.81431L2.96423 2.81431L2.03576 3.1857L4.03576 8.1857L4.96423 7.81431ZM9.24901 9.30131L5.59901 14.2013L6.40097 14.7987L10.051 9.89869L9.24901 9.30131ZM7.5 10C6.11929 10 5 8.88071 5 7.5H4C4 9.433 5.567 11 7.5 11V10ZM10 7.5C10 8.88071 8.88071 10 7.5 10V11C9.433 11 11 9.433 11 7.5H10ZM7.5 5C8.88071 5 10 6.11929 10 7.5H11C11 5.567 9.433 4 7.5 4V5ZM7.5 4C5.567 4 4 5.567 4 7.5H5C5 6.11929 6.11929 5 7.5 5V4Z" fill="black"/>
</svg>
