<svg width="15" height="15" viewBox="0 0 15 15" fill="none" xmlns="http://www.w3.org/2000/svg">
<path d="M7.5 0.5L7.79062 0.0931333C7.61677 -0.0310444 7.38323 -0.0310444 7.20938 0.0931333L7.5 0.5ZM14.5 5.5H15C15 5.33852 14.922 5.18699 14.7906 5.09313L14.5 5.5ZM14.5 9.5L14.7906 9.90687C14.922 9.81301 15 9.66148 15 9.5H14.5ZM7.5 14.5L7.20938 14.9069C7.38323 15.031 7.61677 15.031 7.79062 14.9069L7.5 14.5ZM0.5 9.5H0C0 9.66148 0.0779828 9.81301 0.209381 9.90687L0.5 9.5ZM0.5 5.5L0.209381 5.09313C0.0779828 5.18699 0 5.33852 0 5.5H0.5ZM7.20938 0.906867L14.2094 5.90687L14.7906 5.09313L7.79062 0.0931333L7.20938 0.906867ZM14 5.5V9.5H15V5.5H14ZM14.2094 9.09313L7.20938 14.0931L7.79062 14.9069L14.7906 9.90687L14.2094 9.09313ZM7.79062 14.0931L0.790619 9.09313L0.209381 9.90687L7.20938 14.9069L7.79062 14.0931ZM1 9.5V5.5H0V9.5H1ZM0.790619 5.90687L7.79062 0.906867L7.20938 0.0931333L0.209381 5.09313L0.790619 5.90687ZM0.790619 9.90687L7.79062 4.90687L7.20938 4.09313L0.209381 9.09313L0.790619 9.90687ZM7.20938 4.90687L14.2094 9.90687L14.7906 9.09313L7.79062 4.09313L7.20938 4.90687ZM0.209381 5.90687L7.20938 10.9069L7.79062 10.0931L0.790619 5.09313L0.209381 5.90687ZM7.79062 10.9069L14.7906 5.90687L14.2094 5.09313L7.20938 10.0931L7.79062 10.9069ZM7 0.5V4.5H8V0.5H7ZM7 10.5V14.5H8V10.5H7Z" fill="black"/>
</svg>
