<svg width="15" height="15" viewBox="0 0 15 15" fill="none" xmlns="http://www.w3.org/2000/svg">
<path d="M2.5 1.5C2.5 2.05228 2.05228 2.5 1.5 2.5C0.947715 2.5 0.5 2.05228 0.5 1.5C0.5 0.947715 0.947715 0.5 1.5 0.5C2.05228 0.5 2.5 0.947715 2.5 1.5ZM2.5 1.5H4.5C6.15685 1.5 7.5 2.84315 7.5 4.5V10.5C7.5 12.1569 8.84315 13.5 10.5 13.5H12.5M12.5 13.5C12.5 14.0523 12.9477 14.5 13.5 14.5C14.0523 14.5 14.5 14.0523 14.5 13.5C14.5 12.9477 14.0523 12.5 13.5 12.5C12.9477 12.5 12.5 12.9477 12.5 13.5Z" stroke="black"/>
</svg>
