<svg width="15" height="15" viewBox="0 0 15 15" fill="none" xmlns="http://www.w3.org/2000/svg">
<path d="M1.5 8.50003L1.10532 8.19306C0.950512 8.3921 0.968141 8.67528 1.14645 8.85358L1.5 8.50003ZM6.5 1.50003L6.14645 1.85358V1.85358L6.5 1.50003ZM8.5 3.50003L8.85355 3.85358L9.20711 3.50003L8.85355 3.14648L8.5 3.50003ZM6.5 5.50003L6.14645 5.85358L6.5 6.20714L6.85355 5.85358L6.5 5.50003ZM4.5 3.50003L4.14645 3.85358H4.14645L4.5 3.50003ZM7.63636 4.36366L7.98992 4.71722V4.71722L7.63636 4.36366ZM7.36364 4.63639L7.01008 4.28284V4.28284L7.36364 4.63639ZM7.63636 10.3637L7.28281 10.0101L7.28281 10.0101L7.63636 10.3637ZM13.3636 4.63639L13.0101 4.28284L13.0101 4.28284L13.3636 4.63639ZM13.3636 4.36367L13.0101 4.71722L13.3636 4.36367ZM7.36364 10.3637L7.71719 10.0101L7.36364 10.3637ZM2 15H13V14H2V15ZM7.85355 14.1465L1.85355 8.14648L1.14645 8.85358L7.14645 14.8536L7.85355 14.1465ZM1.89468 8.807L5.39468 4.307L4.60532 3.69306L1.10532 8.19306L1.89468 8.807ZM6.14645 1.85358L8.14645 3.85358L8.85355 3.14648L6.85355 1.14648L6.14645 1.85358ZM8.14645 3.14648L6.14645 5.14648L6.85355 5.85358L8.85355 3.85358L8.14645 3.14648ZM6.85355 5.14648L4.85355 3.14648L4.14645 3.85358L6.14645 5.85358L6.85355 5.14648ZM4.85355 1.85358C5.21058 1.49656 5.78942 1.49656 6.14645 1.85358L6.85355 1.14648C6.10601 0.398929 4.89399 0.398929 4.14645 1.14648L4.85355 1.85358ZM4.14645 1.14648C3.3989 1.89402 3.3989 3.10604 4.14645 3.85358L4.85355 3.14648C4.49653 2.78945 4.49653 2.2106 4.85355 1.85358L4.14645 1.14648ZM7.28281 4.01011L7.01008 4.28284L7.71719 4.98995L7.98992 4.71722L7.28281 4.01011ZM7.98992 10.7172L13.7172 4.98995L13.0101 4.28284L7.28281 10.0101L7.98992 10.7172ZM13.7172 4.98995C13.9878 4.71937 13.9878 4.28069 13.7172 4.01011L13.0101 4.71722C12.8901 4.59727 12.8901 4.40279 13.0101 4.28284L13.7172 4.98995ZM7.01008 10.7172C7.28066 10.9878 7.71934 10.9878 7.98992 10.7172L7.28281 10.0101C7.40276 9.89016 7.59724 9.89016 7.71719 10.0101L7.01008 10.7172ZM7.01008 4.28284C5.23328 6.05964 5.23328 8.94041 7.01008 10.7172L7.71719 10.0101C6.33091 8.62383 6.33091 6.37623 7.71719 4.98995L7.01008 4.28284ZM7.98992 4.71722C9.3762 3.33094 11.6238 3.33094 13.0101 4.71722L13.7172 4.01011C11.9404 2.23331 9.05962 2.23331 7.28281 4.01011L7.98992 4.71722Z" fill="black"/>
</svg>
