<svg width="15" height="15" viewBox="0 0 15 15" fill="none" xmlns="http://www.w3.org/2000/svg">
<path d="M5.14645 6.14645L4.79289 6.5L5.5 7.20711L5.85355 6.85355L5.14645 6.14645ZM7.5 4.5L7.85355 4.14645L7.5 3.79289L7.14645 4.14645L7.5 4.5ZM9.14645 6.85355L9.5 7.20711L10.2071 6.5L9.85355 6.14645L9.14645 6.85355ZM5.14645 9.14645L4.79289 9.5L5.5 10.2071L5.85355 9.85355L5.14645 9.14645ZM7.5 7.5L7.85355 7.14645L7.5 6.79289L7.14645 7.14645L7.5 7.5ZM9.14645 9.85355L9.5 10.2071L10.2071 9.5L9.85355 9.14645L9.14645 9.85355ZM0.5 7.5H0H0.5ZM7.5 14.5V15V14.5ZM7.5 0.5V1V0.5ZM14.5 7.5H14H14.5ZM5.85355 6.85355L7.85355 4.85355L7.14645 4.14645L5.14645 6.14645L5.85355 6.85355ZM7.14645 4.85355L9.14645 6.85355L9.85355 6.14645L7.85355 4.14645L7.14645 4.85355ZM5.85355 9.85355L7.85355 7.85355L7.14645 7.14645L5.14645 9.14645L5.85355 9.85355ZM7.14645 7.85355L9.14645 9.85355L9.85355 9.14645L7.85355 7.14645L7.14645 7.85355ZM0 7.5C-5.96046e-08 11.6421 3.35786 15 7.5 15V14C3.91015 14 1 11.0899 1 7.5H0ZM7.5 0C3.35786 -5.96046e-08 5.96046e-08 3.35786 0 7.5H1C1 3.91015 3.91015 1 7.5 1V0ZM15 7.5C15 3.35786 11.6421 5.96046e-08 7.5 0V1C11.0899 1 14 3.91015 14 7.5H15ZM14 7.5C14 11.0899 11.0899 14 7.5 14V15C11.6421 15 15 11.6421 15 7.5H14Z" fill="black"/>
</svg>
