<svg width="15" height="15" viewBox="0 0 15 15" fill="none" xmlns="http://www.w3.org/2000/svg">
<path d="M13.5 3.5H14V3.29289L13.8536 3.14645L13.5 3.5ZM10.5 0.5L10.8536 0.146447L10.7071 0H10.5V0.5ZM10.5 6.5V6H10V6.5H10.5ZM10.5 8.5H10V9H10.5V8.5ZM12.5 8.5H13V8H12.5V8.5ZM12.5 10.5V11H13V10.5H12.5ZM6.5 6.5V6H6V6.5H6.5ZM8.5 6.5H9V6H8.5V6.5ZM8.5 8.5V9H9V8.5H8.5ZM2.5 6.5V6H2V6.5H2.5ZM2.5 10.5H2V11H2.5V10.5ZM2 5V1.5H1V5H2ZM13 3.5V5H14V3.5H13ZM2.5 1H10.5V0H2.5V1ZM10.1464 0.853553L13.1464 3.85355L13.8536 3.14645L10.8536 0.146447L10.1464 0.853553ZM2 1.5C2 1.22386 2.22386 1 2.5 1V0C1.67157 0 1 0.671573 1 1.5H2ZM1 12V13.5H2V12H1ZM2.5 15H12.5V14H2.5V15ZM14 13.5V12H13V13.5H14ZM12.5 15C13.3284 15 14 14.3284 14 13.5H13C13 13.7761 12.7761 14 12.5 14V15ZM1 13.5C1 14.3284 1.67157 15 2.5 15V14C2.22386 14 2 13.7761 2 13.5H1ZM13 6H10.5V7H13V6ZM10 6.5V8.5H11V6.5H10ZM10.5 9H12.5V8H10.5V9ZM12 8.5V10.5H13V8.5H12ZM12.5 10H10V11H12.5V10ZM6.5 7H8.5V6H6.5V7ZM8 6.5V8.5H9V6.5H8ZM7 11V8.5H6V11H7ZM7 8.5V6.5H6V8.5H7ZM8.5 8H6.5V9H8.5V8ZM5 6H2.5V7H5V6ZM2 6.5V10.5H3V6.5H2ZM2.5 11H5V10H2.5V11ZM2.5 9H5V8H2.5V9Z" fill="black"/>
</svg>
