<svg width="15" height="15" viewBox="0 0 15 15" fill="none" xmlns="http://www.w3.org/2000/svg">
<path d="M7.5 0.5L7.88411 0.179908C7.78911 0.0659115 7.64839 0 7.5 0C7.35161 0 7.21089 0.0659115 7.11589 0.179908L7.5 0.5ZM2.5 6.5L2.11589 6.17991C1.97761 6.34585 1.96152 6.58183 2.076 6.765L2.5 6.5ZM7.5 14.5L7.076 14.765C7.16737 14.9112 7.3276 15 7.5 15C7.6724 15 7.83263 14.9112 7.924 14.765L7.5 14.5ZM12.5 6.5L12.924 6.765C13.0385 6.58183 13.0224 6.34585 12.8841 6.17991L12.5 6.5ZM7.5 4.5L7.6857 4.03576L7.5 3.96148L7.3143 4.03576L7.5 4.5ZM7.11589 0.179908L2.11589 6.17991L2.88411 6.82009L7.88411 0.820092L7.11589 0.179908ZM2.076 6.765L7.076 14.765L7.924 14.235L2.924 6.235L2.076 6.765ZM7.924 14.765L12.924 6.765L12.076 6.235L7.076 14.235L7.924 14.765ZM12.8841 6.17991L7.88411 0.179908L7.11589 0.820092L12.1159 6.82009L12.8841 6.17991ZM2.6857 6.96424L7.6857 4.96424L7.3143 4.03576L2.3143 6.03576L2.6857 6.96424ZM7.3143 4.96424L12.3143 6.96424L12.6857 6.03576L7.6857 4.03576L7.3143 4.96424Z" fill="black"/>
</svg>
