<svg width="15" height="15" viewBox="0 0 15 15" fill="none" xmlns="http://www.w3.org/2000/svg">
<path d="M7.5 1V9.5M7.5 9.5V11.5C7.5 12.6046 6.60457 13.5 5.5 13.5C4.39543 13.5 3.5 12.6046 3.5 11.5C3.5 10.3954 4.39543 9.5 5.5 9.5M7.5 9.5H5.5M5.5 9.5C4.39543 9.5 3.5 8.60457 3.5 7.5C3.5 6.39543 4.39543 5.5 5.5 5.5M5.5 5.5H7.5M5.5 5.5H9.5M5.5 5.5C4.39543 5.5 3.5 4.60457 3.5 3.5C3.5 2.39543 4.39543 1.5 5.5 1.5H9.5C10.6046 1.5 11.5 2.39543 11.5 3.5C11.5 4.60457 10.6046 5.5 9.5 5.5M9.5 5.5C10.6046 5.5 11.5 6.39543 11.5 7.5C11.5 8.60457 10.6046 9.5 9.5 9.5C8.39543 9.5 7.5 8.60457 7.5 7.5C7.5 6.39543 8.39543 5.5 9.5 5.5Z" stroke="black"/>
</svg>
