<svg width="15" height="15" viewBox="0 0 15 15" fill="none" xmlns="http://www.w3.org/2000/svg">
<path d="M2 6.5H5M12 6.5H13M11 8.5H12M3.5 5V8M5.10556 2.5H9.89445C10.2893 2.5 10.6753 2.61688 11.0039 2.8359L12 3.5H12.1378C13.187 3.5 14.0579 4.3109 14.1327 5.35751L14.4524 9.83326C14.4812 10.2368 14.264 10.618 13.9021 10.7989L11.8121 11.844C11.6046 11.9477 11.3865 12.0284 11.1615 12.0846C8.75751 12.6856 6.2425 12.6856 3.83847 12.0846C3.6135 12.0284 3.39536 11.9477 3.18795 11.844L1.09787 10.7989C0.735994 10.618 0.518802 10.2368 0.547628 9.83326L0.867325 5.3575C0.942083 4.31089 1.81297 3.5 2.86224 3.5H3L3.99616 2.8359C4.32469 2.61688 4.71071 2.5 5.10556 2.5Z" stroke="black"/>
</svg>
