<svg width="15" height="15" viewBox="0 0 15 15" fill="none" xmlns="http://www.w3.org/2000/svg">
<path d="M2.5 10.5H2V11H2.5V10.5ZM4.5 10.5V11H5V10.5H4.5ZM13.5 3.5H14V3.29289L13.8536 3.14645L13.5 3.5ZM10.5 0.5L10.8536 0.146447L10.7071 0H10.5V0.5ZM2 6V10.5H3V6H2ZM2.5 11H4.5V10H2.5V11ZM5 10.5V8.5H4V10.5H5ZM3 7H5V6H3V7ZM2 5V1.5H1V5H2ZM13 3.5V5H14V3.5H13ZM2.5 1H10.5V0H2.5V1ZM10.1464 0.853553L13.1464 3.85355L13.8536 3.14645L10.8536 0.146447L10.1464 0.853553ZM2 1.5C2 1.22386 2.22386 1 2.5 1V0C1.67157 0 1 0.671573 1 1.5H2ZM1 12V13.5H2V12H1ZM2.5 15H12.5V14H2.5V15ZM14 13.5V12H13V13.5H14ZM12.5 15C13.3284 15 14 14.3284 14 13.5H13C13 13.7761 12.7761 14 12.5 14V15ZM1 13.5C1 14.3284 1.67157 15 2.5 15V14C2.22386 14 2 13.7761 2 13.5H1ZM6 7H9V6H6V7ZM6 11H9V10H6V11ZM7 6.5V10.5H8V6.5H7ZM10.5 7H13V6H10.5V7ZM10 6V11H11V6H10ZM10.5 9H12V8H10.5V9Z" fill="black"/>
</svg>
