<svg width="15" height="15" viewBox="0 0 15 15" fill="none" xmlns="http://www.w3.org/2000/svg">
<path d="M8.5 0.5L6.5 2.5M6.5 2.5L8.5 4.5M6.5 2.5H9.5C11.1569 2.5 12.5 3.84315 12.5 5.5V10.5M2.5 4.5C3.60457 4.5 4.5 3.60457 4.5 2.5C4.5 1.39543 3.60457 0.5 2.5 0.5C1.39543 0.5 0.5 1.39543 0.5 2.5C0.5 3.60457 1.39543 4.5 2.5 4.5ZM2.5 4.5V9.5C2.5 11.1569 3.84315 12.5 5.5 12.5H8M6.5 14.5L8.5 12.5L6.5 10.5M12.5 10.5C11.3954 10.5 10.5 11.3954 10.5 12.5C10.5 13.6046 11.3954 14.5 12.5 14.5C13.6046 14.5 14.5 13.6046 14.5 12.5C14.5 11.3954 13.6046 10.5 12.5 10.5Z" stroke="black"/>
</svg>
