<svg width="15" height="15" viewBox="0 0 15 15" fill="none" xmlns="http://www.w3.org/2000/svg">
<path d="M7.5 0.5L7.8254 0.120372C7.63815 -0.0401239 7.36185 -0.0401239 7.1746 0.120372L7.5 0.5ZM0.5 6.5L0.174604 6.12037L0 6.27003V6.5H0.5ZM5.5 14.5V15C5.77614 15 6 14.7761 6 14.5H5.5ZM9.5 14.5H9C9 14.7761 9.22386 15 9.5 15V14.5ZM14.5 6.5H15V6.27003L14.8254 6.12037L14.5 6.5ZM1.5 15H5.5V14H1.5V15ZM14.8254 6.12037L7.8254 0.120372L7.1746 0.879628L14.1746 6.87963L14.8254 6.12037ZM7.1746 0.120372L0.174604 6.12037L0.825396 6.87963L7.8254 0.879628L7.1746 0.120372ZM6 14.5V11.5H5V14.5H6ZM9 11.5V14.5H10V11.5H9ZM9.5 15H13.5V14H9.5V15ZM15 13.5V6.5H14V13.5H15ZM0 6.5V13.5H1V6.5H0ZM7.5 10C8.32843 10 9 10.6716 9 11.5H10C10 10.1193 8.88071 9 7.5 9V10ZM7.5 9C6.11929 9 5 10.1193 5 11.5H6C6 10.6716 6.67157 10 7.5 10V9ZM13.5 15C14.3284 15 15 14.3284 15 13.5H14C14 13.7761 13.7761 14 13.5 14V15ZM1.5 14C1.22386 14 1 13.7761 1 13.5H0C0 14.3284 0.671573 15 1.5 15V14Z" fill="black"/>
</svg>
