<svg width="15" height="15" viewBox="0 0 15 15" fill="none" xmlns="http://www.w3.org/2000/svg">
<path d="M1.5 10.5V10C1.22386 10 1 10.2239 1 10.5H1.5ZM13.5 10.5H14C14 10.2239 13.7761 10 13.5 10V10.5ZM13.5 14.5V15C13.7761 15 14 14.7761 14 14.5H13.5ZM1.5 14.5H1C1 14.7761 1.22386 15 1.5 15V14.5ZM1.5 11H13.5V10H1.5V11ZM13 10.5V14.5H14V10.5H13ZM13.5 14H1.5V15H13.5V14ZM2 14.5V10.5H1V14.5H2ZM8 10.5V6.5H7V10.5H8ZM7.5 0C5.567 0 4 1.567 4 3.5H5C5 2.11929 6.11929 1 7.5 1V0ZM11 3.5C11 1.567 9.433 0 7.5 0V1C8.88071 1 10 2.11929 10 3.5H11ZM7.5 7C9.433 7 11 5.433 11 3.5H10C10 4.88071 8.88071 6 7.5 6V7ZM7.5 6C6.11929 6 5 4.88071 5 3.5H4C4 5.433 5.567 7 7.5 7V6ZM3 9H5V8H3V9Z" fill="black"/>
</svg>
