<svg width="15" height="15" viewBox="0 0 15 15" fill="none" xmlns="http://www.w3.org/2000/svg">
<path d="M10.3285 10.3284C8.76636 11.8905 6.2337 11.8905 4.6716 10.3284M10.3285 10.3284C11.8906 8.76633 11.8906 6.23367 10.3285 4.67157M10.3285 10.3284L12.4498 12.4497M4.6716 10.3284C3.10951 8.76633 3.10951 6.23367 4.6716 4.67157M4.6716 10.3284L2.55031 12.4497M10.3285 4.67157C8.76636 3.10948 6.2337 3.10948 4.6716 4.67157M10.3285 4.67157L12.4498 2.55025M4.6716 4.67157L2.55031 2.55025M12.4498 12.4497C9.71614 15.1834 5.28398 15.1834 2.55031 12.4497M12.4498 12.4497C15.1835 9.71608 15.1835 5.28392 12.4498 2.55025M2.55031 12.4497C-0.183356 9.71608 -0.183356 5.28392 2.55031 2.55025M12.4498 2.55025C9.71614 -0.183417 5.28398 -0.183418 2.55031 2.55025" stroke="black"/>
</svg>
