<svg width="15" height="15" viewBox="0 0 15 15" fill="none" xmlns="http://www.w3.org/2000/svg">
<path d="M0.5 13.5L0.146447 13.1464C0.00344761 13.2894 -0.0393303 13.5045 0.0380602 13.6913C0.115451 13.8782 0.297769 14 0.5 14V13.5ZM1.5 2.5H2V2H1.5V2.5ZM5 8H15V7H5V8ZM5 4H15V3H5V4ZM5 12H15V11H5V12ZM3 13H0.5V14H3V13ZM0.853553 13.8536L2.64645 12.0607L1.93934 11.3536L0.146447 13.1464L0.853553 13.8536ZM1.79289 10H1.5V11H1.79289V10ZM1.5 10C0.671573 10 0 10.6716 0 11.5H1C1 11.2239 1.22386 11 1.5 11V10ZM3 11.2071C3 10.5404 2.45956 10 1.79289 10V11C1.90728 11 2 11.0927 2 11.2071H3ZM2.64645 12.0607C2.87282 11.8343 3 11.5273 3 11.2071H2C2 11.262 1.97818 11.3147 1.93934 11.3536L2.64645 12.0607ZM0 6H3V5H0V6ZM2 5.5V2.5H1V5.5H2ZM1.5 2H0V3H1.5V2Z" fill="black"/>
</svg>
