<svg width="15" height="15" viewBox="0 0 15 15" fill="none" xmlns="http://www.w3.org/2000/svg">
<path d="M7.50001 0.5L7.86858 0.162138C7.77388 0.0588232 7.64016 0 7.50001 0C7.35985 0 7.22613 0.0588232 7.13143 0.162138L7.50001 0.5ZM7.50001 13.5L7.10685 13.8089C7.20164 13.9296 7.34658 14 7.50001 14C7.65344 14 7.79837 13.9296 7.89316 13.8089L7.50001 13.5ZM4.6229 9.83822L4.22974 10.1471H4.22974L4.6229 9.83822ZM4.86872 3.3705L4.50014 3.03263H4.50014L4.86872 3.3705ZM10.1313 3.37049L10.4999 3.03263L10.1313 3.37049ZM10.3771 9.83823L10.7703 10.1471H10.7703L10.3771 9.83823ZM8.00001 15V0.5H7.00001V15H8.00001ZM7.89316 13.1911L5.01606 9.52931L4.22974 10.1471L7.10685 13.8089L7.89316 13.1911ZM5.2373 3.70836L7.86858 0.837862L7.13143 0.162138L4.50014 3.03263L5.2373 3.70836ZM7.13143 0.837862L9.76271 3.70836L10.4999 3.03263L7.86858 0.162138L7.13143 0.837862ZM9.98396 9.52932L7.10685 13.1911L7.89316 13.8089L10.7703 10.1471L9.98396 9.52932ZM9.76271 3.70836C11.2518 5.33278 11.3454 7.79655 9.98395 9.52932L10.7703 10.1471C12.4343 8.02932 12.3198 5.01803 10.4999 3.03263L9.76271 3.70836ZM5.01606 9.52931C3.6546 7.79655 3.74824 5.33278 5.2373 3.70836L4.50014 3.03263C2.68019 5.01804 2.56574 8.02932 4.22974 10.1471L5.01606 9.52931Z" fill="black"/>
</svg>
