<svg width="15" height="15" viewBox="0 0 15 15" fill="none" xmlns="http://www.w3.org/2000/svg">
<path d="M4.1 9.7L3.8 10.1L4.6 10.7L4.9 10.3L4.1 9.7ZM10.1 10.3L10.4 10.7L11.2 10.1L10.9 9.7L10.1 10.3ZM7.5 14C3.91015 14 1 11.0899 1 7.5H0C0 11.6421 3.35786 15 7.5 15V14ZM14 7.5C14 11.0899 11.0899 14 7.5 14V15C11.6421 15 15 11.6421 15 7.5H14ZM7.5 1C11.0899 1 14 3.91015 14 7.5H15C15 3.35786 11.6421 0 7.5 0V1ZM7.5 0C3.35786 0 0 3.35786 0 7.5H1C1 3.91015 3.91015 1 7.5 1V0ZM4 6H5V5H4V6ZM10 6H11V5H10V6ZM10.9 9.7C9.2 7.43333 5.8 7.43333 4.1 9.7L4.9 10.3C6.2 8.56667 8.8 8.56667 10.1 10.3L10.9 9.7Z" fill="black"/>
</svg>
