<svg width="15" height="15" viewBox="0 0 15 15" fill="none" xmlns="http://www.w3.org/2000/svg">
<path d="M5.29022 10.1873L4.86642 10.4526L5.39707 11.3002L5.82087 11.0349L5.29022 10.1873ZM10.1875 9.94325L10.6863 9.97792L10.7557 8.98033L10.2569 8.94566L10.1875 9.94325ZM5.82087 11.0349C7.1245 10.2188 8.65319 9.83658 10.1875 9.94325L10.2569 8.94566C8.51172 8.82433 6.77298 9.25902 5.29022 10.1873L5.82087 11.0349ZM4 6H5V5H4V6ZM10 6H11V5H10V6ZM7.5 14C3.91015 14 1 11.0899 1 7.5H0C0 11.6421 3.35786 15 7.5 15V14ZM14 7.5C14 11.0899 11.0899 14 7.5 14V15C11.6421 15 15 11.6421 15 7.5H14ZM7.5 1C11.0899 1 14 3.91015 14 7.5H15C15 3.35786 11.6421 0 7.5 0V1ZM7.5 0C3.35786 0 0 3.35786 0 7.5H1C1 3.91015 3.91015 1 7.5 1V0Z" fill="black"/>
</svg>
