<svg width="15" height="15" viewBox="0 0 15 15" fill="none" xmlns="http://www.w3.org/2000/svg">
<path d="M13.5 3.5H14V3.29289L13.8536 3.14645L13.5 3.5ZM10.5 0.5L10.8536 0.146447L10.7071 0H10.5V0.5ZM2.5 6.5L2.85355 6.14645C2.71055 6.00345 2.4955 5.96067 2.30866 6.03806C2.12182 6.11545 2 6.29777 2 6.5H2.5ZM3.5 7.5L3.14645 7.85355L3.5 8.20711L3.85355 7.85355L3.5 7.5ZM4.5 6.5H5C5 6.29777 4.87818 6.11545 4.69134 6.03806C4.5045 5.96067 4.28945 6.00345 4.14645 6.14645L4.5 6.5ZM6.5 6.5V6H6V6.5H6.5ZM12.5 6.5L12.9 6.8C13.0136 6.64849 13.0319 6.44579 12.9472 6.27639C12.8625 6.107 12.6894 6 12.5 6V6.5ZM11 8.5L10.6 8.2C10.4864 8.35151 10.4681 8.55421 10.5528 8.72361C10.6375 8.893 10.8106 9 11 9V8.5ZM2 5V1.5H1V5H2ZM13 3.5V5H14V3.5H13ZM2.5 1H10.5V0H2.5V1ZM10.1464 0.853553L13.1464 3.85355L13.8536 3.14645L10.8536 0.146447L10.1464 0.853553ZM2 1.5C2 1.22386 2.22386 1 2.5 1V0C1.67157 0 1 0.671573 1 1.5H2ZM1 12V13.5H2V12H1ZM2.5 15H12.5V14H2.5V15ZM14 13.5V12H13V13.5H14ZM12.5 15C13.3284 15 14 14.3284 14 13.5H13C13 13.7761 12.7761 14 12.5 14V15ZM1 13.5C1 14.3284 1.67157 15 2.5 15V14C2.22386 14 2 13.7761 2 13.5H1ZM3 11V6.5H2V11H3ZM2.14645 6.85355L3.14645 7.85355L3.85355 7.14645L2.85355 6.14645L2.14645 6.85355ZM3.85355 7.85355L4.85355 6.85355L4.14645 6.14645L3.14645 7.14645L3.85355 7.85355ZM4 6.5V11H5V6.5H4ZM6.5 7H7.5V6H6.5V7ZM7 11V8.5H6V11H7ZM7 8.5V6.5H6V8.5H7ZM7.5 8H6.5V9H7.5V8ZM8 7.5C8 7.77614 7.77614 8 7.5 8V9C8.32843 9 9 8.32843 9 7.5H8ZM7.5 7C7.77614 7 8 7.22386 8 7.5H9C9 6.67157 8.32843 6 7.5 6V7ZM10 7H12.5V6H10V7ZM12.1 6.2L10.6 8.2L11.4 8.8L12.9 6.8L12.1 6.2ZM11 9H11.5V8H11V9ZM11.5 10H10V11H11.5V10ZM12 9.5C12 9.77614 11.7761 10 11.5 10V11C12.3284 11 13 10.3284 13 9.5H12ZM11.5 9C11.7761 9 12 9.22386 12 9.5H13C13 8.67157 12.3284 8 11.5 8V9Z" fill="black"/>
</svg>
