<svg width="15" height="15" viewBox="0 0 15 15" fill="none" xmlns="http://www.w3.org/2000/svg">
<path d="M3 3.49999C5.86489 2.22671 9.13511 2.22671 12 3.49999M0.5 6.49999V12.2639C0.5 12.9466 1.05341 13.5 1.73607 13.5C2.20426 13.5 2.63226 13.2355 2.84164 12.8167L3.5 11.5M14.5 6.49999V12.2639C14.5 12.9466 13.9466 13.5 13.2639 13.5C12.7957 13.5 12.3677 13.2355 12.1584 12.8167L11.5 11.5M6 7.49999H9M3.29914 10.9989L1.1489 8.31112C0.728848 7.78605 0.5 7.13366 0.5 6.46124V6.06512C0.5 4.64844 1.64845 3.49999 3.06512 3.49999C4.2104 3.49999 5.21692 4.25921 5.53155 5.36042L6.64856 9.26996C6.86144 10.015 6.60616 10.8151 6.00107 11.2991C5.17205 11.9624 3.96236 11.8279 3.29914 10.9989ZM11.7009 10.9989L13.8511 8.31112C14.2712 7.78605 14.5 7.13366 14.5 6.46124V6.06512C14.5 4.64844 13.3516 3.49999 11.9349 3.49999C10.7896 3.49999 9.78308 4.25921 9.46845 5.36042L8.35144 9.26996C8.13856 10.015 8.39384 10.8151 8.99893 11.2991C9.82795 11.9624 11.0376 11.8279 11.7009 10.9989Z" stroke="black"/>
</svg>
