<svg width="15" height="15" viewBox="0 0 15 15" fill="none" xmlns="http://www.w3.org/2000/svg">
<path d="M6 5.5H9M7.5 5.5V10M10.5 10V7.5M10.5 7.5V5.5H11.5C12.0523 5.5 12.5 5.94772 12.5 6.5C12.5 7.05228 12.0523 7.5 11.5 7.5H10.5ZM4.5 6.5V8.5C4.5 9.05228 4.05228 9.5 3.5 9.5C2.94772 9.5 2.5 9.05228 2.5 8.5V6.5C2.5 5.94772 2.94772 5.5 3.5 5.5C4.05228 5.5 4.5 5.94772 4.5 6.5ZM1.5 0.5H13.5C14.0523 0.5 14.5 0.947715 14.5 1.5V13.5C14.5 14.0523 14.0523 14.5 13.5 14.5H1.5C0.947716 14.5 0.5 14.0523 0.5 13.5V1.5C0.5 0.947716 0.947715 0.5 1.5 0.5Z" stroke="black"/>
</svg>
