<svg width="15" height="15" viewBox="0 0 15 15" fill="none" xmlns="http://www.w3.org/2000/svg">
<path d="M7.5 7.5H7C7 7.63261 7.05268 7.75979 7.14645 7.85355L7.5 7.5ZM7.5 14C3.91015 14 1 11.0899 1 7.5H0C0 11.6421 3.35786 15 7.5 15V14ZM14 7.5C14 11.0899 11.0899 14 7.5 14V15C11.6421 15 15 11.6421 15 7.5H14ZM7.5 1C11.0899 1 14 3.91015 14 7.5H15C15 3.35786 11.6421 0 7.5 0V1ZM7.5 0C3.35786 0 0 3.35786 0 7.5H1C1 3.91015 3.91015 1 7.5 1V0ZM7 0V7.5H8V0H7ZM7.72361 7.94721L13.7236 4.94721L13.2764 4.05279L7.27639 7.05279L7.72361 7.94721ZM7.14645 7.85355L12.1464 12.8536L12.8536 12.1464L7.85355 7.14645L7.14645 7.85355Z" fill="black"/>
</svg>
