<svg width="15" height="16" viewBox="0 0 15 16" fill="none" xmlns="http://www.w3.org/2000/svg">
<path d="M1.5 10.5V10H1V10.5H1.5ZM13.5 10.5H14V10H13.5V10.5ZM13.5 15.5V16H14V15.5H13.5ZM1.5 15.5H1V16H1.5V15.5ZM3.21907 7.16134C4.37371 5.7617 5.91677 5.00001 7.50004 5.00001V4.00001C5.58263 4.00001 3.76839 4.92403 2.44768 6.52497L3.21907 7.16134ZM7.50004 5.00001C9.08331 5.00001 10.6264 5.7617 11.781 7.16134L12.5524 6.52497C11.2317 4.92403 9.41745 4.00001 7.50004 4.00001V5.00001ZM0.885695 5.31819C2.65917 3.16841 5.04156 1.98529 7.5 1.98529V0.985291C4.70742 0.985291 2.05386 2.33073 0.114305 4.68183L0.885695 5.31819ZM7.5 1.98529C9.95844 1.98529 12.3408 3.16841 14.1143 5.31819L14.8857 4.68183C12.9461 2.33073 10.2926 0.985291 7.5 0.985291V1.98529ZM7 7.00001V10H8V7.00001H7ZM1.5 11H13.5V10H1.5V11ZM13 10.5V15.5H14V10.5H13ZM13.5 15H1.5V16H13.5V15ZM2 15.5V10.5H1V15.5H2Z" fill="black"/>
</svg>
