<svg width="15" height="15" viewBox="0 0 15 15" fill="none" xmlns="http://www.w3.org/2000/svg">
<path d="M2 10.5H7M2.5 4.5H9C9.82843 4.5 10.5 5.17157 10.5 6C10.5 6.82843 9.82843 7.5 9 7.5H4.5M4.5 4.5V10.5M7.5 7.5H8.5C9.60457 7.5 10.5 8.39543 10.5 9.5C10.5 10.0523 10.9477 10.5 11.5 10.5H13M7.5 0.5L8.84425 1.61046L10.5372 1.19322L11.2665 2.77696L12.9728 3.13557L12.9428 4.87891L14.3245 5.94235L13.541 7.5L14.3245 9.05765L12.9428 10.1211L12.9728 11.8644L11.2665 12.223L10.5372 13.8068L8.84425 13.3895L7.5 14.5L6.15575 13.3895L4.46282 13.8068L3.7335 12.223L2.02718 11.8644L2.05725 10.1211L0.675507 9.05765L1.459 7.5L0.675507 5.94235L2.05725 4.87891L2.02718 3.13557L3.7335 2.77696L4.46282 1.19322L6.15575 1.61046L7.5 0.5Z" stroke="black" stroke-linejoin="round"/>
</svg>
