<svg width="15" height="15" viewBox="0 0 15 15" fill="none" xmlns="http://www.w3.org/2000/svg">
<path d="M1.99997 10.5H6.99997M2.49997 4.5H8.99997C9.8284 4.5 10.5 5.17157 10.5 6C10.5 6.82843 9.8284 7.5 8.99997 7.5H4.49997M4.49997 4.5V10.5M7.49997 7.5H8.49997C9.60454 7.5 10.5 8.39543 10.5 9.5C10.5 10.0523 10.9477 10.5 11.5 10.5H13M7.49997 0.5L8.84422 1.61046L10.5372 1.19322L11.2665 2.77696L12.9728 3.13557L12.9427 4.87891L14.3245 5.94235L13.541 7.5L14.3245 9.05765L12.9427 10.1211L12.9728 11.8644L11.2665 12.223L10.5372 13.8068L8.84422 13.3895L7.49997 14.5L6.15572 13.3895L4.46279 13.8068L3.73347 12.223L2.02715 11.8644L2.05722 10.1211L0.675476 9.05765L1.45897 7.5L0.675476 5.94235L2.05722 4.87891L2.02715 3.13557L3.73347 2.77696L4.46279 1.19322L6.15572 1.61046L7.49997 0.5Z" stroke="black" stroke-linejoin="round"/>
</svg>
