<svg width="15" height="17" viewBox="0 0 15 17" fill="none" xmlns="http://www.w3.org/2000/svg">
<path d="M7.5 1.5L7.74807 1.06588L7.5 0.924124L7.25193 1.06588L7.5 1.5ZM0.5 5.5L0.251931 5.06588L0 5.20984V5.5H0.5ZM14.5 5.5H15V5.20984L14.7481 5.06588L14.5 5.5ZM7.5 15.5L7.36264 15.9808L7.5 16.02L7.63736 15.9808L7.5 15.5ZM7 11L6.67991 11.3841L7.07178 11.7107L7.39043 11.3123L7 11ZM7.25193 1.06588L0.251931 5.06588L0.748069 5.93412L7.74807 1.93412L7.25193 1.06588ZM0 5.5V6.21989H1V5.5H0ZM15 6.21989V5.5H14V6.21989H15ZM14.7481 5.06588L7.74807 1.06588L7.25193 1.93412L14.2519 5.93412L14.7481 5.06588ZM7.63736 15.9808C11.9954 14.7356 15 10.7523 15 6.21989H14C14 10.3058 11.2914 13.8967 7.36264 15.0192L7.63736 15.9808ZM0 6.21989C0 10.7523 3.0046 14.7356 7.36264 15.9808L7.63736 15.0192C3.70863 13.8967 1 10.3058 1 6.21989H0ZM3.67991 8.88411L6.67991 11.3841L7.32009 10.6159L4.32009 8.11589L3.67991 8.88411ZM7.39043 11.3123L11.3904 6.31235L10.6096 5.68765L6.60957 10.6877L7.39043 11.3123Z" fill="black"/>
</svg>
