<svg width="15" height="15" viewBox="0 0 15 15" fill="none" xmlns="http://www.w3.org/2000/svg">
<path d="M10.5 7.5V6C10.5 5.17157 11.1716 4.5 12 4.5C12.8284 4.5 13.5 5.17157 13.5 6C13.5 6.82843 12.8284 7.5 12 7.5H10.5ZM10.5 7.5H7.5M10.5 7.5V2C10.5 1.17157 9.82843 0.5 9 0.5C8.17157 0.5 7.5 1.17157 7.5 2V7.5M7.5 7.5V4.5M7.5 7.5H2C1.17157 7.5 0.5 6.82843 0.5 6C0.5 5.17157 1.17157 4.5 2 4.5H7.5M7.5 7.5H13C13.8284 7.5 14.5 8.17157 14.5 9C14.5 9.82843 13.8284 10.5 13 10.5H7.5M7.5 7.5V10.5M7.5 7.5H4.5M7.5 7.5V13C7.5 13.8284 6.82843 14.5 6 14.5C5.17157 14.5 4.5 13.8284 4.5 13V7.5M7.5 4.5V3C7.5 2.17157 6.82843 1.5 6 1.5C5.17157 1.5 4.5 2.17157 4.5 3C4.5 3.82843 5.17157 4.5 6 4.5H7.5ZM7.5 10.5H9C9.82843 10.5 10.5 11.1716 10.5 12C10.5 12.8284 9.82843 13.5 9 13.5C8.17157 13.5 7.5 12.8284 7.5 12V10.5ZM4.5 7.5V9C4.5 9.82843 3.82843 10.5 3 10.5C2.17157 10.5 1.5 9.82843 1.5 9C1.5 8.17157 2.17157 7.5 3 7.5H4.5Z" stroke="black"/>
</svg>
