<svg width="15" height="15" viewBox="0 0 15 15" fill="none" xmlns="http://www.w3.org/2000/svg">
<path d="M7.5 1C6.34521 1 5.32563 1.41229 4.60572 2.28142C3.96376 3.05584 3.60014 4.63183 3.53984 5.9473L3.46675 5.95782L3.44543 5.96092C3.33763 5.97639 3.20913 5.99497 3.07696 6.01973C2.61164 6.10887 1.73091 6.34596 1.53358 7.29743C1.441 7.7419 1.54515 8.13006 1.78086 8.43091C1.99221 8.69957 2.27846 8.85989 2.4892 8.96018C2.57927 9.00213 2.67047 9.04156 2.76267 9.07842C2.55254 9.66156 2.18406 10.262 1.77599 10.8056C1.39411 11.3144 1.49522 11.9588 1.69255 12.3792C1.88989 12.8001 2.26276 12.7811 2.88462 12.8083C3.23726 12.8238 3.60697 12.8604 3.97485 12.9284C4.14112 12.9594 4.33724 13.0275 4.58086 13.1296C4.72261 13.1897 4.86352 13.2518 5.00355 13.316C5.11745 13.3679 5.23865 13.4224 5.37812 13.4831C5.95064 13.7332 6.65411 14 7.43371 14C8.21331 14 8.91678 13.7332 9.4893 13.4831C9.62878 13.4224 9.74937 13.3679 9.86387 13.316L9.88931 13.3044C10.0235 13.2438 10.1496 13.1867 10.2866 13.1296C10.5302 13.0275 10.7263 12.96 10.8926 12.929C11.2605 12.861 11.6302 12.8238 11.9822 12.8083C12.6047 12.7811 13.0875 12.8001 13.2855 12.3792C13.4828 11.9588 13.5839 11.3144 13.202 10.8056C12.7964 10.2658 12.4297 9.6696 12.219 9.09017C12.3091 9.05489 12.4163 9.0128 12.5235 8.96328C12.7398 8.86485 13.0418 8.70203 13.2532 8.42037C13.4986 8.09351 13.5687 7.68123 13.4286 7.23614C13.1491 6.35029 12.3372 6.11383 11.8615 6.02035C11.733 5.99497 11.6093 5.9764 11.5058 5.96154L11.4936 5.95969L11.4376 5.95102C11.373 4.71727 11.0289 3.15613 10.4016 2.36995C9.69507 1.48534 8.68158 1 7.5 1Z" stroke="black"/>
</svg>
