<svg width="15" height="15" viewBox="0 0 15 15" fill="none" xmlns="http://www.w3.org/2000/svg">
<path d="M3.5 0.5L3.85355 0.146447C3.65829 -0.0488155 3.34171 -0.0488155 3.14645 0.146447L3.5 0.5ZM9.5 8.5V8H9V8.5H9.5ZM9.5 14.5H9V15H9.5V14.5ZM3.14645 0.146447L0.146447 3.14645L0.853553 3.85355L3.85355 0.853553L3.14645 0.146447ZM3.14645 0.853553L6.14645 3.85355L6.85355 3.14645L3.85355 0.146447L3.14645 0.853553ZM3 0.5V15H4V0.5H3ZM9.5 9H12V8H9.5V9ZM12 11H9.5V12H12V11ZM10 11.5V8.5H9V11.5H10ZM13 10C13 10.5523 12.5523 11 12 11V12C13.1046 12 14 11.1046 14 10H13ZM12 9C12.5523 9 13 9.44772 13 10H14C14 8.89543 13.1046 8 12 8V9ZM12 14H9.5V15H12V14ZM10 14.5V11.5H9V14.5H10ZM13 13C13 13.5523 12.5523 14 12 14V15C13.1046 15 14 14.1046 14 13H13ZM12 12C12.5523 12 13 12.4477 13 13H14C14 11.8954 13.1046 11 12 11V12ZM10 7V2.5H9V7H10ZM13 2.5V7H14V2.5H13ZM11.5 1C12.3284 1 13 1.67157 13 2.5H14C14 1.11929 12.8807 0 11.5 0V1ZM10 2.5C10 1.67157 10.6716 1 11.5 1V0C10.1193 0 9 1.11929 9 2.5H10ZM9.5 5H13.5V4H9.5V5Z" fill="black"/>
</svg>
