<svg width="15" height="15" viewBox="0 0 15 15" fill="none" xmlns="http://www.w3.org/2000/svg">
<path d="M3.5 10.4941L3.75712 10.0653L3.63841 9.99414H3.5V10.4941ZM3.5 4.49805V4.99805H3.63841L3.75712 4.92687L3.5 4.49805ZM8.5 1.5H9C9 1.31989 8.90313 1.1537 8.74641 1.06494C8.58969 0.976173 8.39735 0.978558 8.24288 1.07118L8.5 1.5ZM8.5 13.4922L8.24288 13.921C8.39735 14.0136 8.58969 14.016 8.74641 13.9273C8.90313 13.8385 9 13.6723 9 13.4922H8.5ZM11.4394 5.72934L11.0857 5.3759L10.3788 6.08324L10.7325 6.43668L11.4394 5.72934ZM13.5605 9.26285L13.9142 9.61629L14.621 8.90895L14.2674 8.55551L13.5605 9.26285ZM14.2676 6.43668L14.6213 6.08324L13.9144 5.3759L13.5607 5.72934L14.2676 6.43668ZM10.7327 8.55551L10.3791 8.90895L11.086 9.61629L11.4396 9.26285L10.7327 8.55551ZM3.5 9.99414H1.5V10.9941H3.5V9.99414ZM1.5 9.99414C1.22286 9.99414 1 9.77097 1 9.49475H0C0 10.3238 0.671138 10.9941 1.5 10.9941V9.99414ZM1 9.49475V5.49731H0V9.49475H1ZM1 5.49731C1 5.22118 1.22278 4.99805 1.5 4.99805V3.99805C0.671218 3.99805 0 4.66817 0 5.49731H1ZM1.5 4.99805H3.5V3.99805H1.5V4.99805ZM3.75712 4.92687L8.75712 1.92882L8.24288 1.07118L3.24288 4.06923L3.75712 4.92687ZM8 1.5V13.4922H9V1.5H8ZM8.75712 13.0634L3.75712 10.0653L3.24288 10.923L8.24288 13.921L8.75712 13.0634ZM10.7325 6.43668L13.5605 9.26285L14.2674 8.55551L11.4394 5.72934L10.7325 6.43668ZM13.5607 5.72934L10.7327 8.55551L11.4396 9.26285L14.2676 6.43668L13.5607 5.72934Z" fill="black"/>
</svg>
