<svg width="15" height="15" viewBox="0 0 15 15" fill="none" xmlns="http://www.w3.org/2000/svg">
<path d="M9.6254 8.35674L4.53711 11.5363M7.50521 9.68159C5.86594 10.7059 3.70666 10.2074 2.68232 8.56814C1.65799 6.92886 2.1565 4.76958 3.79578 3.74525L8.03602 1.09565C9.67529 0.0713228 11.8346 0.569832 12.8589 2.20911C13.7296 3.60248 13.5 5.37156 12.4049 6.5M7.53602 5.29573C9.17529 4.2714 11.3346 4.76991 12.3589 6.40918C13.3832 8.04845 12.8847 10.2077 11.2455 11.2321L7.00521 13.8817C5.36594 14.906 3.20666 14.4075 2.18232 12.7682C1.31746 11.3841 1.53819 9.62936 2.61456 8.5M5.41589 6.62048L10.5042 3.44097" stroke="black"/>
</svg>
