<svg width="15" height="15" viewBox="0 0 15 15" fill="none" xmlns="http://www.w3.org/2000/svg">
<path d="M0.5 7.5L0.146447 7.14645C-0.0488155 7.34171 -0.0488155 7.65829 0.146447 7.85355L0.5 7.5ZM7.5 14.5L7.14645 14.8536C7.34171 15.0488 7.65829 15.0488 7.85355 14.8536L7.5 14.5ZM14.5 7.5L14.8536 7.85355C14.9473 7.75979 15 7.63261 15 7.5H14.5ZM7.5 0.5V0C7.36739 0 7.24021 0.0526784 7.14645 0.146447L7.5 0.5ZM0.146447 7.85355L7.14645 14.8536L7.85355 14.1464L0.853553 7.14645L0.146447 7.85355ZM7.85355 14.8536L14.8536 7.85355L14.1464 7.14645L7.14645 14.1464L7.85355 14.8536ZM15 7.5V1.5H14V7.5H15ZM13.5 0H7.5V1H13.5V0ZM7.14645 0.146447L0.146447 7.14645L0.853553 7.85355L7.85355 0.853553L7.14645 0.146447ZM15 1.5C15 0.671573 14.3284 0 13.5 0V1C13.7761 1 14 1.22386 14 1.5H15ZM10.5 5C10.2239 5 10 4.77614 10 4.5H9C9 5.32843 9.67157 6 10.5 6V5ZM11 4.5C11 4.77614 10.7761 5 10.5 5V6C11.3284 6 12 5.32843 12 4.5H11ZM10.5 4C10.7761 4 11 4.22386 11 4.5H12C12 3.67157 11.3284 3 10.5 3V4ZM10.5 3C9.67157 3 9 3.67157 9 4.5H10C10 4.22386 10.2239 4 10.5 4V3Z" fill="black"/>
</svg>
