<svg width="15" height="15" viewBox="0 0 15 15" fill="none" xmlns="http://www.w3.org/2000/svg">
<path d="M0.5 7.5C0.5 11.366 3.63401 14.5 7.5 14.5C11.366 14.5 14.5 11.366 14.5 7.5C14.5 3.63401 11.366 0.5 7.5 0.5C3.63401 0.5 0.5 3.63401 0.5 7.5Z" stroke="black"/>
<path d="M3.5 7.5C3.5 9.70914 5.29086 11.5 7.5 11.5C9.70914 11.5 11.5 9.70914 11.5 7.5C11.5 5.29086 9.70914 3.5 7.5 3.5C5.29086 3.5 3.5 5.29086 3.5 7.5Z" stroke="black"/>
<path d="M6.5 7.5C6.5 8.05228 6.94772 8.5 7.5 8.5C8.05228 8.5 8.5 8.05228 8.5 7.5C8.5 6.94772 8.05228 6.5 7.5 6.5C6.94772 6.5 6.5 6.94772 6.5 7.5Z" stroke="black"/>
</svg>
