<svg width="15" height="15" viewBox="0 0 15 15" fill="none" xmlns="http://www.w3.org/2000/svg">
<path d="M3.5 5.5L3.07817 5.23156L3 5.3544V5.5H3.5ZM6.19761 1.26091L6.61944 1.52934L6.19761 1.26091ZM8.86455 2.7709L8.41734 2.5473V2.5473L8.86455 2.7709ZM7.5 5.5L7.05279 5.27639C6.97529 5.43139 6.98357 5.61546 7.07467 5.76287C7.16578 5.91027 7.32671 6 7.5 6V5.5ZM14.5 10.5L14.9 10.8L15 10.6667V10.5H14.5ZM12.1 13.7L12.5 14L12.1 13.7ZM8.28158 0.768947L8.53883 0.3402L8.53883 0.3402L8.28158 0.768947ZM0 5V15H1V5H0ZM3.92183 5.76844L6.61944 1.52934L5.77577 0.992469L3.07817 5.23156L3.92183 5.76844ZM8.41734 2.5473L7.05279 5.27639L7.94721 5.72361L9.31176 2.99451L8.41734 2.5473ZM7.5 6H12.5V5H7.5V6ZM14 7.5V10.5H15V7.5H14ZM14.1 10.2L11.7 13.4L12.5 14L14.9 10.8L14.1 10.2ZM10.5 14H5.5V15H10.5V14ZM4 12.5V5.5H3V12.5H4ZM12.5 6C13.3284 6 14 6.67157 14 7.5H15C15 6.11929 13.8807 5 12.5 5V6ZM5.5 14C4.67157 14 4 13.3284 4 12.5H3C3 13.8807 4.11929 15 5.5 15V14ZM8.02433 1.19769C8.48782 1.47579 8.65906 2.06384 8.41734 2.5473L9.31176 2.99451C9.78718 2.04369 9.45039 0.887137 8.53883 0.3402L8.02433 1.19769ZM11.7 13.4C11.4167 13.7777 10.9721 14 10.5 14V15C11.2869 15 12.0279 14.6295 12.5 14L11.7 13.4ZM6.61944 1.52934C6.92046 1.05631 7.54354 0.909221 8.02433 1.19769L8.53883 0.3402C7.59324 -0.227149 6.3678 0.0621401 5.77577 0.992469L6.61944 1.52934Z" fill="black"/>
</svg>
