<svg width="15" height="15" viewBox="0 0 15 15" fill="none" xmlns="http://www.w3.org/2000/svg">
<path d="M9.12132 4.12132L9.47487 3.76777V3.76777L9.12132 4.12132ZM5.5 7H9.5V6H5.5V7ZM10 7.5V10.5H11V7.5H10ZM9.5 11H5.5V12H9.5V11ZM5 10.5V7.5H4V10.5H5ZM5.5 11C5.22386 11 5 10.7761 5 10.5H4C4 11.3284 4.67157 12 5.5 12V11ZM10 10.5C10 10.7761 9.77614 11 9.5 11V12C10.3284 12 11 11.3284 11 10.5H10ZM9.5 7C9.77614 7 10 7.22386 10 7.5H11C11 6.67157 10.3284 6 9.5 6V7ZM5.5 6C4.67157 6 4 6.67157 4 7.5H5C5 7.22386 5.22386 7 5.5 7V6ZM6 6.5V5.62132H5V6.5H6ZM8.76777 4.47487L9.14645 4.85355L9.85355 4.14645L9.47487 3.76777L8.76777 4.47487ZM7.62132 4C8.05132 4 8.46371 4.17082 8.76777 4.47487L9.47487 3.76777C8.98328 3.27617 8.31654 3 7.62132 3V4ZM6 5.62132C6 4.72589 6.72589 4 7.62132 4V3C6.17361 3 5 4.1736 5 5.62132H6ZM7.5 14C3.91015 14 1 11.0899 1 7.5H0C0 11.6421 3.35786 15 7.5 15V14ZM14 7.5C14 11.0899 11.0899 14 7.5 14V15C11.6421 15 15 11.6421 15 7.5H14ZM7.5 1C11.0899 1 14 3.91015 14 7.5H15C15 3.35786 11.6421 0 7.5 0V1ZM7.5 0C3.35786 0 0 3.35786 0 7.5H1C1 3.91015 3.91015 1 7.5 1V0Z" fill="black"/>
</svg>
