<svg width="15" height="15" viewBox="0 0 15 15" fill="none" xmlns="http://www.w3.org/2000/svg">
<path d="M3 14.5V15H4V14.5H3ZM11 14.5V15H12V14.5H11ZM4 14.5V12.4995H3V14.5H4ZM6.5 10H8.5V9H6.5V10ZM11 12.4995V14.5H12V12.4995H11ZM8.5 10C9.88083 10 11 11.1189 11 12.4995H12C12 10.5664 10.4329 9 8.5 9V10ZM4 12.4995C4 11.1189 5.11917 10 6.5 10V9C4.56712 9 3 10.5664 3 12.4995H4ZM7.5 3C6.11929 3 5 4.11929 5 5.5H6C6 4.67157 6.67157 4 7.5 4V3ZM10 5.5C10 4.11929 8.88071 3 7.5 3V4C8.32843 4 9 4.67157 9 5.5H10ZM7.5 8C8.88071 8 10 6.88071 10 5.5H9C9 6.32843 8.32843 7 7.5 7V8ZM7.5 7C6.67157 7 6 6.32843 6 5.5H5C5 6.88071 6.11929 8 7.5 8V7ZM1.5 1H13.5V0H1.5V1ZM14 1.5V13.5H15V1.5H14ZM13.5 14H1.5V15H13.5V14ZM1 13.5V1.5H0V13.5H1ZM1.5 14C1.22386 14 1 13.7761 1 13.5H0C0 14.3284 0.671573 15 1.5 15V14ZM14 13.5C14 13.7761 13.7761 14 13.5 14V15C14.3284 15 15 14.3284 15 13.5H14ZM13.5 1C13.7761 1 14 1.22386 14 1.5H15C15 0.671573 14.3284 0 13.5 0V1ZM1.5 0C0.671573 0 0 0.671574 0 1.5H1C1 1.22386 1.22386 1 1.5 1V0Z" fill="black"/>
</svg>
