<svg width="15" height="15" viewBox="0 0 15 15" fill="none" xmlns="http://www.w3.org/2000/svg">
<path d="M10.5 14.4909V14.9909H11V14.4909H10.5ZM0.5 14.4909H0V14.9909H0.5L0.5 14.4909ZM7.5 9.49414L7.5 9.99414L7.5 9.49414ZM3.5 9.49414L3.5 8.99414L3.5 9.49414ZM8 3.49804C8 4.87751 6.88117 5.99609 5.5 5.99609V6.99609C7.43283 6.99609 9 5.43041 9 3.49804H8ZM5.5 5.99609C4.11883 5.99609 3 4.87751 3 3.49804H2C2 5.43041 3.56717 6.99609 5.5 6.99609V5.99609ZM3 3.49804C3 2.11857 4.11883 1 5.5 1V0C3.56717 0 2 1.56567 2 3.49804H3ZM5.5 1C6.88117 1 8 2.11857 8 3.49804H9C9 1.56567 7.43283 0 5.5 0V1ZM10.5 13.9909L0.5 13.9909L0.5 14.9909L10.5 14.9909V13.9909ZM1 14.4909C1 14.4895 1 14.4881 1 14.4867C1 14.4853 1 14.4839 1 14.4826C1 14.4812 1 14.4798 1 14.4784C1 14.477 1 14.4756 1 14.4742C1 14.4729 1 14.4715 1 14.4701C1 14.4687 1 14.4673 1 14.4659C1 14.4645 1 14.4632 1 14.4618C1 14.4604 1 14.459 1 14.4576C1 14.4562 1 14.4549 1 14.4535C1 14.4521 1 14.4507 1 14.4493C1 14.4479 1 14.4465 1 14.4452C1 14.4438 1 14.4424 1 14.441C1 14.4396 1 14.4382 1 14.4369C1 14.4355 1 14.4341 1 14.4327C1 14.4313 1 14.4299 1 14.4286C1 14.4272 1 14.4258 1 14.4244C1 14.423 1 14.4217 1 14.4203C1 14.4189 1 14.4175 1 14.4161C1 14.4147 1 14.4134 1 14.412C1 14.4106 1 14.4092 1 14.4078C1 14.4065 1 14.4051 1 14.4037C1 14.4023 1 14.4009 1 14.3995C1 14.3982 1 14.3968 1 14.3954C1 14.394 1 14.3926 1 14.3913C1 14.3899 1 14.3885 1 14.3871C1 14.3857 1 14.3844 1 14.383C1 14.3816 1 14.3802 1 14.3788C1 14.3775 1 14.3761 1 14.3747C1 14.3733 1 14.3719 1 14.3706C1 14.3692 1 14.3678 1 14.3664C1 14.3651 1 14.3637 1 14.3623C1 14.3609 1 14.3595 1 14.3582C1 14.3568 1 14.3554 1 14.354C1 14.3526 1 14.3513 1 14.3499C1 14.3485 1 14.3471 1 14.3458C1 14.3444 1 14.343 1 14.3416C1 14.3403 1 14.3389 1 14.3375C1 14.3361 1 14.3347 1 14.3334C1 14.332 1 14.3306 1 14.3292C1 14.3279 1 14.3265 1 14.3251C1 14.3237 1 14.3224 1 14.321C1 14.3196 1 14.3182 1 14.3169C1 14.3155 1 14.3141 1 14.3127C1 14.3114 1 14.31 1 14.3086C1 14.3072 1 14.3059 1 14.3045C1 14.3031 1 14.3017 1 14.3004C1 14.299 1 14.2976 1 14.2962C1 14.2949 1 14.2935 1 14.2921C1 14.2907 1 14.2894 1 14.288C1 14.2866 1 14.2852 1 14.2839C1 14.2825 1 14.2811 1 14.2798C1 14.2784 1 14.277 1 14.2756C1 14.2743 1 14.2729 1 14.2715C1 14.2702 1 14.2688 1 14.2674C1 14.266 1 14.2647 1 14.2633C1 14.2619 1 14.2605 1 14.2592C1 14.2578 1 14.2564 1 14.2551C1 14.2537 1 14.2523 1 14.2509C1 14.2496 1 14.2482 1 14.2468C1 14.2455 1 14.2441 1 14.2427C1 14.2414 1 14.24 1 14.2386C1 14.2372 1 14.2359 1 14.2345C1 14.2331 1 14.2318 1 14.2304C1 14.229 1 14.2277 1 14.2263C1 14.2249 1 14.2236 1 14.2222C1 14.2208 1 14.2194 1 14.2181C1 14.2167 1 14.2153 1 14.214C1 14.2126 1 14.2112 1 14.2099C1 14.2085 1 14.2071 1 14.2058C1 14.2044 1 14.203 1 14.2017C1 14.2003 1 14.1989 1 14.1976C1 14.1962 1 14.1948 1 14.1935C1 14.1921 1 14.1907 1 14.1894C1 14.188 1 14.1866 1 14.1853C1 14.1839 1 14.1825 1 14.1812C1 14.1798 1 14.1784 1 14.1771C1 14.1757 1 14.1743 1 14.173C1 14.1716 1 14.1702 1 14.1689C1 14.1675 1 14.1661 1 14.1648C1 14.1634 1 14.1621 1 14.1607C1 14.1593 1 14.158 1 14.1566C1 14.1552 1 14.1539 1 14.1525C1 14.1511 1 14.1498 1 14.1484C1 14.1471 1 14.1457 1 14.1443C1 14.143 1 14.1416 1 14.1402C1 14.1389 1 14.1375 1 14.1361C1 14.1348 1 14.1334 1 14.1321C1 14.1307 1 14.1293 1 14.128C1 14.1266 1 14.1253 1 14.1239C1 14.1225 1 14.1212 1 14.1198C1 14.1184 1 14.1171 1 14.1157C1 14.1144 1 14.113 1 14.1116C1 14.1103 1 14.1089 1 14.1076C1 14.1062 1 14.1048 1 14.1035C1 14.1021 1 14.1008 1 14.0994C1 14.098 1 14.0967 1 14.0953C1 14.094 1 14.0926 1 14.0912C1 14.0899 1 14.0885 1 14.0872C1 14.0858 1 14.0844 1 14.0831C1 14.0817 1 14.0804 1 14.079C1 14.0777 1 14.0763 1 14.0749C1 14.0736 1 14.0722 1 14.0709C1 14.0695 1 14.0681 1 14.0668C1 14.0654 1 14.0641 1 14.0627C1 14.0614 1 14.06 1 14.0586C1 14.0573 1 14.0559 1 14.0546C1 14.0532 1 14.0519 1 14.0505C1 14.0492 1 14.0478 1 14.0464C1 14.0451 1 14.0437 1 14.0424C1 14.041 1 14.0397 1 14.0383C1 14.037 1 14.0356 1 14.0342C1 14.0329 1 14.0315 1 14.0302C1 14.0288 1 14.0275 1 14.0261C1 14.0248 1 14.0234 1 14.0221C1 14.0207 1 14.0193 1 14.018C1 14.0166 1 14.0153 1 14.0139C1 14.0126 1 14.0112 1 14.0099C1 14.0085 1 14.0072 1 14.0058C1 14.0045 1 14.0031 1 14.0018C1 14.0004 1 13.9991 1 13.9977C1 13.9963 1 13.995 1 13.9936C1 13.9923 1 13.9909 1 13.9896C1 13.9882 1 13.9869 1 13.9855C1 13.9842 1 13.9828 1 13.9815C1 13.9801 1 13.9788 1 13.9774C1 13.9761 1 13.9747 1 13.9734C1 13.972 1 13.9707 1 13.9693C1 13.968 1 13.9666 1 13.9653C1 13.9639 1 13.9626 1 13.9612C1 13.9599 1 13.9585 1 13.9572C1 13.9558 1 13.9545 1 13.9531C1 13.9518 1 13.9504 1 13.9491C1 13.9477 1 13.9464 1 13.9451C1 13.9437 1 13.9424 1 13.941C1 13.9397 1 13.9383 1 13.937C1 13.9356 1 13.9343 1 13.9329C1 13.9316 1 13.9302 1 13.9289C1 13.9275 1 13.9262 1 13.9248C1 13.9235 1 13.9222 1 13.9208C1 13.9195 1 13.9181 1 13.9168C1 13.9154 1 13.9141 1 13.9127C1 13.9114 1 13.91 1 13.9087C1 13.9074 1 13.906 1 13.9047C1 13.9033 1 13.902 1 13.9006C1 13.8993 1 13.8979 1 13.8966C1 13.8953 1 13.8939 1 13.8926C1 13.8912 1 13.8899 1 13.8885C1 13.8872 1 13.8858 1 13.8845C1 13.8832 1 13.8818 1 13.8805C1 13.8791 1 13.8778 1 13.8764C1 13.8751 1 13.8738 1 13.8724C1 13.8711 1 13.8697 1 13.8684C1 13.8671 1 13.8657 1 13.8644C1 13.863 1 13.8617 1 13.8603C1 13.859 1 13.8577 1 13.8563C1 13.855 1 13.8536 1 13.8523C1 13.851 1 13.8496 1 13.8483C1 13.8469 1 13.8456 1 13.8443C1 13.8429 1 13.8416 1 13.8402C1 13.8389 1 13.8376 1 13.8362C1 13.8349 1 13.8335 1 13.8322C1 13.8309 1 13.8295 1 13.8282C1 13.8269 1 13.8255 1 13.8242C1 13.8228 1 13.8215 1 13.8202C1 13.8188 1 13.8175 1 13.8162C1 13.8148 1 13.8135 1 13.8121C1 13.8108 1 13.8095 1 13.8081C1 13.8068 1 13.8055 1 13.8041C1 13.8028 1 13.8014 1 13.8001C1 13.7988 1 13.7974 1 13.7961C1 13.7948 1 13.7934 1 13.7921C1 13.7908 1 13.7894 1 13.7881C1 13.7868 1 13.7854 1 13.7841C1 13.7828 1 13.7814 1 13.7801C1 13.7788 1 13.7774 1 13.7761C1 13.7747 1 13.7734 1 13.7721C1 13.7707 1 13.7694 1 13.7681C1 13.7667 1 13.7654 1 13.7641C1 13.7627 1 13.7614 1 13.7601C1 13.7588 1 13.7574 1 13.7561C1 13.7548 1 13.7534 1 13.7521C1 13.7508 1 13.7494 1 13.7481C1 13.7468 1 13.7454 1 13.7441C1 13.7428 1 13.7414 1 13.7401C1 13.7388 1 13.7374 1 13.7361C1 13.7348 1 13.7335 1 13.7321C1 13.7308 1 13.7295 1 13.7281C1 13.7268 1 13.7255 1 13.7241C1 13.7228 1 13.7215 1 13.7202C1 13.7188 1 13.7175 1 13.7162C1 13.7148 1 13.7135 1 13.7122C1 13.7109 1 13.7095 1 13.7082C1 13.7069 1 13.7055 1 13.7042C1 13.7029 1 13.7016 1 13.7002C1 13.6989 1 13.6976 1 13.6962C1 13.6949 1 13.6936 1 13.6923C1 13.6909 1 13.6896 1 13.6883C1 13.687 1 13.6856 1 13.6843C1 13.683 1 13.6817 1 13.6803C1 13.679 1 13.6777 1 13.6764C1 13.675 1 13.6737 1 13.6724C1 13.6711 1 13.6697 1 13.6684C1 13.6671 1 13.6658 1 13.6644C1 13.6631 1 13.6618 1 13.6605C1 13.6591 1 13.6578 1 13.6565C1 13.6552 1 13.6538 1 13.6525C1 13.6512 1 13.6499 1 13.6485C1 13.6472 1 13.6459 1 13.6446C1 13.6433 1 13.6419 1 13.6406C1 13.6393 1 13.638 1 13.6366C1 13.6353 1 13.634 1 13.6327C1 13.6314 1 13.63 1 13.6287C1 13.6274 1 13.6261 1 13.6248C1 13.6234 1 13.6221 1 13.6208C1 13.6195 1 13.6182 1 13.6168C1 13.6155 1 13.6142 1 13.6129C1 13.6116 1 13.6102 1 13.6089C1 13.6076 1 13.6063 1 13.605C1 13.6036 1 13.6023 1 13.601C1 13.5997 1 13.5984 1 13.597C1 13.5957 1 13.5944 1 13.5931C1 13.5918 1 13.5905 1 13.5891C1 13.5878 1 13.5865 1 13.5852C1 13.5839 1 13.5826 1 13.5812C1 13.5799 1 13.5786 1 13.5773C1 13.576 1 13.5747 1 13.5733C1 13.572 1 13.5707 1 13.5694C1 13.5681 1 13.5668 1 13.5654C1 13.5641 1 13.5628 1 13.5615C1 13.5602 1 13.5589 1 13.5576C1 13.5562 1 13.5549 1 13.5536C1 13.5523 1 13.551 1 13.5497C1 13.5484 1 13.547 1 13.5457C1 13.5444 1 13.5431 1 13.5418C1 13.5405 1 13.5392 1 13.5378C1 13.5365 1 13.5352 1 13.5339C1 13.5326 1 13.5313 1 13.53C1 13.5287 1 13.5273 1 13.526C1 13.5247 1 13.5234 1 13.5221C1 13.5208 1 13.5195 1 13.5182C1 13.5169 1 13.5155 1 13.5142C1 13.5129 1 13.5116 1 13.5103C1 13.509 1 13.5077 1 13.5064C1 13.5051 1 13.5038 1 13.5024C1 13.5011 1 13.4998 1 13.4985C1 13.4972 1 13.4959 1 13.4946C1 13.4933 1 13.492 1 13.4907C1 13.4894 1 13.488 1 13.4867C1 13.4854 1 13.4841 1 13.4828C1 13.4815 1 13.4802 1 13.4789C1 13.4776 1 13.4763 1 13.475C1 13.4737 1 13.4724 1 13.471C1 13.4697 1 13.4684 1 13.4671C1 13.4658 1 13.4645 1 13.4632C1 13.4619 1 13.4606 1 13.4593C1 13.458 1 13.4567 1 13.4554C1 13.4541 1 13.4528 1 13.4515C1 13.4502 1 13.4489 1 13.4476C1 13.4462 1 13.4449 1 13.4436C1 13.4423 1 13.441 1 13.4397C1 13.4384 1 13.4371 1 13.4358C1 13.4345 1 13.4332 1 13.4319C1 13.4306 1 13.4293 1 13.428C1 13.4267 1 13.4254 1 13.4241C1 13.4228 1 13.4215 1 13.4202C1 13.4189 1 13.4176 1 13.4163C1 13.415 1 13.4137 1 13.4124C1 13.4111 1 13.4098 1 13.4085C1 13.4072 1 13.4059 1 13.4046C1 13.4033 1 13.402 1 13.4007C1 13.3994 1 13.3981 1 13.3968C1 13.3955 1 13.3942 1 13.3929C1 13.3916 1 13.3903 1 13.389C1 13.3877 1 13.3864 1 13.3851C1 13.3838 1 13.3825 1 13.3812C1 13.3799 1 13.3786 1 13.3773C1 13.376 1 13.3747 1 13.3734C1 13.3721 1 13.3708 1 13.3695C1 13.3682 1 13.3669 1 13.3656C1 13.3643 1 13.363 1 13.3617C1 13.3604 1 13.3592 1 13.3579C1 13.3566 1 13.3553 1 13.354C1 13.3527 1 13.3514 1 13.3501C1 13.3488 1 13.3475 1 13.3462C1 13.3449 1 13.3436 1 13.3423C1 13.341 1 13.3397 1 13.3384C1 13.3371 1 13.3358 1 13.3346C1 13.3333 1 13.332 1 13.3307C1 13.3294 1 13.3281 1 13.3268C1 13.3255 1 13.3242 1 13.3229C1 13.3216 1 13.3203 1 13.319C1 13.3178 1 13.3165 1 13.3152C1 13.3139 1 13.3126 1 13.3113C1 13.31 1 13.3087 1 13.3074C1 13.3061 1 13.3048 1 13.3036C1 13.3023 1 13.301 1 13.2997C1 13.2984 1 13.2971 1 13.2958C1 13.2945 1 13.2932 1 13.292C1 13.2907 1 13.2894 1 13.2881C1 13.2868 1 13.2855 1 13.2842C1 13.2829 1 13.2816 1 13.2804C1 13.2791 1 13.2778 1 13.2765C1 13.2752 1 13.2739 1 13.2726C1 13.2713 1 13.2701 1 13.2688C1 13.2675 1 13.2662 1 13.2649C1 13.2636 1 13.2623 1 13.2611C1 13.2598 1 13.2585 1 13.2572C1 13.2559 1 13.2546 1 13.2533C1 13.2521 1 13.2508 1 13.2495C1 13.2482 1 13.2469 1 13.2456C1 13.2444 1 13.2431 1 13.2418C1 13.2405 1 13.2392 1 13.2379C1 13.2366 1 13.2354 1 13.2341C1 13.2328 1 13.2315 1 13.2302C1 13.229 1 13.2277 1 13.2264C1 13.2251 1 13.2238 1 13.2225C1 13.2213 1 13.22 1 13.2187C1 13.2174 1 13.2161 1 13.2149C1 13.2136 1 13.2123 1 13.211C1 13.2097 1 13.2085 1 13.2072C1 13.2059 1 13.2046 1 13.2033C1 13.2021 1 13.2008 1 13.1995C1 13.1982 1 13.1969 1 13.1957C1 13.1944 1 13.1931 1 13.1918C1 13.1905 1 13.1893 1 13.188C1 13.1867 1 13.1854 1 13.1841C1 13.1829 1 13.1816 1 13.1803C1 13.179 1 13.1778 1 13.1765C1 13.1752 1 13.1739 1 13.1727C1 13.1714 1 13.1701 1 13.1688C1 13.1676 1 13.1663 1 13.165C1 13.1637 1 13.1624 1 13.1612C1 13.1599 1 13.1586 1 13.1573C1 13.1561 1 13.1548 1 13.1535C1 13.1522 1 13.151 1 13.1497C1 13.1484 1 13.1472 1 13.1459C1 13.1446 1 13.1433 1 13.1421C1 13.1408 1 13.1395 1 13.1382C1 13.137 1 13.1357 1 13.1344C1 13.1331 1 13.1319 1 13.1306C1 13.1293 1 13.1281 1 13.1268C1 13.1255 1 13.1242 1 13.123C1 13.1217 1 13.1204 1 13.1192C1 13.1179 1 13.1166 1 13.1154C1 13.1141 1 13.1128 1 13.1115C1 13.1103 1 13.109 1 13.1077C1 13.1065 1 13.1052 1 13.1039C1 13.1027 1 13.1014 1 13.1001C1 13.0988 1 13.0976 1 13.0963C1 13.095 1 13.0938 1 13.0925C1 13.0912 1 13.09 1 13.0887C1 13.0874 1 13.0862 1 13.0849C1 13.0836 1 13.0824 1 13.0811C1 13.0798 1 13.0786 1 13.0773C1 13.076 1 13.0748 1 13.0735C1 13.0722 1 13.071 1 13.0697C1 13.0684 1 13.0672 1 13.0659C1 13.0646 1 13.0634 1 13.0621C1 13.0609 1 13.0596 1 13.0583C1 13.0571 1 13.0558 1 13.0545C1 13.0533 1 13.052 1 13.0507C1 13.0495 1 13.0482 1 13.047C1 13.0457 1 13.0444 1 13.0432C1 13.0419 1 13.0406 1 13.0394C1 13.0381 1 13.0369 1 13.0356C1 13.0343 1 13.0331 1 13.0318C1 13.0305 1 13.0293 1 13.028C1 13.0268 1 13.0255 1 13.0242C1 13.023 1 13.0217 1 13.0205C1 13.0192 1 13.0179 1 13.0167C1 13.0154 1 13.0142 1 13.0129C1 13.0116 1 13.0104 1 13.0091C1 13.0079 1 13.0066 1 13.0054C1 13.0041 1 13.0028 1 13.0016C1 13.0003 1 12.9991 1 12.9978C1 12.9966 1 12.9953 1 12.994C1 12.9928 1 12.9915 1 12.9903C1 12.989 1 12.9878 1 12.9865C1 12.9852 1 12.984 1 12.9827C1 12.9815 1 12.9802 1 12.979C1 12.9777 1 12.9765 1 12.9752C1 12.9739 1 12.9727 1 12.9714C1 12.9702 1 12.9689 1 12.9677C1 12.9664 1 12.9652 1 12.9639C1 12.9627 1 12.9614 1 12.9602C1 12.9589 1 12.9576 1 12.9564C1 12.9551 1 12.9539 1 12.9526C1 12.9514 1 12.9501 1 12.9489C1 12.9476 1 12.9464 1 12.9451C1 12.9439 1 12.9426 1 12.9414C1 12.9401 1 12.9389 1 12.9376C1 12.9364 1 12.9351 1 12.9339C1 12.9326 1 12.9314 1 12.9301C1 12.9289 1 12.9276 1 12.9264C1 12.9251 1 12.9239 1 12.9226C1 12.9214 1 12.9201 1 12.9189C1 12.9176 1 12.9164 1 12.9151C1 12.9139 1 12.9126 1 12.9114C1 12.9101 1 12.9089 1 12.9077C1 12.9064 1 12.9052 1 12.9039C1 12.9027 1 12.9014 1 12.9002C1 12.8989 1 12.8977 1 12.8964C1 12.8952 1 12.8939 1 12.8927C1 12.8915 1 12.8902 1 12.889C1 12.8877 1 12.8865 1 12.8852C1 12.884 1 12.8827 1 12.8815C1 12.8803 1 12.879 1 12.8778C1 12.8765 1 12.8753 1 12.874C1 12.8728 1 12.8716 1 12.8703C1 12.8691 1 12.8678 1 12.8666C1 12.8653 1 12.8641 1 12.8629C1 12.8616 1 12.8604 1 12.8591C1 12.8579 1 12.8567 1 12.8554C1 12.8542 1 12.8529 1 12.8517C1 12.8504 1 12.8492 1 12.848C1 12.8467 1 12.8455 1 12.8442C1 12.843 1 12.8418 1 12.8405C1 12.8393 1 12.8381 1 12.8368C1 12.8356 1 12.8343 1 12.8331C1 12.8319 1 12.8306 1 12.8294C1 12.8281 1 12.8269 1 12.8257C1 12.8244 1 12.8232 1 12.822C1 12.8207 1 12.8195 1 12.8183C1 12.817 1 12.8158 1 12.8145C1 12.8133 1 12.8121 1 12.8108C1 12.8096 1 12.8084 1 12.8071C1 12.8059 1 12.8047 1 12.8034C1 12.8022 1 12.801 1 12.7997C1 12.7985 1 12.7973 1 12.796C1 12.7948 1 12.7936 1 12.7923C1 12.7911 1 12.7899 1 12.7886C1 12.7874 1 12.7862 1 12.7849C1 12.7837 1 12.7825 1 12.7812C1 12.78 1 12.7788 1 12.7775C1 12.7763 1 12.7751 1 12.7738C1 12.7726 1 12.7714 1 12.7702C1 12.7689 1 12.7677 1 12.7665C1 12.7652 1 12.764 1 12.7628C1 12.7615 1 12.7603 1 12.7591C1 12.7579 1 12.7566 1 12.7554C1 12.7542 1 12.7529 1 12.7517C1 12.7505 1 12.7493 1 12.748C1 12.7468 1 12.7456 1 12.7443C1 12.7431 1 12.7419 1 12.7407C1 12.7394 1 12.7382 1 12.737C1 12.7358 1 12.7345 1 12.7333C1 12.7321 1 12.7309 1 12.7296C1 12.7284 1 12.7272 1 12.726C1 12.7247 1 12.7235 1 12.7223C1 12.7211 1 12.7198 1 12.7186C1 12.7174 1 12.7162 1 12.7149C1 12.7137 1 12.7125 1 12.7113C1 12.71 1 12.7088 1 12.7076C1 12.7064 1 12.7051 1 12.7039C1 12.7027 1 12.7015 1 12.7003C1 12.699 1 12.6978 1 12.6966C1 12.6954 1 12.6942 1 12.6929C1 12.6917 1 12.6905 1 12.6893C1 12.6881 1 12.6868 1 12.6856C1 12.6844 1 12.6832 1 12.682C1 12.6807 1 12.6795 1 12.6783C1 12.6771 1 12.6759 1 12.6746C1 12.6734 1 12.6722 1 12.671C1 12.6698 1 12.6685 1 12.6673C1 12.6661 1 12.6649 1 12.6637C1 12.6625 1 12.6612 1 12.66C1 12.6588 1 12.6576 1 12.6564C1 12.6552 1 12.6539 1 12.6527C1 12.6515 1 12.6503 1 12.6491C1 12.6479 1 12.6467 1 12.6454C1 12.6442 1 12.643 1 12.6418C1 12.6406 1 12.6394 1 12.6382C1 12.6369 1 12.6357 1 12.6345C1 12.6333 1 12.6321 1 12.6309C1 12.6297 1 12.6284 1 12.6272C1 12.626 1 12.6248 1 12.6236C1 12.6224 1 12.6212 1 12.62C1 12.6187 1 12.6175 1 12.6163C1 12.6151 1 12.6139 1 12.6127C1 12.6115 1 12.6103 1 12.6091C1 12.6079 1 12.6066 1 12.6054C1 12.6042 1 12.603 1 12.6018C1 12.6006 1 12.5994 1 12.5982C1 12.597 1 12.5958 1 12.5946C1 12.5933 1 12.5921 1 12.5909C1 12.5897 1 12.5885 1 12.5873C1 12.5861 1 12.5849 1 12.5837C1 12.5825 1 12.5813 1 12.5801C1 12.5789 1 12.5777 1 12.5764C1 12.5752 1 12.574 1 12.5728C1 12.5716 1 12.5704 1 12.5692C1 12.568 1 12.5668 1 12.5656C1 12.5644 1 12.5632 1 12.562C1 12.5608 1 12.5596 1 12.5584C1 12.5572 1 12.556 1 12.5548C1 12.5536 1 12.5524 1 12.5512C1 12.55 1 12.5488 1 12.5476C1 12.5464 1 12.5451 1 12.5439C1 12.5427 1 12.5415 1 12.5403C1 12.5391 1 12.5379 1 12.5367C1 12.5355 1 12.5343 1 12.5331C1 12.5319 1 12.5307 1 12.5295C1 12.5283 1 12.5271 1 12.5259C1 12.5247 1 12.5235 1 12.5223C1 12.5211 1 12.5199 1 12.5188C1 12.5176 1 12.5164 1 12.5152C1 12.514 1 12.5128 1 12.5116C1 12.5104 1 12.5092 1 12.508C1 12.5068 1 12.5056 1 12.5044C1 12.5032 1 12.502 1 12.5008C1 12.4996 1 12.4984 1 12.4972C1 12.496 1 12.4948 1 12.4936H0C0 12.4948 0 12.496 0 12.4972C0 12.4984 0 12.4996 0 12.5008C0 12.502 0 12.5032 0 12.5044C0 12.5056 0 12.5068 0 12.508C0 12.5092 0 12.5104 0 12.5116C0 12.5128 0 12.514 0 12.5152C0 12.5164 0 12.5176 0 12.5188C0 12.5199 0 12.5211 0 12.5223C0 12.5235 0 12.5247 0 12.5259C0 12.5271 0 12.5283 0 12.5295C0 12.5307 0 12.5319 0 12.5331C0 12.5343 0 12.5355 0 12.5367C0 12.5379 0 12.5391 0 12.5403C0 12.5415 0 12.5427 0 12.5439C0 12.5451 0 12.5464 0 12.5476C0 12.5488 0 12.55 0 12.5512C0 12.5524 0 12.5536 0 12.5548C0 12.556 0 12.5572 0 12.5584C0 12.5596 0 12.5608 0 12.562C0 12.5632 0 12.5644 0 12.5656C0 12.5668 0 12.568 0 12.5692C0 12.5704 0 12.5716 0 12.5728C0 12.574 0 12.5752 0 12.5764C0 12.5777 0 12.5789 0 12.5801C0 12.5813 0 12.5825 0 12.5837C0 12.5849 0 12.5861 0 12.5873C0 12.5885 0 12.5897 0 12.5909C0 12.5921 0 12.5933 0 12.5946C0 12.5958 0 12.597 0 12.5982C0 12.5994 0 12.6006 0 12.6018C0 12.603 0 12.6042 0 12.6054C0 12.6066 0 12.6079 0 12.6091C0 12.6103 0 12.6115 0 12.6127C0 12.6139 0 12.6151 0 12.6163C0 12.6175 0 12.6187 0 12.62C0 12.6212 0 12.6224 0 12.6236C0 12.6248 0 12.626 0 12.6272C0 12.6284 0 12.6297 0 12.6309C0 12.6321 0 12.6333 0 12.6345C0 12.6357 0 12.6369 0 12.6382C0 12.6394 0 12.6406 0 12.6418C0 12.643 0 12.6442 0 12.6454C0 12.6467 0 12.6479 0 12.6491C0 12.6503 0 12.6515 0 12.6527C0 12.6539 0 12.6552 0 12.6564C0 12.6576 0 12.6588 0 12.66C0 12.6612 0 12.6625 0 12.6637C0 12.6649 0 12.6661 0 12.6673C0 12.6685 0 12.6698 0 12.671C0 12.6722 0 12.6734 0 12.6746C0 12.6759 0 12.6771 0 12.6783C0 12.6795 0 12.6807 0 12.682C0 12.6832 0 12.6844 0 12.6856C0 12.6868 0 12.6881 0 12.6893C0 12.6905 0 12.6917 0 12.6929C0 12.6942 0 12.6954 0 12.6966C0 12.6978 0 12.699 0 12.7003C0 12.7015 0 12.7027 0 12.7039C0 12.7051 0 12.7064 0 12.7076C0 12.7088 0 12.71 0 12.7113C0 12.7125 0 12.7137 0 12.7149C0 12.7162 0 12.7174 0 12.7186C0 12.7198 0 12.7211 0 12.7223C0 12.7235 0 12.7247 0 12.726C0 12.7272 0 12.7284 0 12.7296C0 12.7309 0 12.7321 0 12.7333C0 12.7345 0 12.7358 0 12.737C0 12.7382 0 12.7394 0 12.7407C0 12.7419 0 12.7431 0 12.7443C0 12.7456 0 12.7468 0 12.748C0 12.7493 0 12.7505 0 12.7517C0 12.7529 0 12.7542 0 12.7554C0 12.7566 0 12.7579 0 12.7591C0 12.7603 0 12.7615 0 12.7628C0 12.764 0 12.7652 0 12.7665C0 12.7677 0 12.7689 0 12.7702C0 12.7714 0 12.7726 0 12.7738C0 12.7751 0 12.7763 0 12.7775C0 12.7788 0 12.78 0 12.7812C0 12.7825 0 12.7837 0 12.7849C0 12.7862 0 12.7874 0 12.7886C0 12.7899 0 12.7911 0 12.7923C0 12.7936 0 12.7948 0 12.796C0 12.7973 0 12.7985 0 12.7997C0 12.801 0 12.8022 0 12.8034C0 12.8047 0 12.8059 0 12.8071C0 12.8084 0 12.8096 0 12.8108C0 12.8121 0 12.8133 0 12.8145C0 12.8158 0 12.817 0 12.8183C0 12.8195 0 12.8207 0 12.822C0 12.8232 0 12.8244 0 12.8257C0 12.8269 0 12.8281 0 12.8294C0 12.8306 0 12.8319 0 12.8331C0 12.8343 0 12.8356 0 12.8368C0 12.8381 0 12.8393 0 12.8405C0 12.8418 0 12.843 0 12.8442C0 12.8455 0 12.8467 0 12.848C0 12.8492 0 12.8504 0 12.8517C0 12.8529 0 12.8542 0 12.8554C0 12.8567 0 12.8579 0 12.8591C0 12.8604 0 12.8616 0 12.8629C0 12.8641 0 12.8653 0 12.8666C0 12.8678 0 12.8691 0 12.8703C0 12.8716 0 12.8728 0 12.874C0 12.8753 0 12.8765 0 12.8778C0 12.879 0 12.8803 0 12.8815C0 12.8827 0 12.884 0 12.8852C0 12.8865 0 12.8877 0 12.889C0 12.8902 0 12.8915 0 12.8927C0 12.8939 0 12.8952 0 12.8964C0 12.8977 0 12.8989 0 12.9002C0 12.9014 0 12.9027 0 12.9039C0 12.9052 0 12.9064 0 12.9077C0 12.9089 0 12.9101 0 12.9114C0 12.9126 0 12.9139 0 12.9151C0 12.9164 0 12.9176 0 12.9189C0 12.9201 0 12.9214 0 12.9226C0 12.9239 0 12.9251 0 12.9264C0 12.9276 0 12.9289 0 12.9301C0 12.9314 0 12.9326 0 12.9339C0 12.9351 0 12.9364 0 12.9376C0 12.9389 0 12.9401 0 12.9414C0 12.9426 0 12.9439 0 12.9451C0 12.9464 0 12.9476 0 12.9489C0 12.9501 0 12.9514 0 12.9526C0 12.9539 0 12.9551 0 12.9564C0 12.9576 0 12.9589 0 12.9602C0 12.9614 0 12.9627 0 12.9639C0 12.9652 0 12.9664 0 12.9677C0 12.9689 0 12.9702 0 12.9714C0 12.9727 0 12.9739 0 12.9752C0 12.9765 0 12.9777 0 12.979C0 12.9802 0 12.9815 0 12.9827C0 12.984 0 12.9852 0 12.9865C0 12.9878 0 12.989 0 12.9903C0 12.9915 0 12.9928 0 12.994C0 12.9953 0 12.9966 0 12.9978C0 12.9991 0 13.0003 0 13.0016C0 13.0028 0 13.0041 0 13.0054C0 13.0066 0 13.0079 0 13.0091C0 13.0104 0 13.0116 0 13.0129C0 13.0142 0 13.0154 0 13.0167C0 13.0179 0 13.0192 0 13.0205C0 13.0217 0 13.023 0 13.0242C0 13.0255 0 13.0268 0 13.028C0 13.0293 0 13.0305 0 13.0318C0 13.0331 0 13.0343 0 13.0356C0 13.0369 0 13.0381 0 13.0394C0 13.0406 0 13.0419 0 13.0432C0 13.0444 0 13.0457 0 13.047C0 13.0482 0 13.0495 0 13.0507C0 13.052 0 13.0533 0 13.0545C0 13.0558 0 13.0571 0 13.0583C0 13.0596 0 13.0609 0 13.0621C0 13.0634 0 13.0646 0 13.0659C0 13.0672 0 13.0684 0 13.0697C0 13.071 0 13.0722 0 13.0735C0 13.0748 0 13.076 0 13.0773C0 13.0786 0 13.0798 0 13.0811C0 13.0824 0 13.0836 0 13.0849C0 13.0862 0 13.0874 0 13.0887C0 13.09 0 13.0912 0 13.0925C0 13.0938 0 13.095 0 13.0963C0 13.0976 0 13.0988 0 13.1001C0 13.1014 0 13.1027 0 13.1039C0 13.1052 0 13.1065 0 13.1077C0 13.109 0 13.1103 0 13.1115C0 13.1128 0 13.1141 0 13.1154C0 13.1166 0 13.1179 0 13.1192C0 13.1204 0 13.1217 0 13.123C0 13.1242 0 13.1255 0 13.1268C0 13.1281 0 13.1293 0 13.1306C0 13.1319 0 13.1331 0 13.1344C0 13.1357 0 13.137 0 13.1382C0 13.1395 0 13.1408 0 13.1421C0 13.1433 0 13.1446 0 13.1459C0 13.1472 0 13.1484 0 13.1497C0 13.151 0 13.1522 0 13.1535C0 13.1548 0 13.1561 0 13.1573C0 13.1586 0 13.1599 0 13.1612C0 13.1624 0 13.1637 0 13.165C0 13.1663 0 13.1676 0 13.1688C0 13.1701 0 13.1714 0 13.1727C0 13.1739 0 13.1752 0 13.1765C0 13.1778 0 13.179 0 13.1803C0 13.1816 0 13.1829 0 13.1841C0 13.1854 0 13.1867 0 13.188C0 13.1893 0 13.1905 0 13.1918C0 13.1931 0 13.1944 0 13.1957C0 13.1969 0 13.1982 0 13.1995C0 13.2008 0 13.2021 0 13.2033C0 13.2046 0 13.2059 0 13.2072C0 13.2085 0 13.2097 0 13.211C0 13.2123 0 13.2136 0 13.2149C0 13.2161 0 13.2174 0 13.2187C0 13.22 0 13.2213 0 13.2225C0 13.2238 0 13.2251 0 13.2264C0 13.2277 0 13.229 0 13.2302C0 13.2315 0 13.2328 0 13.2341C0 13.2354 0 13.2366 0 13.2379C0 13.2392 0 13.2405 0 13.2418C0 13.2431 0 13.2444 0 13.2456C0 13.2469 0 13.2482 0 13.2495C0 13.2508 0 13.2521 0 13.2533C0 13.2546 0 13.2559 0 13.2572C0 13.2585 0 13.2598 0 13.2611C0 13.2623 0 13.2636 0 13.2649C0 13.2662 0 13.2675 0 13.2688C0 13.2701 0 13.2713 0 13.2726C0 13.2739 0 13.2752 0 13.2765C0 13.2778 0 13.2791 0 13.2804C0 13.2816 0 13.2829 0 13.2842C0 13.2855 0 13.2868 0 13.2881C0 13.2894 0 13.2907 0 13.292C0 13.2932 0 13.2945 0 13.2958C0 13.2971 0 13.2984 0 13.2997C0 13.301 0 13.3023 0 13.3036C0 13.3048 0 13.3061 0 13.3074C0 13.3087 0 13.31 0 13.3113C0 13.3126 0 13.3139 0 13.3152C0 13.3165 0 13.3178 0 13.319C0 13.3203 0 13.3216 0 13.3229C0 13.3242 0 13.3255 0 13.3268C0 13.3281 0 13.3294 0 13.3307C0 13.332 0 13.3333 0 13.3346C0 13.3358 0 13.3371 0 13.3384C0 13.3397 0 13.341 0 13.3423C0 13.3436 0 13.3449 0 13.3462C0 13.3475 0 13.3488 0 13.3501C0 13.3514 0 13.3527 0 13.354C0 13.3553 0 13.3566 0 13.3579C0 13.3592 0 13.3604 0 13.3617C0 13.363 0 13.3643 0 13.3656C0 13.3669 0 13.3682 0 13.3695C0 13.3708 0 13.3721 0 13.3734C0 13.3747 0 13.376 0 13.3773C0 13.3786 0 13.3799 0 13.3812C0 13.3825 0 13.3838 0 13.3851C0 13.3864 0 13.3877 0 13.389C0 13.3903 0 13.3916 0 13.3929C0 13.3942 0 13.3955 0 13.3968C0 13.3981 0 13.3994 0 13.4007C0 13.402 0 13.4033 0 13.4046C0 13.4059 0 13.4072 0 13.4085C0 13.4098 0 13.4111 0 13.4124C0 13.4137 0 13.415 0 13.4163C0 13.4176 0 13.4189 0 13.4202C0 13.4215 0 13.4228 0 13.4241C0 13.4254 0 13.4267 0 13.428C0 13.4293 0 13.4306 0 13.4319C0 13.4332 0 13.4345 0 13.4358C0 13.4371 0 13.4384 0 13.4397C0 13.441 0 13.4423 0 13.4436C0 13.4449 0 13.4462 0 13.4476C0 13.4489 0 13.4502 0 13.4515C0 13.4528 0 13.4541 0 13.4554C0 13.4567 0 13.458 0 13.4593C0 13.4606 0 13.4619 0 13.4632C0 13.4645 0 13.4658 0 13.4671C0 13.4684 0 13.4697 0 13.471C0 13.4724 0 13.4737 0 13.475C0 13.4763 0 13.4776 0 13.4789C0 13.4802 0 13.4815 0 13.4828C0 13.4841 0 13.4854 0 13.4867C0 13.488 0 13.4894 0 13.4907C0 13.492 0 13.4933 0 13.4946C0 13.4959 0 13.4972 0 13.4985C0 13.4998 0 13.5011 0 13.5024C0 13.5038 0 13.5051 0 13.5064C0 13.5077 0 13.509 0 13.5103C0 13.5116 0 13.5129 0 13.5142C0 13.5155 0 13.5169 0 13.5182C0 13.5195 0 13.5208 0 13.5221C0 13.5234 0 13.5247 0 13.526C0 13.5273 0 13.5287 0 13.53C0 13.5313 0 13.5326 0 13.5339C0 13.5352 0 13.5365 0 13.5378C0 13.5392 0 13.5405 0 13.5418C0 13.5431 0 13.5444 0 13.5457C0 13.547 0 13.5484 0 13.5497C0 13.551 0 13.5523 0 13.5536C0 13.5549 0 13.5562 0 13.5576C0 13.5589 0 13.5602 0 13.5615C0 13.5628 0 13.5641 0 13.5654C0 13.5668 0 13.5681 0 13.5694C0 13.5707 0 13.572 0 13.5733C0 13.5747 0 13.576 0 13.5773C0 13.5786 0 13.5799 0 13.5812C0 13.5826 0 13.5839 0 13.5852C0 13.5865 0 13.5878 0 13.5891C0 13.5905 0 13.5918 0 13.5931C0 13.5944 0 13.5957 0 13.597C0 13.5984 0 13.5997 0 13.601C0 13.6023 0 13.6036 0 13.605C0 13.6063 0 13.6076 0 13.6089C0 13.6102 0 13.6116 0 13.6129C0 13.6142 0 13.6155 0 13.6168C0 13.6182 0 13.6195 0 13.6208C0 13.6221 0 13.6234 0 13.6248C0 13.6261 0 13.6274 0 13.6287C0 13.63 0 13.6314 0 13.6327C0 13.634 0 13.6353 0 13.6366C0 13.638 0 13.6393 0 13.6406C0 13.6419 0 13.6433 0 13.6446C0 13.6459 0 13.6472 0 13.6485C0 13.6499 0 13.6512 0 13.6525C0 13.6538 0 13.6552 0 13.6565C0 13.6578 0 13.6591 0 13.6605C0 13.6618 0 13.6631 0 13.6644C0 13.6658 0 13.6671 0 13.6684C0 13.6697 0 13.6711 0 13.6724C0 13.6737 0 13.675 0 13.6764C0 13.6777 0 13.679 0 13.6803C0 13.6817 0 13.683 0 13.6843C0 13.6856 0 13.687 0 13.6883C0 13.6896 0 13.6909 0 13.6923C0 13.6936 0 13.6949 0 13.6962C0 13.6976 0 13.6989 0 13.7002C0 13.7016 0 13.7029 0 13.7042C0 13.7055 0 13.7069 0 13.7082C0 13.7095 0 13.7109 0 13.7122C0 13.7135 0 13.7148 0 13.7162C0 13.7175 0 13.7188 0 13.7202C0 13.7215 0 13.7228 0 13.7241C0 13.7255 0 13.7268 0 13.7281C0 13.7295 0 13.7308 0 13.7321C0 13.7335 0 13.7348 0 13.7361C0 13.7374 0 13.7388 0 13.7401C0 13.7414 0 13.7428 0 13.7441C0 13.7454 0 13.7468 0 13.7481C0 13.7494 0 13.7508 0 13.7521C0 13.7534 0 13.7548 0 13.7561C0 13.7574 0 13.7588 0 13.7601C0 13.7614 0 13.7627 0 13.7641C0 13.7654 0 13.7667 0 13.7681C0 13.7694 0 13.7707 0 13.7721C0 13.7734 0 13.7747 0 13.7761C0 13.7774 0 13.7788 0 13.7801C0 13.7814 0 13.7828 0 13.7841C0 13.7854 0 13.7868 0 13.7881C0 13.7894 0 13.7908 0 13.7921C0 13.7934 0 13.7948 0 13.7961C0 13.7974 0 13.7988 0 13.8001C0 13.8014 0 13.8028 0 13.8041C0 13.8055 0 13.8068 0 13.8081C0 13.8095 0 13.8108 0 13.8121C0 13.8135 0 13.8148 0 13.8162C0 13.8175 0 13.8188 0 13.8202C0 13.8215 0 13.8228 0 13.8242C0 13.8255 0 13.8269 0 13.8282C0 13.8295 0 13.8309 0 13.8322C0 13.8335 0 13.8349 0 13.8362C0 13.8376 0 13.8389 0 13.8402C0 13.8416 0 13.8429 0 13.8443C0 13.8456 0 13.8469 0 13.8483C0 13.8496 0 13.851 0 13.8523C0 13.8536 0 13.855 0 13.8563C0 13.8577 0 13.859 0 13.8603C0 13.8617 0 13.863 0 13.8644C0 13.8657 0 13.8671 0 13.8684C0 13.8697 0 13.8711 0 13.8724C0 13.8738 0 13.8751 0 13.8764C0 13.8778 0 13.8791 0 13.8805C0 13.8818 0 13.8832 0 13.8845C0 13.8858 0 13.8872 0 13.8885C0 13.8899 0 13.8912 0 13.8926C0 13.8939 0 13.8953 0 13.8966C0 13.8979 0 13.8993 0 13.9006C0 13.902 0 13.9033 0 13.9047C0 13.906 0 13.9074 0 13.9087C0 13.91 0 13.9114 0 13.9127C0 13.9141 0 13.9154 0 13.9168C0 13.9181 0 13.9195 0 13.9208C0 13.9222 0 13.9235 0 13.9248C0 13.9262 0 13.9275 0 13.9289C0 13.9302 0 13.9316 0 13.9329C0 13.9343 0 13.9356 0 13.937C0 13.9383 0 13.9397 0 13.941C0 13.9424 0 13.9437 0 13.9451C0 13.9464 0 13.9477 0 13.9491C0 13.9504 0 13.9518 0 13.9531C0 13.9545 0 13.9558 0 13.9572C0 13.9585 0 13.9599 0 13.9612C0 13.9626 0 13.9639 0 13.9653C0 13.9666 0 13.968 0 13.9693C0 13.9707 0 13.972 0 13.9734C0 13.9747 0 13.9761 0 13.9774C0 13.9788 0 13.9801 0 13.9815C0 13.9828 0 13.9842 0 13.9855C0 13.9869 0 13.9882 0 13.9896C0 13.9909 0 13.9923 0 13.9936C0 13.995 0 13.9963 0 13.9977C0 13.9991 0 14.0004 0 14.0018C0 14.0031 0 14.0045 0 14.0058C0 14.0072 0 14.0085 0 14.0099C0 14.0112 0 14.0126 0 14.0139C0 14.0153 0 14.0166 0 14.018C0 14.0193 0 14.0207 0 14.0221C0 14.0234 0 14.0248 0 14.0261C0 14.0275 0 14.0288 0 14.0302C0 14.0315 0 14.0329 0 14.0342C0 14.0356 0 14.037 0 14.0383C0 14.0397 0 14.041 0 14.0424C0 14.0437 0 14.0451 0 14.0464C0 14.0478 0 14.0492 0 14.0505C0 14.0519 0 14.0532 0 14.0546C0 14.0559 0 14.0573 0 14.0586C0 14.06 0 14.0614 0 14.0627C0 14.0641 0 14.0654 0 14.0668C0 14.0681 0 14.0695 0 14.0709C0 14.0722 0 14.0736 0 14.0749C0 14.0763 0 14.0777 0 14.079C0 14.0804 0 14.0817 0 14.0831C0 14.0844 0 14.0858 0 14.0872C0 14.0885 0 14.0899 0 14.0912C0 14.0926 0 14.094 0 14.0953C0 14.0967 0 14.098 0 14.0994C0 14.1008 0 14.1021 0 14.1035C0 14.1048 0 14.1062 0 14.1076C0 14.1089 0 14.1103 0 14.1116C0 14.113 0 14.1144 0 14.1157C0 14.1171 0 14.1184 0 14.1198C0 14.1212 0 14.1225 0 14.1239C0 14.1253 0 14.1266 0 14.128C0 14.1293 0 14.1307 0 14.1321C0 14.1334 0 14.1348 0 14.1361C0 14.1375 0 14.1389 0 14.1402C0 14.1416 0 14.143 0 14.1443C0 14.1457 0 14.1471 0 14.1484C0 14.1498 0 14.1511 0 14.1525C0 14.1539 0 14.1552 0 14.1566C0 14.158 0 14.1593 0 14.1607C0 14.1621 0 14.1634 0 14.1648C0 14.1661 0 14.1675 0 14.1689C0 14.1702 0 14.1716 0 14.173C0 14.1743 0 14.1757 0 14.1771C0 14.1784 0 14.1798 0 14.1812C0 14.1825 0 14.1839 0 14.1853C0 14.1866 0 14.188 0 14.1894C0 14.1907 0 14.1921 0 14.1935C0 14.1948 0 14.1962 0 14.1976C0 14.1989 0 14.2003 0 14.2017C0 14.203 0 14.2044 0 14.2058C0 14.2071 0 14.2085 0 14.2099C0 14.2112 0 14.2126 0 14.214C0 14.2153 0 14.2167 0 14.2181C0 14.2194 0 14.2208 0 14.2222C0 14.2236 0 14.2249 0 14.2263C0 14.2277 0 14.229 0 14.2304C0 14.2318 0 14.2331 0 14.2345C0 14.2359 0 14.2372 0 14.2386C0 14.24 0 14.2414 0 14.2427C0 14.2441 0 14.2455 0 14.2468C0 14.2482 0 14.2496 0 14.2509C0 14.2523 0 14.2537 0 14.2551C0 14.2564 0 14.2578 0 14.2592C0 14.2605 0 14.2619 0 14.2633C0 14.2647 0 14.266 0 14.2674C0 14.2688 0 14.2702 0 14.2715C0 14.2729 0 14.2743 0 14.2756C0 14.277 0 14.2784 0 14.2798C0 14.2811 0 14.2825 0 14.2839C0 14.2852 0 14.2866 0 14.288C0 14.2894 0 14.2907 0 14.2921C0 14.2935 0 14.2949 0 14.2962C0 14.2976 0 14.299 0 14.3004C0 14.3017 0 14.3031 0 14.3045C0 14.3059 0 14.3072 0 14.3086C0 14.31 0 14.3114 0 14.3127C0 14.3141 0 14.3155 0 14.3169C0 14.3182 0 14.3196 0 14.321C0 14.3224 0 14.3237 0 14.3251C0 14.3265 0 14.3279 0 14.3292C0 14.3306 0 14.332 0 14.3334C0 14.3347 0 14.3361 0 14.3375C0 14.3389 0 14.3403 0 14.3416C0 14.343 0 14.3444 0 14.3458C0 14.3471 0 14.3485 0 14.3499C0 14.3513 0 14.3526 0 14.354C0 14.3554 0 14.3568 0 14.3582C0 14.3595 0 14.3609 0 14.3623C0 14.3637 0 14.3651 0 14.3664C0 14.3678 0 14.3692 0 14.3706C0 14.3719 0 14.3733 0 14.3747C0 14.3761 0 14.3775 0 14.3788C0 14.3802 0 14.3816 0 14.383C0 14.3844 0 14.3857 0 14.3871C0 14.3885 0 14.3899 0 14.3913C0 14.3926 0 14.394 0 14.3954C0 14.3968 0 14.3982 0 14.3995C0 14.4009 0 14.4023 0 14.4037C0 14.4051 0 14.4065 0 14.4078C0 14.4092 0 14.4106 0 14.412C0 14.4134 0 14.4147 0 14.4161C0 14.4175 0 14.4189 0 14.4203C0 14.4217 0 14.423 0 14.4244C0 14.4258 0 14.4272 0 14.4286C0 14.4299 0 14.4313 0 14.4327C0 14.4341 0 14.4355 0 14.4369C0 14.4382 0 14.4396 0 14.441C0 14.4424 0 14.4438 0 14.4452C0 14.4465 0 14.4479 0 14.4493C0 14.4507 0 14.4521 0 14.4535C0 14.4549 0 14.4562 0 14.4576C0 14.459 0 14.4604 0 14.4618C0 14.4632 0 14.4645 0 14.4659C0 14.4673 0 14.4687 0 14.4701C0 14.4715 0 14.4729 0 14.4742C0 14.4756 0 14.477 0 14.4784C0 14.4798 0 14.4812 0 14.4826C0 14.4839 0 14.4853 0 14.4867C0 14.4881 0 14.4895 0 14.4909H1ZM3.5 9.99414L7.5 9.99414V8.99414L3.5 8.99414L3.5 9.99414ZM10 12.4936C10 12.4948 10 12.496 10 12.4972C10 12.4984 10 12.4996 10 12.5008C10 12.502 10 12.5032 10 12.5044C10 12.5056 10 12.5068 10 12.508C10 12.5092 10 12.5104 10 12.5116C10 12.5128 10 12.514 10 12.5152C10 12.5164 10 12.5176 10 12.5188C10 12.5199 10 12.5211 10 12.5223C10 12.5235 10 12.5247 10 12.5259C10 12.5271 10 12.5283 10 12.5295C10 12.5307 10 12.5319 10 12.5331C10 12.5343 10 12.5355 10 12.5367C10 12.5379 10 12.5391 10 12.5403C10 12.5415 10 12.5427 10 12.5439C10 12.5451 10 12.5463 10 12.5476C10 12.5488 10 12.55 10 12.5512C10 12.5524 10 12.5536 10 12.5548C10 12.556 10 12.5572 10 12.5584C10 12.5596 10 12.5608 10 12.562C10 12.5632 10 12.5644 10 12.5656C10 12.5668 10 12.568 10 12.5692C10 12.5704 10 12.5716 10 12.5728C10 12.574 10 12.5752 10 12.5764C10 12.5777 10 12.5789 10 12.5801C10 12.5813 10 12.5825 10 12.5837C10 12.5849 10 12.5861 10 12.5873C10 12.5885 10 12.5897 10 12.5909C10 12.5921 10 12.5933 10 12.5946C10 12.5958 10 12.597 10 12.5982C10 12.5994 10 12.6006 10 12.6018C10 12.603 10 12.6042 10 12.6054C10 12.6066 10 12.6079 10 12.6091C10 12.6103 10 12.6115 10 12.6127C10 12.6139 10 12.6151 10 12.6163C10 12.6175 10 12.6187 10 12.62C10 12.6212 10 12.6224 10 12.6236C10 12.6248 10 12.626 10 12.6272C10 12.6284 10 12.6297 10 12.6309C10 12.6321 10 12.6333 10 12.6345C10 12.6357 10 12.6369 10 12.6381C10 12.6394 10 12.6406 10 12.6418C10 12.643 10 12.6442 10 12.6454C10 12.6466 10 12.6479 10 12.6491C10 12.6503 10 12.6515 10 12.6527C10 12.6539 10 12.6552 10 12.6564C10 12.6576 10 12.6588 10 12.66C10 12.6612 10 12.6625 10 12.6637C10 12.6649 10 12.6661 10 12.6673C10 12.6685 10 12.6698 10 12.671C10 12.6722 10 12.6734 10 12.6746C10 12.6759 10 12.6771 10 12.6783C10 12.6795 10 12.6807 10 12.6819C10 12.6832 10 12.6844 10 12.6856C10 12.6868 10 12.688 10 12.6893C10 12.6905 10 12.6917 10 12.6929C10 12.6942 10 12.6954 10 12.6966C10 12.6978 10 12.699 10 12.7003C10 12.7015 10 12.7027 10 12.7039C10 12.7051 10 12.7064 10 12.7076C10 12.7088 10 12.71 10 12.7113C10 12.7125 10 12.7137 10 12.7149C10 12.7162 10 12.7174 10 12.7186C10 12.7198 10 12.7211 10 12.7223C10 12.7235 10 12.7247 10 12.7259C10 12.7272 10 12.7284 10 12.7296C10 12.7309 10 12.7321 10 12.7333C10 12.7345 10 12.7358 10 12.737C10 12.7382 10 12.7394 10 12.7407C10 12.7419 10 12.7431 10 12.7443C10 12.7456 10 12.7468 10 12.748C10 12.7493 10 12.7505 10 12.7517C10 12.7529 10 12.7542 10 12.7554C10 12.7566 10 12.7579 10 12.7591C10 12.7603 10 12.7615 10 12.7628C10 12.764 10 12.7652 10 12.7665C10 12.7677 10 12.7689 10 12.7701C10 12.7714 10 12.7726 10 12.7738C10 12.7751 10 12.7763 10 12.7775C10 12.7788 10 12.78 10 12.7812C10 12.7825 10 12.7837 10 12.7849C10 12.7862 10 12.7874 10 12.7886C10 12.7899 10 12.7911 10 12.7923C10 12.7936 10 12.7948 10 12.796C10 12.7973 10 12.7985 10 12.7997C10 12.801 10 12.8022 10 12.8034C10 12.8047 10 12.8059 10 12.8071C10 12.8084 10 12.8096 10 12.8108C10 12.8121 10 12.8133 10 12.8145C10 12.8158 10 12.817 10 12.8183C10 12.8195 10 12.8207 10 12.822C10 12.8232 10 12.8244 10 12.8257C10 12.8269 10 12.8281 10 12.8294C10 12.8306 10 12.8319 10 12.8331C10 12.8343 10 12.8356 10 12.8368C10 12.8381 10 12.8393 10 12.8405C10 12.8418 10 12.843 10 12.8442C10 12.8455 10 12.8467 10 12.848C10 12.8492 10 12.8504 10 12.8517C10 12.8529 10 12.8542 10 12.8554C10 12.8566 10 12.8579 10 12.8591C10 12.8604 10 12.8616 10 12.8629C10 12.8641 10 12.8653 10 12.8666C10 12.8678 10 12.8691 10 12.8703C10 12.8716 10 12.8728 10 12.874C10 12.8753 10 12.8765 10 12.8778C10 12.879 10 12.8803 10 12.8815C10 12.8827 10 12.884 10 12.8852C10 12.8865 10 12.8877 10 12.889C10 12.8902 10 12.8915 10 12.8927C10 12.8939 10 12.8952 10 12.8964C10 12.8977 10 12.8989 10 12.9002C10 12.9014 10 12.9027 10 12.9039C10 12.9052 10 12.9064 10 12.9077C10 12.9089 10 12.9101 10 12.9114C10 12.9126 10 12.9139 10 12.9151C10 12.9164 10 12.9176 10 12.9189C10 12.9201 10 12.9214 10 12.9226C10 12.9239 10 12.9251 10 12.9264C10 12.9276 10 12.9289 10 12.9301C10 12.9314 10 12.9326 10 12.9339C10 12.9351 10 12.9364 10 12.9376C10 12.9389 10 12.9401 10 12.9414C10 12.9426 10 12.9439 10 12.9451C10 12.9464 10 12.9476 10 12.9489C10 12.9501 10 12.9514 10 12.9526C10 12.9539 10 12.9551 10 12.9564C10 12.9576 10 12.9589 10 12.9602C10 12.9614 10 12.9627 10 12.9639C10 12.9652 10 12.9664 10 12.9677C10 12.9689 10 12.9702 10 12.9714C10 12.9727 10 12.9739 10 12.9752C10 12.9765 10 12.9777 10 12.979C10 12.9802 10 12.9815 10 12.9827C10 12.984 10 12.9852 10 12.9865C10 12.9878 10 12.989 10 12.9903C10 12.9915 10 12.9928 10 12.994C10 12.9953 10 12.9965 10 12.9978C10 12.9991 10 13.0003 10 13.0016C10 13.0028 10 13.0041 10 13.0054C10 13.0066 10 13.0079 10 13.0091C10 13.0104 10 13.0116 10 13.0129C10 13.0142 10 13.0154 10 13.0167C10 13.0179 10 13.0192 10 13.0205C10 13.0217 10 13.023 10 13.0242C10 13.0255 10 13.0268 10 13.028C10 13.0293 10 13.0305 10 13.0318C10 13.0331 10 13.0343 10 13.0356C10 13.0369 10 13.0381 10 13.0394C10 13.0406 10 13.0419 10 13.0432C10 13.0444 10 13.0457 10 13.047C10 13.0482 10 13.0495 10 13.0507C10 13.052 10 13.0533 10 13.0545C10 13.0558 10 13.0571 10 13.0583C10 13.0596 10 13.0609 10 13.0621C10 13.0634 10 13.0646 10 13.0659C10 13.0672 10 13.0684 10 13.0697C10 13.071 10 13.0722 10 13.0735C10 13.0748 10 13.076 10 13.0773C10 13.0786 10 13.0798 10 13.0811C10 13.0824 10 13.0836 10 13.0849C10 13.0862 10 13.0874 10 13.0887C10 13.09 10 13.0912 10 13.0925C10 13.0938 10 13.095 10 13.0963C10 13.0976 10 13.0988 10 13.1001C10 13.1014 10 13.1027 10 13.1039C10 13.1052 10 13.1065 10 13.1077C10 13.109 10 13.1103 10 13.1115C10 13.1128 10 13.1141 10 13.1153C10 13.1166 10 13.1179 10 13.1192C10 13.1204 10 13.1217 10 13.123C10 13.1242 10 13.1255 10 13.1268C10 13.1281 10 13.1293 10 13.1306C10 13.1319 10 13.1331 10 13.1344C10 13.1357 10 13.137 10 13.1382C10 13.1395 10 13.1408 10 13.1421C10 13.1433 10 13.1446 10 13.1459C10 13.1471 10 13.1484 10 13.1497C10 13.151 10 13.1522 10 13.1535C10 13.1548 10 13.1561 10 13.1573C10 13.1586 10 13.1599 10 13.1612C10 13.1624 10 13.1637 10 13.165C10 13.1663 10 13.1675 10 13.1688C10 13.1701 10 13.1714 10 13.1727C10 13.1739 10 13.1752 10 13.1765C10 13.1778 10 13.179 10 13.1803C10 13.1816 10 13.1829 10 13.1841C10 13.1854 10 13.1867 10 13.188C10 13.1893 10 13.1905 10 13.1918C10 13.1931 10 13.1944 10 13.1957C10 13.1969 10 13.1982 10 13.1995C10 13.2008 10 13.202 10 13.2033C10 13.2046 10 13.2059 10 13.2072C10 13.2084 10 13.2097 10 13.211C10 13.2123 10 13.2136 10 13.2149C10 13.2161 10 13.2174 10 13.2187C10 13.22 10 13.2213 10 13.2225C10 13.2238 10 13.2251 10 13.2264C10 13.2277 10 13.2289 10 13.2302C10 13.2315 10 13.2328 10 13.2341C10 13.2354 10 13.2366 10 13.2379C10 13.2392 10 13.2405 10 13.2418C10 13.2431 10 13.2443 10 13.2456C10 13.2469 10 13.2482 10 13.2495C10 13.2508 10 13.2521 10 13.2533C10 13.2546 10 13.2559 10 13.2572C10 13.2585 10 13.2598 10 13.2611C10 13.2623 10 13.2636 10 13.2649C10 13.2662 10 13.2675 10 13.2688C10 13.2701 10 13.2713 10 13.2726C10 13.2739 10 13.2752 10 13.2765C10 13.2778 10 13.2791 10 13.2804C10 13.2816 10 13.2829 10 13.2842C10 13.2855 10 13.2868 10 13.2881C10 13.2894 10 13.2907 10 13.2919C10 13.2932 10 13.2945 10 13.2958C10 13.2971 10 13.2984 10 13.2997C10 13.301 10 13.3023 10 13.3036C10 13.3048 10 13.3061 10 13.3074C10 13.3087 10 13.31 10 13.3113C10 13.3126 10 13.3139 10 13.3152C10 13.3165 10 13.3178 10 13.319C10 13.3203 10 13.3216 10 13.3229C10 13.3242 10 13.3255 10 13.3268C10 13.3281 10 13.3294 10 13.3307C10 13.332 10 13.3333 10 13.3346C10 13.3358 10 13.3371 10 13.3384C10 13.3397 10 13.341 10 13.3423C10 13.3436 10 13.3449 10 13.3462C10 13.3475 10 13.3488 10 13.3501C10 13.3514 10 13.3527 10 13.354C10 13.3553 10 13.3566 10 13.3579C10 13.3591 10 13.3604 10 13.3617C10 13.363 10 13.3643 10 13.3656C10 13.3669 10 13.3682 10 13.3695C10 13.3708 10 13.3721 10 13.3734C10 13.3747 10 13.376 10 13.3773C10 13.3786 10 13.3799 10 13.3812C10 13.3825 10 13.3838 10 13.3851C10 13.3864 10 13.3877 10 13.389C10 13.3903 10 13.3916 10 13.3929C10 13.3942 10 13.3955 10 13.3968C10 13.3981 10 13.3994 10 13.4007C10 13.402 10 13.4033 10 13.4046C10 13.4059 10 13.4072 10 13.4085C10 13.4098 10 13.4111 10 13.4124C10 13.4137 10 13.415 10 13.4163C10 13.4176 10 13.4189 10 13.4202C10 13.4215 10 13.4228 10 13.4241C10 13.4254 10 13.4267 10 13.428C10 13.4293 10 13.4306 10 13.4319C10 13.4332 10 13.4345 10 13.4358C10 13.4371 10 13.4384 10 13.4397C10 13.441 10 13.4423 10 13.4436C10 13.4449 10 13.4462 10 13.4475C10 13.4489 10 13.4502 10 13.4515C10 13.4528 10 13.4541 10 13.4554C10 13.4567 10 13.458 10 13.4593C10 13.4606 10 13.4619 10 13.4632C10 13.4645 10 13.4658 10 13.4671C10 13.4684 10 13.4697 10 13.471C10 13.4724 10 13.4737 10 13.475C10 13.4763 10 13.4776 10 13.4789C10 13.4802 10 13.4815 10 13.4828C10 13.4841 10 13.4854 10 13.4867C10 13.488 10 13.4893 10 13.4907C10 13.492 10 13.4933 10 13.4946C10 13.4959 10 13.4972 10 13.4985C10 13.4998 10 13.5011 10 13.5024C10 13.5037 10 13.5051 10 13.5064C10 13.5077 10 13.509 10 13.5103C10 13.5116 10 13.5129 10 13.5142C10 13.5155 10 13.5169 10 13.5182C10 13.5195 10 13.5208 10 13.5221C10 13.5234 10 13.5247 10 13.526C10 13.5273 10 13.5287 10 13.53C10 13.5313 10 13.5326 10 13.5339C10 13.5352 10 13.5365 10 13.5378C10 13.5392 10 13.5405 10 13.5418C10 13.5431 10 13.5444 10 13.5457C10 13.547 10 13.5483 10 13.5497C10 13.551 10 13.5523 10 13.5536C10 13.5549 10 13.5562 10 13.5575C10 13.5589 10 13.5602 10 13.5615C10 13.5628 10 13.5641 10 13.5654C10 13.5668 10 13.5681 10 13.5694C10 13.5707 10 13.572 10 13.5733C10 13.5746 10 13.576 10 13.5773C10 13.5786 10 13.5799 10 13.5812C10 13.5825 10 13.5839 10 13.5852C10 13.5865 10 13.5878 10 13.5891C10 13.5905 10 13.5918 10 13.5931C10 13.5944 10 13.5957 10 13.597C10 13.5984 10 13.5997 10 13.601C10 13.6023 10 13.6036 10 13.605C10 13.6063 10 13.6076 10 13.6089C10 13.6102 10 13.6115 10 13.6129C10 13.6142 10 13.6155 10 13.6168C10 13.6181 10 13.6195 10 13.6208C10 13.6221 10 13.6234 10 13.6248C10 13.6261 10 13.6274 10 13.6287C10 13.63 10 13.6314 10 13.6327C10 13.634 10 13.6353 10 13.6366C10 13.638 10 13.6393 10 13.6406C10 13.6419 10 13.6433 10 13.6446C10 13.6459 10 13.6472 10 13.6485C10 13.6499 10 13.6512 10 13.6525C10 13.6538 10 13.6552 10 13.6565C10 13.6578 10 13.6591 10 13.6605C10 13.6618 10 13.6631 10 13.6644C10 13.6658 10 13.6671 10 13.6684C10 13.6697 10 13.6711 10 13.6724C10 13.6737 10 13.675 10 13.6764C10 13.6777 10 13.679 10 13.6803C10 13.6817 10 13.683 10 13.6843C10 13.6856 10 13.687 10 13.6883C10 13.6896 10 13.6909 10 13.6923C10 13.6936 10 13.6949 10 13.6962C10 13.6976 10 13.6989 10 13.7002C10 13.7016 10 13.7029 10 13.7042C10 13.7055 10 13.7069 10 13.7082C10 13.7095 10 13.7108 10 13.7122C10 13.7135 10 13.7148 10 13.7162C10 13.7175 10 13.7188 10 13.7202C10 13.7215 10 13.7228 10 13.7241C10 13.7255 10 13.7268 10 13.7281C10 13.7295 10 13.7308 10 13.7321C10 13.7334 10 13.7348 10 13.7361C10 13.7374 10 13.7388 10 13.7401C10 13.7414 10 13.7428 10 13.7441C10 13.7454 10 13.7468 10 13.7481C10 13.7494 10 13.7508 10 13.7521C10 13.7534 10 13.7547 10 13.7561C10 13.7574 10 13.7587 10 13.7601C10 13.7614 10 13.7627 10 13.7641C10 13.7654 10 13.7667 10 13.7681C10 13.7694 10 13.7707 10 13.7721C10 13.7734 10 13.7747 10 13.7761C10 13.7774 10 13.7787 10 13.7801C10 13.7814 10 13.7828 10 13.7841C10 13.7854 10 13.7868 10 13.7881C10 13.7894 10 13.7908 10 13.7921C10 13.7934 10 13.7948 10 13.7961C10 13.7974 10 13.7988 10 13.8001C10 13.8014 10 13.8028 10 13.8041C10 13.8055 10 13.8068 10 13.8081C10 13.8095 10 13.8108 10 13.8121C10 13.8135 10 13.8148 10 13.8162C10 13.8175 10 13.8188 10 13.8202C10 13.8215 10 13.8228 10 13.8242C10 13.8255 10 13.8269 10 13.8282C10 13.8295 10 13.8309 10 13.8322C10 13.8335 10 13.8349 10 13.8362C10 13.8376 10 13.8389 10 13.8402C10 13.8416 10 13.8429 10 13.8443C10 13.8456 10 13.8469 10 13.8483C10 13.8496 10 13.851 10 13.8523C10 13.8536 10 13.855 10 13.8563C10 13.8577 10 13.859 10 13.8603C10 13.8617 10 13.863 10 13.8644C10 13.8657 10 13.8671 10 13.8684C10 13.8697 10 13.8711 10 13.8724C10 13.8738 10 13.8751 10 13.8764C10 13.8778 10 13.8791 10 13.8805C10 13.8818 10 13.8832 10 13.8845C10 13.8858 10 13.8872 10 13.8885C10 13.8899 10 13.8912 10 13.8926C10 13.8939 10 13.8952 10 13.8966C10 13.8979 10 13.8993 10 13.9006C10 13.902 10 13.9033 10 13.9047C10 13.906 10 13.9073 10 13.9087C10 13.91 10 13.9114 10 13.9127C10 13.9141 10 13.9154 10 13.9168C10 13.9181 10 13.9195 10 13.9208C10 13.9221 10 13.9235 10 13.9248C10 13.9262 10 13.9275 10 13.9289C10 13.9302 10 13.9316 10 13.9329C10 13.9343 10 13.9356 10 13.937C10 13.9383 10 13.9397 10 13.941C10 13.9424 10 13.9437 10 13.945C10 13.9464 10 13.9477 10 13.9491C10 13.9504 10 13.9518 10 13.9531C10 13.9545 10 13.9558 10 13.9572C10 13.9585 10 13.9599 10 13.9612C10 13.9626 10 13.9639 10 13.9653C10 13.9666 10 13.968 10 13.9693C10 13.9707 10 13.972 10 13.9734C10 13.9747 10 13.9761 10 13.9774C10 13.9788 10 13.9801 10 13.9815C10 13.9828 10 13.9842 10 13.9855C10 13.9869 10 13.9882 10 13.9896C10 13.9909 10 13.9923 10 13.9936C10 13.995 10 13.9963 10 13.9977C10 13.999 10 14.0004 10 14.0018C10 14.0031 10 14.0045 10 14.0058C10 14.0072 10 14.0085 10 14.0099C10 14.0112 10 14.0126 10 14.0139C10 14.0153 10 14.0166 10 14.018C10 14.0193 10 14.0207 10 14.022C10 14.0234 10 14.0248 10 14.0261C10 14.0275 10 14.0288 10 14.0302C10 14.0315 10 14.0329 10 14.0342C10 14.0356 10 14.0369 10 14.0383C10 14.0397 10 14.041 10 14.0424C10 14.0437 10 14.0451 10 14.0464C10 14.0478 10 14.0491 10 14.0505C10 14.0519 10 14.0532 10 14.0546C10 14.0559 10 14.0573 10 14.0586C10 14.06 10 14.0614 10 14.0627C10 14.0641 10 14.0654 10 14.0668C10 14.0681 10 14.0695 10 14.0709C10 14.0722 10 14.0736 10 14.0749C10 14.0763 10 14.0776 10 14.079C10 14.0804 10 14.0817 10 14.0831C10 14.0844 10 14.0858 10 14.0872C10 14.0885 10 14.0899 10 14.0912C10 14.0926 10 14.094 10 14.0953C10 14.0967 10 14.098 10 14.0994C10 14.1008 10 14.1021 10 14.1035C10 14.1048 10 14.1062 10 14.1076C10 14.1089 10 14.1103 10 14.1116C10 14.113 10 14.1144 10 14.1157C10 14.1171 10 14.1184 10 14.1198C10 14.1212 10 14.1225 10 14.1239C10 14.1252 10 14.1266 10 14.128C10 14.1293 10 14.1307 10 14.1321C10 14.1334 10 14.1348 10 14.1361C10 14.1375 10 14.1389 10 14.1402C10 14.1416 10 14.143 10 14.1443C10 14.1457 10 14.147 10 14.1484C10 14.1498 10 14.1511 10 14.1525C10 14.1539 10 14.1552 10 14.1566C10 14.158 10 14.1593 10 14.1607C10 14.162 10 14.1634 10 14.1648C10 14.1661 10 14.1675 10 14.1689C10 14.1702 10 14.1716 10 14.173C10 14.1743 10 14.1757 10 14.1771C10 14.1784 10 14.1798 10 14.1812C10 14.1825 10 14.1839 10 14.1853C10 14.1866 10 14.188 10 14.1894C10 14.1907 10 14.1921 10 14.1935C10 14.1948 10 14.1962 10 14.1976C10 14.1989 10 14.2003 10 14.2017C10 14.203 10 14.2044 10 14.2058C10 14.2071 10 14.2085 10 14.2099C10 14.2112 10 14.2126 10 14.214C10 14.2153 10 14.2167 10 14.2181C10 14.2194 10 14.2208 10 14.2222C10 14.2235 10 14.2249 10 14.2263C10 14.2277 10 14.229 10 14.2304C10 14.2318 10 14.2331 10 14.2345C10 14.2359 10 14.2372 10 14.2386C10 14.24 10 14.2414 10 14.2427C10 14.2441 10 14.2455 10 14.2468C10 14.2482 10 14.2496 10 14.2509C10 14.2523 10 14.2537 10 14.2551C10 14.2564 10 14.2578 10 14.2592C10 14.2605 10 14.2619 10 14.2633C10 14.2647 10 14.266 10 14.2674C10 14.2688 10 14.2701 10 14.2715C10 14.2729 10 14.2743 10 14.2756C10 14.277 10 14.2784 10 14.2798C10 14.2811 10 14.2825 10 14.2839C10 14.2852 10 14.2866 10 14.288C10 14.2894 10 14.2907 10 14.2921C10 14.2935 10 14.2949 10 14.2962C10 14.2976 10 14.299 10 14.3004C10 14.3017 10 14.3031 10 14.3045C10 14.3059 10 14.3072 10 14.3086C10 14.31 10 14.3114 10 14.3127C10 14.3141 10 14.3155 10 14.3169C10 14.3182 10 14.3196 10 14.321C10 14.3224 10 14.3237 10 14.3251C10 14.3265 10 14.3279 10 14.3292C10 14.3306 10 14.332 10 14.3334C10 14.3347 10 14.3361 10 14.3375C10 14.3389 10 14.3402 10 14.3416C10 14.343 10 14.3444 10 14.3458C10 14.3471 10 14.3485 10 14.3499C10 14.3513 10 14.3526 10 14.354C10 14.3554 10 14.3568 10 14.3582C10 14.3595 10 14.3609 10 14.3623C10 14.3637 10 14.365 10 14.3664C10 14.3678 10 14.3692 10 14.3706C10 14.3719 10 14.3733 10 14.3747C10 14.3761 10 14.3775 10 14.3788C10 14.3802 10 14.3816 10 14.383C10 14.3844 10 14.3857 10 14.3871C10 14.3885 10 14.3899 10 14.3913C10 14.3926 10 14.394 10 14.3954C10 14.3968 10 14.3982 10 14.3995C10 14.4009 10 14.4023 10 14.4037C10 14.4051 10 14.4064 10 14.4078C10 14.4092 10 14.4106 10 14.412C10 14.4134 10 14.4147 10 14.4161C10 14.4175 10 14.4189 10 14.4203C10 14.4216 10 14.423 10 14.4244C10 14.4258 10 14.4272 10 14.4286C10 14.4299 10 14.4313 10 14.4327C10 14.4341 10 14.4355 10 14.4369C10 14.4382 10 14.4396 10 14.441C10 14.4424 10 14.4438 10 14.4452C10 14.4465 10 14.4479 10 14.4493C10 14.4507 10 14.4521 10 14.4535C10 14.4548 10 14.4562 10 14.4576C10 14.459 10 14.4604 10 14.4618C10 14.4632 10 14.4645 10 14.4659C10 14.4673 10 14.4687 10 14.4701C10 14.4715 10 14.4729 10 14.4742C10 14.4756 10 14.477 10 14.4784C10 14.4798 10 14.4812 10 14.4826C10 14.4839 10 14.4853 10 14.4867C10 14.4881 10 14.4895 10 14.4909H11C11 14.4895 11 14.4881 11 14.4867C11 14.4853 11 14.4839 11 14.4826C11 14.4812 11 14.4798 11 14.4784C11 14.477 11 14.4756 11 14.4742C11 14.4729 11 14.4715 11 14.4701C11 14.4687 11 14.4673 11 14.4659C11 14.4645 11 14.4632 11 14.4618C11 14.4604 11 14.459 11 14.4576C11 14.4562 11 14.4548 11 14.4535C11 14.4521 11 14.4507 11 14.4493C11 14.4479 11 14.4465 11 14.4452C11 14.4438 11 14.4424 11 14.441C11 14.4396 11 14.4382 11 14.4369C11 14.4355 11 14.4341 11 14.4327C11 14.4313 11 14.4299 11 14.4286C11 14.4272 11 14.4258 11 14.4244C11 14.423 11 14.4216 11 14.4203C11 14.4189 11 14.4175 11 14.4161C11 14.4147 11 14.4134 11 14.412C11 14.4106 11 14.4092 11 14.4078C11 14.4064 11 14.4051 11 14.4037C11 14.4023 11 14.4009 11 14.3995C11 14.3982 11 14.3968 11 14.3954C11 14.394 11 14.3926 11 14.3913C11 14.3899 11 14.3885 11 14.3871C11 14.3857 11 14.3844 11 14.383C11 14.3816 11 14.3802 11 14.3788C11 14.3775 11 14.3761 11 14.3747C11 14.3733 11 14.3719 11 14.3706C11 14.3692 11 14.3678 11 14.3664C11 14.365 11 14.3637 11 14.3623C11 14.3609 11 14.3595 11 14.3582C11 14.3568 11 14.3554 11 14.354C11 14.3526 11 14.3513 11 14.3499C11 14.3485 11 14.3471 11 14.3458C11 14.3444 11 14.343 11 14.3416C11 14.3402 11 14.3389 11 14.3375C11 14.3361 11 14.3347 11 14.3334C11 14.332 11 14.3306 11 14.3292C11 14.3279 11 14.3265 11 14.3251C11 14.3237 11 14.3224 11 14.321C11 14.3196 11 14.3182 11 14.3169C11 14.3155 11 14.3141 11 14.3127C11 14.3114 11 14.31 11 14.3086C11 14.3072 11 14.3059 11 14.3045C11 14.3031 11 14.3017 11 14.3004C11 14.299 11 14.2976 11 14.2962C11 14.2949 11 14.2935 11 14.2921C11 14.2907 11 14.2894 11 14.288C11 14.2866 11 14.2852 11 14.2839C11 14.2825 11 14.2811 11 14.2798C11 14.2784 11 14.277 11 14.2756C11 14.2743 11 14.2729 11 14.2715C11 14.2701 11 14.2688 11 14.2674C11 14.266 11 14.2647 11 14.2633C11 14.2619 11 14.2605 11 14.2592C11 14.2578 11 14.2564 11 14.2551C11 14.2537 11 14.2523 11 14.2509C11 14.2496 11 14.2482 11 14.2468C11 14.2455 11 14.2441 11 14.2427C11 14.2414 11 14.24 11 14.2386C11 14.2372 11 14.2359 11 14.2345C11 14.2331 11 14.2318 11 14.2304C11 14.229 11 14.2277 11 14.2263C11 14.2249 11 14.2235 11 14.2222C11 14.2208 11 14.2194 11 14.2181C11 14.2167 11 14.2153 11 14.214C11 14.2126 11 14.2112 11 14.2099C11 14.2085 11 14.2071 11 14.2058C11 14.2044 11 14.203 11 14.2017C11 14.2003 11 14.1989 11 14.1976C11 14.1962 11 14.1948 11 14.1935C11 14.1921 11 14.1907 11 14.1894C11 14.188 11 14.1866 11 14.1853C11 14.1839 11 14.1825 11 14.1812C11 14.1798 11 14.1784 11 14.1771C11 14.1757 11 14.1743 11 14.173C11 14.1716 11 14.1702 11 14.1689C11 14.1675 11 14.1661 11 14.1648C11 14.1634 11 14.162 11 14.1607C11 14.1593 11 14.158 11 14.1566C11 14.1552 11 14.1539 11 14.1525C11 14.1511 11 14.1498 11 14.1484C11 14.147 11 14.1457 11 14.1443C11 14.143 11 14.1416 11 14.1402C11 14.1389 11 14.1375 11 14.1361C11 14.1348 11 14.1334 11 14.1321C11 14.1307 11 14.1293 11 14.128C11 14.1266 11 14.1252 11 14.1239C11 14.1225 11 14.1212 11 14.1198C11 14.1184 11 14.1171 11 14.1157C11 14.1144 11 14.113 11 14.1116C11 14.1103 11 14.1089 11 14.1076C11 14.1062 11 14.1048 11 14.1035C11 14.1021 11 14.1008 11 14.0994C11 14.098 11 14.0967 11 14.0953C11 14.094 11 14.0926 11 14.0912C11 14.0899 11 14.0885 11 14.0872C11 14.0858 11 14.0844 11 14.0831C11 14.0817 11 14.0804 11 14.079C11 14.0776 11 14.0763 11 14.0749C11 14.0736 11 14.0722 11 14.0709C11 14.0695 11 14.0681 11 14.0668C11 14.0654 11 14.0641 11 14.0627C11 14.0614 11 14.06 11 14.0586C11 14.0573 11 14.0559 11 14.0546C11 14.0532 11 14.0519 11 14.0505C11 14.0491 11 14.0478 11 14.0464C11 14.0451 11 14.0437 11 14.0424C11 14.041 11 14.0397 11 14.0383C11 14.0369 11 14.0356 11 14.0342C11 14.0329 11 14.0315 11 14.0302C11 14.0288 11 14.0275 11 14.0261C11 14.0248 11 14.0234 11 14.022C11 14.0207 11 14.0193 11 14.018C11 14.0166 11 14.0153 11 14.0139C11 14.0126 11 14.0112 11 14.0099C11 14.0085 11 14.0072 11 14.0058C11 14.0045 11 14.0031 11 14.0018C11 14.0004 11 13.999 11 13.9977C11 13.9963 11 13.995 11 13.9936C11 13.9923 11 13.9909 11 13.9896C11 13.9882 11 13.9869 11 13.9855C11 13.9842 11 13.9828 11 13.9815C11 13.9801 11 13.9788 11 13.9774C11 13.9761 11 13.9747 11 13.9734C11 13.972 11 13.9707 11 13.9693C11 13.968 11 13.9666 11 13.9653C11 13.9639 11 13.9626 11 13.9612C11 13.9599 11 13.9585 11 13.9572C11 13.9558 11 13.9545 11 13.9531C11 13.9518 11 13.9504 11 13.9491C11 13.9477 11 13.9464 11 13.945C11 13.9437 11 13.9424 11 13.941C11 13.9397 11 13.9383 11 13.937C11 13.9356 11 13.9343 11 13.9329C11 13.9316 11 13.9302 11 13.9289C11 13.9275 11 13.9262 11 13.9248C11 13.9235 11 13.9221 11 13.9208C11 13.9195 11 13.9181 11 13.9168C11 13.9154 11 13.9141 11 13.9127C11 13.9114 11 13.91 11 13.9087C11 13.9073 11 13.906 11 13.9047C11 13.9033 11 13.902 11 13.9006C11 13.8993 11 13.8979 11 13.8966C11 13.8952 11 13.8939 11 13.8926C11 13.8912 11 13.8899 11 13.8885C11 13.8872 11 13.8858 11 13.8845C11 13.8832 11 13.8818 11 13.8805C11 13.8791 11 13.8778 11 13.8764C11 13.8751 11 13.8738 11 13.8724C11 13.8711 11 13.8697 11 13.8684C11 13.8671 11 13.8657 11 13.8644C11 13.863 11 13.8617 11 13.8603C11 13.859 11 13.8577 11 13.8563C11 13.855 11 13.8536 11 13.8523C11 13.851 11 13.8496 11 13.8483C11 13.8469 11 13.8456 11 13.8443C11 13.8429 11 13.8416 11 13.8402C11 13.8389 11 13.8376 11 13.8362C11 13.8349 11 13.8335 11 13.8322C11 13.8309 11 13.8295 11 13.8282C11 13.8269 11 13.8255 11 13.8242C11 13.8228 11 13.8215 11 13.8202C11 13.8188 11 13.8175 11 13.8162C11 13.8148 11 13.8135 11 13.8121C11 13.8108 11 13.8095 11 13.8081C11 13.8068 11 13.8055 11 13.8041C11 13.8028 11 13.8014 11 13.8001C11 13.7988 11 13.7974 11 13.7961C11 13.7948 11 13.7934 11 13.7921C11 13.7908 11 13.7894 11 13.7881C11 13.7868 11 13.7854 11 13.7841C11 13.7828 11 13.7814 11 13.7801C11 13.7787 11 13.7774 11 13.7761C11 13.7747 11 13.7734 11 13.7721C11 13.7707 11 13.7694 11 13.7681C11 13.7667 11 13.7654 11 13.7641C11 13.7627 11 13.7614 11 13.7601C11 13.7587 11 13.7574 11 13.7561C11 13.7547 11 13.7534 11 13.7521C11 13.7508 11 13.7494 11 13.7481C11 13.7468 11 13.7454 11 13.7441C11 13.7428 11 13.7414 11 13.7401C11 13.7388 11 13.7374 11 13.7361C11 13.7348 11 13.7334 11 13.7321C11 13.7308 11 13.7295 11 13.7281C11 13.7268 11 13.7255 11 13.7241C11 13.7228 11 13.7215 11 13.7202C11 13.7188 11 13.7175 11 13.7162C11 13.7148 11 13.7135 11 13.7122C11 13.7108 11 13.7095 11 13.7082C11 13.7069 11 13.7055 11 13.7042C11 13.7029 11 13.7016 11 13.7002C11 13.6989 11 13.6976 11 13.6962C11 13.6949 11 13.6936 11 13.6923C11 13.6909 11 13.6896 11 13.6883C11 13.687 11 13.6856 11 13.6843C11 13.683 11 13.6817 11 13.6803C11 13.679 11 13.6777 11 13.6764C11 13.675 11 13.6737 11 13.6724C11 13.6711 11 13.6697 11 13.6684C11 13.6671 11 13.6658 11 13.6644C11 13.6631 11 13.6618 11 13.6605C11 13.6591 11 13.6578 11 13.6565C11 13.6552 11 13.6538 11 13.6525C11 13.6512 11 13.6499 11 13.6485C11 13.6472 11 13.6459 11 13.6446C11 13.6433 11 13.6419 11 13.6406C11 13.6393 11 13.638 11 13.6366C11 13.6353 11 13.634 11 13.6327C11 13.6314 11 13.63 11 13.6287C11 13.6274 11 13.6261 11 13.6248C11 13.6234 11 13.6221 11 13.6208C11 13.6195 11 13.6181 11 13.6168C11 13.6155 11 13.6142 11 13.6129C11 13.6115 11 13.6102 11 13.6089C11 13.6076 11 13.6063 11 13.605C11 13.6036 11 13.6023 11 13.601C11 13.5997 11 13.5984 11 13.597C11 13.5957 11 13.5944 11 13.5931C11 13.5918 11 13.5905 11 13.5891C11 13.5878 11 13.5865 11 13.5852C11 13.5839 11 13.5825 11 13.5812C11 13.5799 11 13.5786 11 13.5773C11 13.576 11 13.5746 11 13.5733C11 13.572 11 13.5707 11 13.5694C11 13.5681 11 13.5668 11 13.5654C11 13.5641 11 13.5628 11 13.5615C11 13.5602 11 13.5589 11 13.5575C11 13.5562 11 13.5549 11 13.5536C11 13.5523 11 13.551 11 13.5497C11 13.5483 11 13.547 11 13.5457C11 13.5444 11 13.5431 11 13.5418C11 13.5405 11 13.5392 11 13.5378C11 13.5365 11 13.5352 11 13.5339C11 13.5326 11 13.5313 11 13.53C11 13.5287 11 13.5273 11 13.526C11 13.5247 11 13.5234 11 13.5221C11 13.5208 11 13.5195 11 13.5182C11 13.5169 11 13.5155 11 13.5142C11 13.5129 11 13.5116 11 13.5103C11 13.509 11 13.5077 11 13.5064C11 13.5051 11 13.5037 11 13.5024C11 13.5011 11 13.4998 11 13.4985C11 13.4972 11 13.4959 11 13.4946C11 13.4933 11 13.492 11 13.4907C11 13.4893 11 13.488 11 13.4867C11 13.4854 11 13.4841 11 13.4828C11 13.4815 11 13.4802 11 13.4789C11 13.4776 11 13.4763 11 13.475C11 13.4737 11 13.4724 11 13.471C11 13.4697 11 13.4684 11 13.4671C11 13.4658 11 13.4645 11 13.4632C11 13.4619 11 13.4606 11 13.4593C11 13.458 11 13.4567 11 13.4554C11 13.4541 11 13.4528 11 13.4515C11 13.4502 11 13.4489 11 13.4475C11 13.4462 11 13.4449 11 13.4436C11 13.4423 11 13.441 11 13.4397C11 13.4384 11 13.4371 11 13.4358C11 13.4345 11 13.4332 11 13.4319C11 13.4306 11 13.4293 11 13.428C11 13.4267 11 13.4254 11 13.4241C11 13.4228 11 13.4215 11 13.4202C11 13.4189 11 13.4176 11 13.4163C11 13.415 11 13.4137 11 13.4124C11 13.4111 11 13.4098 11 13.4085C11 13.4072 11 13.4059 11 13.4046C11 13.4033 11 13.402 11 13.4007C11 13.3994 11 13.3981 11 13.3968C11 13.3955 11 13.3942 11 13.3929C11 13.3916 11 13.3903 11 13.389C11 13.3877 11 13.3864 11 13.3851C11 13.3838 11 13.3825 11 13.3812C11 13.3799 11 13.3786 11 13.3773C11 13.376 11 13.3747 11 13.3734C11 13.3721 11 13.3708 11 13.3695C11 13.3682 11 13.3669 11 13.3656C11 13.3643 11 13.363 11 13.3617C11 13.3604 11 13.3591 11 13.3579C11 13.3566 11 13.3553 11 13.354C11 13.3527 11 13.3514 11 13.3501C11 13.3488 11 13.3475 11 13.3462C11 13.3449 11 13.3436 11 13.3423C11 13.341 11 13.3397 11 13.3384C11 13.3371 11 13.3358 11 13.3346C11 13.3333 11 13.332 11 13.3307C11 13.3294 11 13.3281 11 13.3268C11 13.3255 11 13.3242 11 13.3229C11 13.3216 11 13.3203 11 13.319C11 13.3178 11 13.3165 11 13.3152C11 13.3139 11 13.3126 11 13.3113C11 13.31 11 13.3087 11 13.3074C11 13.3061 11 13.3048 11 13.3036C11 13.3023 11 13.301 11 13.2997C11 13.2984 11 13.2971 11 13.2958C11 13.2945 11 13.2932 11 13.2919C11 13.2907 11 13.2894 11 13.2881C11 13.2868 11 13.2855 11 13.2842C11 13.2829 11 13.2816 11 13.2804C11 13.2791 11 13.2778 11 13.2765C11 13.2752 11 13.2739 11 13.2726C11 13.2713 11 13.2701 11 13.2688C11 13.2675 11 13.2662 11 13.2649C11 13.2636 11 13.2623 11 13.2611C11 13.2598 11 13.2585 11 13.2572C11 13.2559 11 13.2546 11 13.2533C11 13.2521 11 13.2508 11 13.2495C11 13.2482 11 13.2469 11 13.2456C11 13.2443 11 13.2431 11 13.2418C11 13.2405 11 13.2392 11 13.2379C11 13.2366 11 13.2354 11 13.2341C11 13.2328 11 13.2315 11 13.2302C11 13.2289 11 13.2277 11 13.2264C11 13.2251 11 13.2238 11 13.2225C11 13.2213 11 13.22 11 13.2187C11 13.2174 11 13.2161 11 13.2149C11 13.2136 11 13.2123 11 13.211C11 13.2097 11 13.2084 11 13.2072C11 13.2059 11 13.2046 11 13.2033C11 13.202 11 13.2008 11 13.1995C11 13.1982 11 13.1969 11 13.1957C11 13.1944 11 13.1931 11 13.1918C11 13.1905 11 13.1893 11 13.188C11 13.1867 11 13.1854 11 13.1841C11 13.1829 11 13.1816 11 13.1803C11 13.179 11 13.1778 11 13.1765C11 13.1752 11 13.1739 11 13.1727C11 13.1714 11 13.1701 11 13.1688C11 13.1675 11 13.1663 11 13.165C11 13.1637 11 13.1624 11 13.1612C11 13.1599 11 13.1586 11 13.1573C11 13.1561 11 13.1548 11 13.1535C11 13.1522 11 13.151 11 13.1497C11 13.1484 11 13.1471 11 13.1459C11 13.1446 11 13.1433 11 13.1421C11 13.1408 11 13.1395 11 13.1382C11 13.137 11 13.1357 11 13.1344C11 13.1331 11 13.1319 11 13.1306C11 13.1293 11 13.1281 11 13.1268C11 13.1255 11 13.1242 11 13.123C11 13.1217 11 13.1204 11 13.1192C11 13.1179 11 13.1166 11 13.1153C11 13.1141 11 13.1128 11 13.1115C11 13.1103 11 13.109 11 13.1077C11 13.1065 11 13.1052 11 13.1039C11 13.1027 11 13.1014 11 13.1001C11 13.0988 11 13.0976 11 13.0963C11 13.095 11 13.0938 11 13.0925C11 13.0912 11 13.09 11 13.0887C11 13.0874 11 13.0862 11 13.0849C11 13.0836 11 13.0824 11 13.0811C11 13.0798 11 13.0786 11 13.0773C11 13.076 11 13.0748 11 13.0735C11 13.0722 11 13.071 11 13.0697C11 13.0684 11 13.0672 11 13.0659C11 13.0646 11 13.0634 11 13.0621C11 13.0609 11 13.0596 11 13.0583C11 13.0571 11 13.0558 11 13.0545C11 13.0533 11 13.052 11 13.0507C11 13.0495 11 13.0482 11 13.047C11 13.0457 11 13.0444 11 13.0432C11 13.0419 11 13.0406 11 13.0394C11 13.0381 11 13.0369 11 13.0356C11 13.0343 11 13.0331 11 13.0318C11 13.0305 11 13.0293 11 13.028C11 13.0268 11 13.0255 11 13.0242C11 13.023 11 13.0217 11 13.0205C11 13.0192 11 13.0179 11 13.0167C11 13.0154 11 13.0142 11 13.0129C11 13.0116 11 13.0104 11 13.0091C11 13.0079 11 13.0066 11 13.0054C11 13.0041 11 13.0028 11 13.0016C11 13.0003 11 12.9991 11 12.9978C11 12.9965 11 12.9953 11 12.994C11 12.9928 11 12.9915 11 12.9903C11 12.989 11 12.9878 11 12.9865C11 12.9852 11 12.984 11 12.9827C11 12.9815 11 12.9802 11 12.979C11 12.9777 11 12.9765 11 12.9752C11 12.9739 11 12.9727 11 12.9714C11 12.9702 11 12.9689 11 12.9677C11 12.9664 11 12.9652 11 12.9639C11 12.9627 11 12.9614 11 12.9602C11 12.9589 11 12.9576 11 12.9564C11 12.9551 11 12.9539 11 12.9526C11 12.9514 11 12.9501 11 12.9489C11 12.9476 11 12.9464 11 12.9451C11 12.9439 11 12.9426 11 12.9414C11 12.9401 11 12.9389 11 12.9376C11 12.9364 11 12.9351 11 12.9339C11 12.9326 11 12.9314 11 12.9301C11 12.9289 11 12.9276 11 12.9264C11 12.9251 11 12.9239 11 12.9226C11 12.9214 11 12.9201 11 12.9189C11 12.9176 11 12.9164 11 12.9151C11 12.9139 11 12.9126 11 12.9114C11 12.9101 11 12.9089 11 12.9077C11 12.9064 11 12.9052 11 12.9039C11 12.9027 11 12.9014 11 12.9002C11 12.8989 11 12.8977 11 12.8964C11 12.8952 11 12.8939 11 12.8927C11 12.8915 11 12.8902 11 12.889C11 12.8877 11 12.8865 11 12.8852C11 12.884 11 12.8827 11 12.8815C11 12.8803 11 12.879 11 12.8778C11 12.8765 11 12.8753 11 12.874C11 12.8728 11 12.8716 11 12.8703C11 12.8691 11 12.8678 11 12.8666C11 12.8653 11 12.8641 11 12.8629C11 12.8616 11 12.8604 11 12.8591C11 12.8579 11 12.8566 11 12.8554C11 12.8542 11 12.8529 11 12.8517C11 12.8504 11 12.8492 11 12.848C11 12.8467 11 12.8455 11 12.8442C11 12.843 11 12.8418 11 12.8405C11 12.8393 11 12.8381 11 12.8368C11 12.8356 11 12.8343 11 12.8331C11 12.8319 11 12.8306 11 12.8294C11 12.8281 11 12.8269 11 12.8257C11 12.8244 11 12.8232 11 12.822C11 12.8207 11 12.8195 11 12.8183C11 12.817 11 12.8158 11 12.8145C11 12.8133 11 12.8121 11 12.8108C11 12.8096 11 12.8084 11 12.8071C11 12.8059 11 12.8047 11 12.8034C11 12.8022 11 12.801 11 12.7997C11 12.7985 11 12.7973 11 12.796C11 12.7948 11 12.7936 11 12.7923C11 12.7911 11 12.7899 11 12.7886C11 12.7874 11 12.7862 11 12.7849C11 12.7837 11 12.7825 11 12.7812C11 12.78 11 12.7788 11 12.7775C11 12.7763 11 12.7751 11 12.7738C11 12.7726 11 12.7714 11 12.7701C11 12.7689 11 12.7677 11 12.7665C11 12.7652 11 12.764 11 12.7628C11 12.7615 11 12.7603 11 12.7591C11 12.7579 11 12.7566 11 12.7554C11 12.7542 11 12.7529 11 12.7517C11 12.7505 11 12.7493 11 12.748C11 12.7468 11 12.7456 11 12.7443C11 12.7431 11 12.7419 11 12.7407C11 12.7394 11 12.7382 11 12.737C11 12.7358 11 12.7345 11 12.7333C11 12.7321 11 12.7309 11 12.7296C11 12.7284 11 12.7272 11 12.7259C11 12.7247 11 12.7235 11 12.7223C11 12.7211 11 12.7198 11 12.7186C11 12.7174 11 12.7162 11 12.7149C11 12.7137 11 12.7125 11 12.7113C11 12.71 11 12.7088 11 12.7076C11 12.7064 11 12.7051 11 12.7039C11 12.7027 11 12.7015 11 12.7003C11 12.699 11 12.6978 11 12.6966C11 12.6954 11 12.6942 11 12.6929C11 12.6917 11 12.6905 11 12.6893C11 12.688 11 12.6868 11 12.6856C11 12.6844 11 12.6832 11 12.6819C11 12.6807 11 12.6795 11 12.6783C11 12.6771 11 12.6759 11 12.6746C11 12.6734 11 12.6722 11 12.671C11 12.6698 11 12.6685 11 12.6673C11 12.6661 11 12.6649 11 12.6637C11 12.6625 11 12.6612 11 12.66C11 12.6588 11 12.6576 11 12.6564C11 12.6552 11 12.6539 11 12.6527C11 12.6515 11 12.6503 11 12.6491C11 12.6479 11 12.6466 11 12.6454C11 12.6442 11 12.643 11 12.6418C11 12.6406 11 12.6394 11 12.6381C11 12.6369 11 12.6357 11 12.6345C11 12.6333 11 12.6321 11 12.6309C11 12.6297 11 12.6284 11 12.6272C11 12.626 11 12.6248 11 12.6236C11 12.6224 11 12.6212 11 12.62C11 12.6187 11 12.6175 11 12.6163C11 12.6151 11 12.6139 11 12.6127C11 12.6115 11 12.6103 11 12.6091C11 12.6079 11 12.6066 11 12.6054C11 12.6042 11 12.603 11 12.6018C11 12.6006 11 12.5994 11 12.5982C11 12.597 11 12.5958 11 12.5946C11 12.5933 11 12.5921 11 12.5909C11 12.5897 11 12.5885 11 12.5873C11 12.5861 11 12.5849 11 12.5837C11 12.5825 11 12.5813 11 12.5801C11 12.5789 11 12.5777 11 12.5764C11 12.5752 11 12.574 11 12.5728C11 12.5716 11 12.5704 11 12.5692C11 12.568 11 12.5668 11 12.5656C11 12.5644 11 12.5632 11 12.562C11 12.5608 11 12.5596 11 12.5584C11 12.5572 11 12.556 11 12.5548C11 12.5536 11 12.5524 11 12.5512C11 12.55 11 12.5488 11 12.5476C11 12.5463 11 12.5451 11 12.5439C11 12.5427 11 12.5415 11 12.5403C11 12.5391 11 12.5379 11 12.5367C11 12.5355 11 12.5343 11 12.5331C11 12.5319 11 12.5307 11 12.5295C11 12.5283 11 12.5271 11 12.5259C11 12.5247 11 12.5235 11 12.5223C11 12.5211 11 12.5199 11 12.5188C11 12.5176 11 12.5164 11 12.5152C11 12.514 11 12.5128 11 12.5116C11 12.5104 11 12.5092 11 12.508C11 12.5068 11 12.5056 11 12.5044C11 12.5032 11 12.502 11 12.5008C11 12.4996 11 12.4984 11 12.4972C11 12.496 11 12.4948 11 12.4936H10ZM7.5 9.99414C8.88082 9.99414 10 11.113 10 12.4936H11C11 10.5605 9.43288 8.99414 7.5 8.99414L7.5 9.99414ZM1 12.4936C1 11.113 2.11918 9.99414 3.5 9.99414L3.5 8.99414C1.56711 8.99414 0 10.5605 0 12.4936H1ZM10 8H15V7H10V8Z" fill="black"/>
</svg>
