<svg width="15" height="15" viewBox="0 0 15 15" fill="none" xmlns="http://www.w3.org/2000/svg">
<path d="M7.5 13.5L7.06811 13.7519C7.15772 13.9055 7.32217 14 7.5 14C7.67783 14 7.84228 13.9055 7.93189 13.7519L7.5 13.5ZM11.5 1.5L11.9341 1.74807C12.0226 1.59332 12.0219 1.40319 11.9325 1.24904C11.843 1.09488 11.6782 1 11.5 1V1.5ZM7.5 8.5L7.06588 8.74807C7.1549 8.90386 7.32057 9 7.5 9C7.67943 9 7.8451 8.90386 7.93412 8.74807L7.5 8.5ZM3.5 1.5V1C3.32176 1 3.15701 1.09488 3.06754 1.24904C2.97808 1.40319 2.97745 1.59332 3.06588 1.74807L3.5 1.5ZM6.5 1.5L6.94721 1.27639L6.80902 1H6.5V1.5ZM7.5 3.5L7.05279 3.72361C7.13748 3.893 7.31061 4 7.5 4C7.68939 4 7.86252 3.893 7.94721 3.72361L7.5 3.5ZM8.5 1.5V1H8.19098L8.05279 1.27639L8.5 1.5ZM0.0681106 1.75194L7.06811 13.7519L7.93189 13.2481L0.931889 1.24806L0.0681106 1.75194ZM7.93189 13.7519L14.9319 1.75194L14.0681 1.24806L7.06811 13.2481L7.93189 13.7519ZM11.0659 1.25193L7.06588 8.25193L7.93412 8.74807L11.9341 1.74807L11.0659 1.25193ZM7.93412 8.25193L3.93412 1.25193L3.06588 1.74807L7.06588 8.74807L7.93412 8.25193ZM3.5 2H6.5V1H3.5V2ZM6.05279 1.72361L7.05279 3.72361L7.94721 3.27639L6.94721 1.27639L6.05279 1.72361ZM7.94721 3.72361L8.94721 1.72361L8.05279 1.27639L7.05279 3.27639L7.94721 3.72361ZM8.5 2H11.5V1H8.5V2Z" fill="black"/>
</svg>
